<svg width="35" height="35" viewBox="0 0 35 35" fill="none" xmlns="http://www.w3.org/2000/svg">
<path d="M13.125 23.6247L8.02088 18.5205C7.8874 18.3854 7.72844 18.2782 7.55321 18.205C7.37798 18.1318 7.18995 18.0941 7.00004 18.0941C6.81013 18.0941 6.62211 18.1318 6.44687 18.205C6.27164 18.2782 6.11268 18.3854 5.97921 18.5205C5.84411 18.654 5.73685 18.813 5.66364 18.9882C5.59043 19.1634 5.55273 19.3515 5.55273 19.5414C5.55273 19.7313 5.59043 19.9193 5.66364 20.0946C5.73685 20.2698 5.84411 20.4287 5.97921 20.5622L12.0896 26.6726C12.6584 27.2414 13.5771 27.2414 14.1459 26.6726L29.6042 11.2289C29.7393 11.0954 29.8466 10.9365 29.9198 10.7612C29.993 10.586 30.0307 10.398 30.0307 10.208C30.0307 10.0181 29.993 9.83012 29.9198 9.65488C29.8466 9.47965 29.7393 9.32069 29.6042 9.18722C29.4707 9.05212 29.3118 8.94485 29.1365 8.87165C28.9613 8.79844 28.7733 8.76074 28.5834 8.76074C28.3935 8.76074 28.2054 8.79844 28.0302 8.87165C27.855 8.94485 27.696 9.05212 27.5625 9.18722L13.125 23.6247Z" fill="#0E5A40"/>
</svg>
