<svg width="1440" height="271" viewBox="0 0 1440 271" fill="none" xmlns="http://www.w3.org/2000/svg">
<path d="M777 270.485C746.5 248.597 719.6 223.322 685.8 204.572C662.9 191.852 638.2 182.684 610.6 179.628C580.5 176.406 552 180.784 524.7 191.439C497.9 201.929 474.5 216.797 450.5 230.756C439.1 237.364 427.3 243.559 415.6 250.001C407.8 245.128 400.6 240.585 393 235.794C403.2 229.517 413.4 223.405 423.4 217.127C444 204.077 463.9 190.283 486.8 179.793C524.5 162.53 564.5 152.618 608.1 155.014C639.4 156.748 667.9 165.916 694.6 179.215C714.9 189.374 731.8 202.92 748.5 216.466C771.6 235.134 794.6 253.883 821.5 268.916C822.1 269.247 822.5 269.907 823.1 270.485C807.7 270.485 792.3 270.485 777 270.485Z" fill="#F2CCDE"/>
<path d="M390 270.486C376.3 270.486 362.7 270.486 349 270.486C344.5 267.264 340.2 263.878 335.6 260.822C306 241.163 276.3 221.753 242.9 206.637C218.5 195.569 192.8 188.383 164.9 186.979C126.1 185.079 90.3996 193.67 57.2996 209.694C40.0996 218.036 24.0996 227.948 7.29961 236.786C-5.90039 243.807 -19.5004 250.497 -34.9004 253.966C-34.9004 246.284 -34.9004 238.52 -34.9004 230.839C-11.7004 222.001 9.29961 210.272 30.1996 198.212C43.0996 190.779 56.5996 183.84 70.6996 178.059C108.1 162.53 147.7 157.574 188.9 164.1C222.9 169.468 254.1 181.032 281.7 197.799C311.7 215.971 340.1 236.042 369 255.37C376.3 260.161 383.1 265.447 390 270.486Z" fill="#F2CCDE"/>
<path d="M-34.9004 202.755C-11.0004 193.009 10.7996 180.454 32.8996 168.147C55.9996 155.261 80.6996 144.854 108 139.402C149.2 131.06 188.8 135.768 227.3 149.479C267 163.686 302.6 183.262 336.8 204.82C370.7 226.13 404.7 247.358 438.6 268.586C439.5 269.164 440.3 269.825 441.1 270.485C426.8 270.485 412.4 270.485 398.1 270.485C393 267.181 387.9 263.878 382.8 260.574C352.6 240.42 323 219.688 292.2 200.36C256.9 178.223 217.9 162.447 173 158.648C147.3 156.5 122.2 158.4 97.5996 165.09C68.2996 173.02 42.5996 186.318 18.0996 201.516C1.69961 211.676 -16.1004 220.018 -34.9004 226.874C-34.9004 218.696 -34.9004 210.767 -34.9004 202.755Z" fill="#F2CCDE"/>
<path d="M729.999 270.486C719.799 263.3 709.699 255.949 699.299 248.928C681.999 237.281 663.899 226.461 643.499 218.779C603.699 203.829 564.399 205.812 526.399 222.496C506.599 231.169 488.099 241.742 468.899 251.323C460.699 255.453 452.299 259.418 443.999 263.548C441.299 264.869 438.999 264.952 436.299 263.217C430.599 259.418 424.699 255.866 418.199 251.819C451.899 233.647 484.199 214.65 518.499 198.378C564.599 176.407 612.599 176.82 660.299 196.313C680.399 204.573 698.699 215.063 715.099 227.617C733.799 241.907 752.399 256.279 771.099 270.568C757.299 270.486 743.699 270.486 729.999 270.486Z" fill="#F2CCDE"/>
<path d="M343 270.485C327.3 270.485 311.7 270.485 296 270.485C288.1 265.447 280.2 260.409 272.3 255.453C248.9 240.75 224.2 227.865 196.5 219.44C177.4 213.658 157.7 210.932 137.3 213.08C113.1 215.64 91.2996 223.405 70.6996 233.812C55.1996 241.576 40.1996 250.001 24.5996 257.6C14.7996 262.391 4.29961 266.19 -5.90039 270.485C-15.5004 270.485 -25.0004 270.485 -34.9004 270.485C-34.9004 266.108 -34.9004 261.647 -34.9004 257.27C-33.8004 257.105 -32.6004 257.187 -31.5004 256.857C-12.3004 251.901 4.49961 243.476 20.4996 233.729C42.1996 220.514 64.5996 208.207 90.2996 200.525C134.5 187.309 178.3 186.153 222.1 201.847C241.4 208.785 259.6 217.458 276.4 227.865C298.9 241.741 320.8 256.279 343 270.485Z" fill="#F2CCDE"/>
<path d="M833 270.485C848.7 258.426 864.2 246.036 880.3 234.39C905 216.632 931.5 200.938 961.9 190.531C1004.9 175.828 1048.2 177.397 1091.3 190.944C1118.4 199.451 1142.3 212.832 1167 224.891C1174.3 228.443 1181.4 232.16 1189 235.959C1180.9 241.907 1173.1 247.688 1165.2 253.222C1164.4 253.801 1161.9 253.305 1160.6 252.727C1145.8 245.623 1131.3 238.107 1116.4 231.169C1095 221.092 1072.9 212.089 1048.6 207.794C1004.6 199.947 964.1 207.463 926.8 227.7C904.9 239.511 886.5 254.627 869.1 270.651C857 270.485 845 270.485 833 270.485Z" fill="#F2CCDE"/>
<path d="M1148.9 270.486C1172 252.81 1194.7 234.886 1220.3 219.688C1246.7 204.077 1274.9 192.018 1307.5 188.053C1346.3 183.345 1383.3 188.218 1419.2 200.608C1448.3 210.685 1475.5 223.57 1500.9 239.099C1500.9 247.111 1500.9 255.04 1500.9 263.052C1496.8 261.235 1492.6 259.583 1488.7 257.601C1462 243.642 1434.5 230.921 1405.5 220.514C1351.4 201.186 1299.4 204.49 1249.4 230.095C1227.6 241.246 1209.5 256.114 1191 270.486C1176.9 270.486 1162.9 270.486 1148.9 270.486Z" fill="#F2CCDE"/>
<path d="M1500.9 87.944C1437.3 63.9906 1375.2 65.0644 1314.4 94.9649C1292.3 105.868 1272.2 118.918 1252.5 132.464C1234.3 144.937 1215.2 156.418 1194.1 165.421C1192.6 166.082 1190.1 166.164 1188.7 165.586C1179.4 161.621 1170.3 157.326 1160.7 152.866C1184.3 143.202 1205.9 131.804 1226.1 118.505C1239.9 109.42 1253.4 100.003 1267.7 91.4958C1298.6 72.9112 1332.4 59.6955 1370.6 54.7397C1416.2 48.7926 1459.6 54.8223 1501 71.4244C1500.9 76.9585 1500.9 82.41 1500.9 87.944Z" fill="#F2CCDE"/>
<path d="M1238.9 270.486C1224.9 270.486 1210.9 270.486 1196.9 270.486C1215.8 255.123 1235.3 240.42 1258.5 229.517C1288.1 215.475 1319.9 209.859 1353.8 212.585C1378.2 214.567 1400.7 221.67 1422.1 230.921C1448.7 242.485 1474.6 255.04 1500.9 267.182C1501.7 269.99 1500.3 270.568 1496.9 270.568C1479.9 270.403 1462.9 270.486 1445.9 270.486C1445.2 269.99 1444.6 269.247 1443.7 268.916C1421.3 259.335 1398.8 249.919 1374.5 243.724C1355.7 238.933 1336.6 236.538 1317 238.603C1293.4 240.998 1272.4 249.01 1253.3 260.574C1248.3 263.63 1243.7 267.182 1238.9 270.486Z" fill="#F2CCDE"/>
<path d="M1500.9 113.549C1489.8 109.998 1478.8 105.95 1467.5 103.06C1412 88.9353 1360.7 95.7083 1314.3 125.196C1290.7 140.229 1267.2 155.344 1243.5 170.294C1237.8 173.929 1232 177.398 1226.1 180.619C1224.7 181.362 1222.1 181.941 1220.8 181.362C1212.1 177.398 1203.6 173.02 1194.4 168.477C1231.1 154.022 1259 130.399 1290.9 111.402C1318.6 94.9649 1348.2 81.9144 1382.2 76.876C1411.8 72.4157 1440.9 74.6458 1469.4 81.997C1480 84.7228 1490.4 88.1093 1500.8 91.248C1500.9 98.6818 1500.9 106.116 1500.9 113.549Z" fill="#F2CCDE"/>
<path d="M874 270.485C895.2 251.488 917.999 234.06 946.199 222.248C989.399 204.077 1033.3 203.664 1077.7 219.109C1106.9 229.269 1133.5 243.311 1160.7 256.774C1154.6 261.482 1148.8 266.025 1143 270.485C1138.7 270.485 1134.3 270.485 1130 270.485C1128.7 269.494 1127.4 268.42 1126 267.594C1110 258.426 1093.2 250.414 1075.2 244.219C1042.9 233.069 1009.9 229.847 975.899 238.272C951.399 244.302 931.2 256.113 913 270.568C900 270.485 887 270.485 874 270.485Z" fill="#F2CCDE"/>
<path d="M447.999 270.485C446.699 269.494 445.399 268.503 444.399 267.595C459.799 259.583 475.299 251.488 490.699 243.393C508.899 233.977 526.999 224.478 547.299 218.366C582.799 207.711 616.899 211.098 649.899 225.222C670.199 233.812 687.999 245.376 705.299 257.435C711.499 261.73 717.699 266.108 723.899 270.485C707.899 270.485 691.899 270.485 675.899 270.485C663.599 261.317 649.499 254.296 634.499 248.597C606.599 237.942 577.999 234.803 548.399 243.724C526.399 250.332 506.599 260.326 486.899 270.485C473.999 270.485 460.999 270.485 447.999 270.485Z" fill="#F2CCDE"/>
<path d="M1500.9 141.633C1444.6 114.871 1388.5 114.376 1333.9 144.193C1313.7 155.179 1295.9 169.138 1276.9 181.693C1270.4 185.988 1264 190.448 1257.4 194.578C1256.2 195.322 1253.9 195.817 1252.6 195.322C1244 192.1 1235.6 188.549 1226.6 184.914C1237.2 178.306 1247 172.194 1256.9 165.999C1281.5 150.719 1305.5 134.777 1330.7 120.157C1366.3 99.6732 1406.1 95.6259 1448.1 102.316C1464.9 104.959 1480.7 109.833 1496.2 115.532C1497.7 116.11 1499.3 116.358 1500.8 116.771C1500.9 125.113 1500.9 133.373 1500.9 141.633Z" fill="#F2CCDE"/>
<path d="M289.1 270.486C272.8 270.486 256.4 270.486 240.1 270.486C234.9 267.099 229.9 263.465 224.4 260.326C204 248.597 181.7 240.833 156.6 239.842C118.5 238.355 87.4996 252.727 58.0996 270.403C40.0996 270.403 22.0996 270.403 4.09961 270.403C5.69961 269.66 7.19961 268.916 8.79961 268.173C22.3996 261.73 36.0996 255.205 49.6996 248.597C64.1996 241.576 78.0996 233.73 93.1996 227.7C124.2 215.145 156.4 212.254 189.9 221.505C227.4 231.83 258.6 250.58 289.1 270.486Z" fill="#F2CCDE"/>
<path d="M-34.9004 68.9462C12.9996 56.9695 60.1996 57.2173 106.9 73.4065C148.1 87.6959 181.7 109.832 209.9 138.081C210.3 138.494 210.6 138.989 211.3 139.898C204 138.328 197.2 136.759 190.4 135.355C187.8 134.777 185.2 134.281 182.6 134.116C173.1 133.373 165.5 130.399 158.3 124.7C136.7 107.602 111.7 94.7167 82.5996 87.8611C45.1996 79.0231 8.29961 81.2533 -28.1004 91.578C-30.3004 92.1562 -32.6004 92.404 -34.8004 92.817C-34.9004 84.8876 -34.9004 76.9582 -34.9004 68.9462Z" fill="#F2CCDE"/>
<path d="M1500.9 168.064C1490.9 164.513 1481 160.383 1470.8 157.409C1421.5 142.955 1375.8 149.149 1334.1 174.755C1324.2 180.867 1314 184.336 1301.8 185.74C1289.3 187.144 1277.1 190.861 1265.8 193.339C1275.5 186.649 1286.2 179.298 1296.9 171.864C1316.1 158.4 1335.7 145.515 1358.7 136.512C1383.4 126.848 1409.5 124.122 1436.5 126.6C1458.7 128.665 1479.1 134.86 1498.3 144.028C1499.1 144.441 1500.1 144.689 1501 145.02C1500.9 152.619 1500.9 160.383 1500.9 168.064Z" fill="#F2CCDE"/>
<path d="M-34.9004 97.0298C-7.20039 88.9352 21.0996 84.0619 50.6996 86.4572C87.7996 89.3481 119.8 101.573 147.9 121.396C152.2 124.452 156.3 127.591 161.5 131.391C158.9 131.391 157.4 131.308 155.9 131.391C144 132.134 132.1 132.96 120.1 133.621C118.4 133.703 116.4 133.621 115.1 132.96C76.8996 113.136 35.7996 109.832 -7.30039 118.092C-16.6004 119.909 -25.7004 122.718 -34.8004 125.113C-34.9004 115.779 -34.9004 106.363 -34.9004 97.0298Z" fill="#F2CCDE"/>
<path d="M1122.9 270.486C1102.2 270.486 1081.6 270.486 1060.9 270.486C1060 269.907 1059.2 269.247 1058.2 268.916C1028.5 258.509 999.1 258.344 970 270.486C953 270.486 936 270.486 919 270.486C921.7 268.421 924.199 266.273 927.099 264.373C953.899 246.284 984.099 235.712 1019.2 236.868C1046.5 237.694 1071.6 245.128 1095.3 256.031C1104.8 260.409 1113.7 265.612 1122.9 270.486Z" fill="#F2CCDE"/>
<path d="M1500.9 197.8C1483.8 188.962 1466 181.28 1445.8 178.307C1425.3 175.333 1405.3 176.572 1386.4 184.254C1381.9 186.071 1377.9 186.484 1372.7 185.658C1362.3 184.006 1351.6 183.51 1341.1 182.767C1336.7 182.437 1332.3 182.684 1326.8 182.684C1350.6 168.725 1374.5 156.831 1403.3 154.023C1436.4 150.802 1466.9 157.74 1496 170.212C1497.6 170.873 1499.3 171.534 1500.9 172.194C1500.9 180.702 1500.9 189.292 1500.9 197.8Z" fill="#F2CCDE"/>
<path d="M1295.9 270.485C1278.9 270.485 1261.9 270.485 1244.9 270.485C1256.2 264.29 1267 257.352 1279 252.066C1299.8 242.98 1322.2 239.759 1345.7 242.319C1368.7 244.797 1390.3 250.909 1411.1 259.004C1419.9 262.473 1428.3 266.603 1436.9 270.403C1414.2 270.403 1391.6 270.403 1368.9 270.403C1356.8 266.19 1344 264.869 1331.1 264.621C1318.9 264.456 1307 265.86 1295.9 270.485Z" fill="#F2CCDE"/>
<path d="M-34.9 129.243C-14.5 121.975 6.7 117.762 28.9 117.432C57.9 117.019 85.5 121.396 111 134.942C107.5 135.603 104.5 136.016 101.6 136.842C91.4 139.816 81.4 143.037 71.2 146.011C69 146.671 66.3 147.002 64.2 146.506C41.4 141.385 18.9 141.137 -3.5 147.91C-5.3 148.406 -7.9 147.993 -9.8 147.25C-18.3 143.863 -26.6 140.229 -35 136.677C-34.9 134.199 -34.9 131.721 -34.9 129.243Z" fill="#F2CCDE"/>
<path d="M540 270.486C525 270.486 510 270.486 495 270.486C508.9 264.126 522.6 257.353 536.9 251.571C558.5 242.816 581.4 239.925 605.3 244.055C628.3 248.019 648.2 257.023 666.8 268.421C667.7 268.917 668.3 269.825 669 270.486C651.3 270.486 633.7 270.486 616 270.486C599.9 264.704 583.2 261.648 565.8 264.043C557 265.2 548.6 268.256 540 270.486Z" fill="#F2CCDE"/>
<path d="M108.1 270.486C93.7996 270.486 79.3996 270.486 65.0996 270.486C73.8996 265.943 82.5996 260.987 91.6996 256.857C109.1 249.01 127.6 243.807 147.6 243.311C168.9 242.816 188.8 247.358 207.3 255.949C216.3 260.161 224.5 265.613 233.1 270.486C215.1 270.486 197.1 270.486 179.1 270.486C173.7 268.916 168.4 266.934 162.8 265.943C144 262.639 125.7 263.63 108.1 270.486Z" fill="#F2CCDE"/>
<path d="M1500.9 234.142C1499.2 233.316 1497.4 232.656 1495.8 231.747C1466.2 214.98 1434.9 200.938 1400.8 191.522C1396 190.2 1391.1 189.374 1385.1 188.053C1396.3 183.51 1407.1 181.362 1418.4 180.536C1444.5 178.637 1467.8 185.492 1489.9 196.312C1493.6 198.13 1497.2 200.029 1500.9 201.929C1500.9 212.667 1500.9 223.405 1500.9 234.142Z" fill="#F2CCDE"/>
<path d="M-34.9004 4.52051C-26.5004 7.08104 -18.0004 9.31119 -9.90039 12.3673C18.2996 23.1876 40.4996 40.6158 63.7996 58.9526C58.7996 58.6222 55.1996 58.2092 51.4996 58.044C41.4996 57.7136 31.5996 57.5484 21.5996 57.1354C19.4996 57.0528 16.9996 56.4746 15.2996 55.4008C1.19961 46.7281 -13.4004 38.7161 -29.7004 32.9342C-31.3004 32.356 -33.1004 32.1082 -34.9004 31.7778C-34.9004 22.6921 -34.9004 13.6063 -34.9004 4.52051Z" fill="#F2CCDE"/>
<path d="M-34.9004 140.807C-28.3004 143.367 -21.4004 145.432 -15.3004 148.653C-2.70039 155.261 9.39961 162.53 22.7996 170.212C13.3996 175.25 5.49961 179.628 -2.70039 183.84C-3.60039 184.253 -5.70039 183.592 -6.80039 183.014C-16.2004 177.893 -25.5004 172.607 -34.9004 167.403C-34.9004 158.4 -34.9004 149.645 -34.9004 140.807Z" fill="#F2CCDE"/>
<path d="M-34.9004 35.082C-26.3004 38.4685 -17.4004 41.5247 -9.20039 45.4068C-2.10039 48.7933 4.29961 53.2536 11.8996 57.6313C3.49961 58.6224 -4.30039 58.8702 -11.5004 60.6874C-20.1004 62.7523 -27.3004 60.4396 -34.9004 58.2095C-34.9004 50.5278 -34.9004 42.7636 -34.9004 35.082Z" fill="#F2CCDE"/>
<path d="M982 270.486C989.6 268.669 996.999 266.191 1004.8 265.282C1020.3 263.465 1035.5 265.2 1050 270.486C1027.3 270.486 1004.6 270.486 982 270.486Z" fill="#F2CCDE"/>
<path d="M551 270.486C568 265.2 585 265.365 602 270.486C585 270.486 568 270.486 551 270.486Z" fill="#F2CCDE"/>
<path d="M120.1 270.485C135.4 266.273 150.8 266.19 166.1 270.485C150.7 270.485 135.4 270.485 120.1 270.485Z" fill="#F2CCDE"/>
<path d="M1308.9 270.486C1323.2 266.769 1337.6 267.347 1351.9 270.486C1337.6 270.486 1323.3 270.486 1308.9 270.486Z" fill="#F2CCDE"/>
<path d="M801.299 252.315C793.899 247.111 786.499 241.907 779.899 237.282C803.099 220.019 825.899 202.838 848.999 185.823C882.099 161.539 919.099 142.872 961.899 132.548C1010 120.984 1057.5 123.214 1104.5 136.43C1140 146.424 1172.4 161.539 1204.4 177.316C1219.8 184.915 1235.5 192.101 1251 199.369C1242.4 203.912 1233.3 208.785 1224 213.411C1222.9 213.907 1220.6 213.328 1219.2 212.668C1197.6 202.095 1176.2 191.275 1154.6 180.702C1131 169.056 1106.7 158.649 1079.8 153.114C1034.7 143.863 991.099 148.489 948.399 162.448C915.999 173.021 888.399 189.54 862.399 208.207C843.299 221.919 824.399 235.795 805.399 249.589C804.299 250.58 802.899 251.323 801.299 252.315Z" fill="#F2CCDE"/>
<path d="M804.399 254.379C830.599 235.629 855.799 216.962 881.899 199.286C915.299 176.654 952.999 160.961 995.999 154.601C1040.5 147.993 1083.1 153.362 1122.9 170.377C1150.3 182.106 1176.3 196.065 1203 209.033C1208.1 211.511 1213.3 213.989 1218.4 216.384C1210.3 221.753 1202.2 227.287 1193.9 232.49C1192.9 233.069 1190.2 232.408 1188.8 231.747C1167.3 221.257 1146.2 210.354 1124.5 200.112C1096.5 186.814 1066.6 177.811 1034 176.654C999.799 175.415 967.699 182.188 937.999 196.395C903.499 212.915 872.999 233.647 845.099 257.187C840.699 260.904 835.799 264.291 830.899 267.512C829.899 268.173 827.299 268.338 826.299 267.76C818.999 263.547 812.099 259.087 804.399 254.379Z" fill="#F2CCDE"/>
<path d="M516.3 163.439C508.3 155.922 499.5 147.993 491.1 139.898C476.8 126.187 461.9 113.054 443.6 102.977C408.8 83.8971 363.9 81.6669 326.9 102.895C316.4 108.924 305.7 114.789 294.5 119.827C280.4 126.105 264.7 128.665 248.3 129.822C272.4 108.429 297.8 88.6052 330.1 76.711C385 56.5571 436.5 63.8258 484.2 92.8176C501.8 103.473 515.3 117.597 530 130.648C538.8 138.494 548.5 145.68 558 153.279C543.9 156.666 530.8 159.887 516.3 163.439Z" fill="#F2CCDE"/>
<path d="M545.3 140.146C568.1 128.582 591.4 119.166 616.4 112.476C647 104.216 676.8 105.785 706.7 114.789C725.8 120.488 743.1 128.748 760.3 137.42C783.9 149.48 807.7 161.291 834 169.221C841.8 171.533 849.7 173.516 857.5 175.581C851.4 179.958 845.3 184.171 839.5 188.631C836.6 190.861 834.1 191.109 830.3 190.283C797.2 183.345 768.5 169.138 740.1 154.188C722.2 144.772 703.5 136.677 682.5 133.29C650.6 128.087 620.2 132.547 592 145.68C583.8 149.48 575.6 152.04 566.3 152.453C565.1 152.536 563.5 152.618 562.6 152.04C556.6 148.241 551 144.193 545.3 140.146Z" fill="#F2CCDE"/>
<path d="M887.8 156.749C880 161.457 871.5 166.826 862.7 171.864C861.4 172.608 858.6 172.029 856.7 171.616C828.8 165.587 803.3 155.179 778.8 142.707C759 132.63 739.4 122.223 717.9 114.706C696 107.107 673.6 102.151 649.6 103.39C630.2 104.382 611.9 108.925 594.5 115.367C578.3 121.397 562.7 128.418 546.9 135.191C543.3 136.76 541.1 136.76 538.5 134.034C535.3 130.73 531.6 127.757 528 124.536C563.9 103.39 602.7 88.688 646.6 84.8885C675 82.4106 702.2 87.1187 728.2 96.5348C751.7 105.125 773.3 116.524 795 127.674C815.2 138.082 836.2 147.415 859.3 152.619C868.8 154.932 878.8 155.51 887.8 156.749Z" fill="#F2CCDE"/>
<path d="M733 94.4692C749.8 86.0442 767 85.5486 784.2 91.9912C792.3 95.0474 799.7 99.3425 807.2 103.39C821 110.989 833.9 119.992 848.4 126.517C872.2 137.09 900.1 133.786 918.1 119.909C927.4 112.723 932.8 103.885 933 93.3954C933.1 86.705 932.3 79.9319 931.5 73.2415C930.8 67.5422 933.4 63.4949 939.5 62.0082C944.8 60.7692 950.6 62.9168 952.8 67.79C961.3 86.5398 961.6 115.945 939.1 134.447C937.6 135.686 935.6 136.512 933.7 137.255C921.8 142.211 910.2 147.58 897.9 151.627C892.6 153.362 885.9 153.196 880 152.618C857.5 150.636 836.9 143.615 817.3 134.529C799.5 126.269 782.3 117.018 764.7 108.428C754.4 103.555 743.9 99.2599 733 94.4692Z" fill="#F2CCDE"/>
<path d="M358.899 64.7344C392.899 43.259 428.699 26.9872 470.499 21.4531C510.599 16.0842 548.299 22.3617 583.899 37.8901C611.599 49.9494 637.199 64.8996 662.499 80.841C655.699 81.254 649.199 81.0062 643.099 82.1626C634.399 83.8971 627.899 81.254 620.999 77.4545C601.399 66.5516 581.399 56.0616 558.999 49.4538C526.299 39.8724 492.799 36.3207 458.499 43.1764C441.999 46.4803 427.199 53.0881 412.899 60.4393C410.699 61.5957 407.699 62.1739 405.099 62.0913C389.999 62.0087 374.899 61.4305 358.899 64.7344Z" fill="#F2CCDE"/>
<path d="M1260.7 59.5309C1251.2 61.5959 1241.8 63.7434 1232.3 65.5606C1230.6 65.891 1228.4 65.3128 1226.7 64.8172C1201.4 56.7226 1175.4 51.6841 1148 52.1797C1117.4 52.7579 1089.7 60.6873 1063.9 73.903C1040.4 85.9623 1019.5 100.582 1000.4 116.937C995.1 121.479 989.4 124.123 981.7 125.196C970.2 126.766 958.9 129.739 946.6 132.382C953.4 127.344 959.6 122.718 965.9 118.175C985.5 103.886 1004.4 88.9358 1024.9 75.555C1053.5 56.8052 1085.7 43.6721 1121.7 37.4773C1154.9 31.778 1187.2 34.8342 1218.8 44.0851C1233.1 48.2976 1247 53.5839 1261.1 58.3746C1261 58.7876 1260.8 59.118 1260.7 59.5309Z" fill="#F2CCDE"/>
<path d="M832.3 194C824.9 199.699 818.5 204.82 811.9 209.611C810.5 210.602 807.6 210.932 805.7 210.519C784.3 205.729 764.8 197.717 746.7 187.062C733.7 179.463 721 171.285 705.9 166.577C691.6 162.034 676.9 159.556 661.5 160.961C660.2 161.043 658.8 160.961 657.6 160.63C635.9 154.188 613.6 150.305 588.8 150.884C601.7 144.524 614 140.311 627 137.668C660.9 130.812 692.6 136.016 722.6 149.892C734.2 155.261 745.6 160.961 756.8 166.908C780 178.884 804.4 188.631 832.3 194Z" fill="#F2CCDE"/>
<path d="M1313.7 64.0733C1299.9 70.9289 1285.7 78.0324 1271.4 85.0532C1270.2 85.6314 1268.7 86.2096 1267.3 86.2096C1245.2 86.2096 1225 92.074 1206.2 100.829C1181 112.558 1156.5 125.196 1131.8 137.668C1128.5 139.32 1125.9 139.733 1122.2 138.411C1114.1 135.603 1105.8 133.208 1097.8 130.812C1127.1 115.614 1156.1 99.5904 1186.3 85.301C1213.2 72.4983 1242.7 64.4863 1273.9 61.9258C1287.5 60.7694 1301.1 61.5128 1313.7 64.0733Z" fill="#F2CCDE"/>
<path d="M416.699 62.7523C430.699 54.9055 446.799 48.7932 464.699 46.0675C510.899 38.8815 553.499 47.0587 593.199 66.9648C604.199 72.4988 615.099 78.2807 626.199 84.0625C616.499 86.3753 607.399 88.6054 598.299 90.5878C596.699 90.9182 594.499 90.34 592.899 89.5966C574.699 80.9238 555.699 73.9856 534.899 70.2687C509.899 65.891 485.399 66.717 461.299 74.2334C459.599 74.729 457.399 74.8942 455.699 74.3986C442.499 70.5991 429.399 66.5518 416.699 62.7523Z" fill="#F2CCDE"/>
<path d="M1223.1 67.7079C1213.4 71.2597 1203.7 74.8114 1194 78.2805C1193 78.6109 1191.8 78.6109 1190.6 78.5283C1176.2 77.5371 1161.8 75.7199 1147.4 75.6373C1117.6 75.3895 1090.4 82.9886 1066.3 97.3606C1054.8 104.299 1044.1 112.228 1033.1 119.745C1032 120.488 1030.7 121.562 1029.5 121.562C1019.6 121.727 1009.7 121.644 999.7 121.644C1006.4 116.441 1013.4 110.824 1020.6 105.455C1039.5 91.2484 1059.8 78.6109 1082.7 69.0295C1114.1 55.8964 1147.4 52.9229 1181.7 58.044C1195.8 60.1915 1209.6 63.7432 1223.5 66.6342C1223.3 66.9646 1223.2 67.2949 1223.1 67.7079Z" fill="#F2CCDE"/>
<path d="M1422.3 49.1229C1411.8 49.1229 1401.9 48.6273 1392.1 49.2881C1385.2 49.7836 1379.5 48.5447 1373.3 46.0667C1342.2 33.677 1309.3 27.5648 1274.8 29.2994C1256.4 30.2079 1238.3 33.5118 1220.9 38.7981C1218.6 39.4589 1215.7 39.4589 1213.3 38.9633C1201.2 36.6506 1189.2 34.09 1176.7 31.5295C1216.1 14.8447 1257.9 7.65869 1302.1 12.2016C1345.4 16.6619 1386 27.8126 1422.3 49.1229Z" fill="#F2CCDE"/>
<path d="M445.1 107.438C453 112.972 460.8 118.506 468.9 124.122C458.6 137.668 447.5 150.058 434.3 161.209C411.2 180.784 385 196.726 354.7 207.959C351.7 209.116 349.6 209.281 346.8 207.298C339.9 202.59 332.6 198.213 324.8 193.339C378 177.15 416.3 147.25 445.1 107.438Z" fill="#F2CCDE"/>
<path d="M413.199 94.882C398.599 114.788 380.499 131.638 358.399 145.515C339.199 157.574 318.199 166.907 295.299 173.02C293.299 173.598 290.299 173.35 288.499 172.524C278.099 167.733 267.899 162.612 257.699 157.574C265.699 156.004 274.099 154.848 282.199 152.783C320.199 143.037 350.699 124.204 375.799 99.0119C376.399 98.3511 377.199 97.7729 377.599 97.0295C380.899 91.2477 386.799 90.2565 393.699 91.2477C397.899 91.9084 402.199 92.404 406.399 93.1474C408.499 93.643 410.699 94.3038 413.199 94.882Z" fill="#F2CCDE"/>
<path d="M441.5 105.703C430.5 121.727 417.6 135.934 402 148.571C379.6 166.743 354.1 180.867 324.7 189.953C321.9 190.779 320 190.779 317.5 189.292C310.6 184.997 303.5 180.95 297.3 177.315C311.4 171.616 326.1 166.33 340.1 159.722C371.4 144.937 395.8 124.122 415 99.0951C417.2 96.2868 418.9 95.9564 422.1 97.278C426.1 98.9299 430.2 100.334 434.2 102.069C436.5 102.977 438.7 104.216 441.5 105.703Z" fill="#F2CCDE"/>
<path d="M471.599 126.518C478.299 132.63 484.799 138.494 491.899 144.937C483.199 153.61 475.099 162.282 466.199 170.46C441.799 192.679 412.199 209.446 380.699 224.231C377.699 225.635 375.499 225.47 372.899 223.653C366.899 219.688 360.699 216.054 353.699 211.759C404.099 193.67 442.599 165.008 471.599 126.518Z" fill="#F2CCDE"/>
<path d="M378.099 91.3311C349.499 121.562 315.299 143.12 270.499 151.793C264.399 152.949 258.099 153.61 251.799 154.271C250.399 154.436 248.799 154.023 247.499 153.527C239.299 150.471 231.099 147.415 223.099 144.111C220.799 143.203 218.799 141.551 216.999 139.981C213.699 137.09 210.699 134.034 207.399 130.895C215.599 131.474 223.599 132.3 231.599 132.713C265.199 134.447 295.299 126.931 321.799 109.503C336.799 99.6735 354.099 93.7264 373.099 91.6614C374.499 91.4137 375.799 91.4137 378.099 91.3311Z" fill="#F2CCDE"/>
<path d="M1490.3 62.6692C1475.2 59.2001 1459.6 54.905 1443.6 52.3445C1433.6 50.6925 1425.5 47.3886 1417.4 42.5979C1396.9 30.5386 1373.7 23.0222 1349.8 16.9099C1340.7 14.5972 1331.4 12.78 1322 10.7151C1337.6 -0.518225 1355.7 -2.58317 1374.3 2.95089C1409.7 13.4408 1443.1 27.2347 1471.3 48.2972C1477.9 53.253 1484.5 58.2089 1490.3 62.6692Z" fill="#F2CCDE"/>
<path d="M1224.4 41.1935C1275.4 26.9041 1325.4 30.4558 1373.1 49.7011C1357.3 53.5006 1341 57.4653 1324.6 61.2648C1322.4 61.7604 1319.7 61.843 1317.5 61.3475C1303.6 58.5391 1289.7 57.4653 1275.5 58.7043C1270.7 59.1173 1266.7 58.3739 1262.3 56.3916C1249.8 51.0227 1237 46.1494 1224.4 41.1935Z" fill="#F2CCDE"/>
<path d="M1037 121.644C1078.6 86.7052 1127.5 72.0854 1185.9 81.3364C1178.1 85.1359 1170.2 88.605 1162.6 92.7349C1152.9 98.0212 1143.7 102.316 1130.8 101.986C1110.8 101.49 1092.9 108.841 1076.6 117.762C1068.1 122.47 1060.1 125.196 1049.9 122.801C1046.1 121.809 1041.8 121.975 1037 121.644Z" fill="#F2CCDE"/>
<path d="M462.899 77.0415C508.699 64.6518 550.099 72.829 590.399 92.3221C579.199 96.6998 568.899 100.83 558.299 104.629C556.699 105.207 554.099 104.464 552.199 103.886C538.899 99.6734 525.399 95.6261 511.199 96.2042C499.499 96.6998 490.699 93.8089 482.299 87.6967C476.599 83.6494 469.699 80.7584 462.899 77.0415Z" fill="#F2CCDE"/>
<path d="M1131.5 141.302C1164.3 125.939 1193.5 106.363 1228.8 95.708C1239.7 92.404 1250.9 90.3391 1262.9 89.5957C1231.3 111.071 1200.5 132.629 1164.2 147.992C1158.7 150.305 1154.1 150.883 1148.6 148.075C1143.5 145.432 1137.7 143.697 1131.5 141.302Z" fill="#F2CCDE"/>
<path d="M806.2 214.484C795.9 221.34 786.3 227.865 776.4 234.473C764.7 225.222 753.5 216.219 742.2 207.381C723.7 192.844 704.7 178.885 681.6 169.386C676.9 167.404 672.1 165.669 666.6 163.521C691.1 163.687 712.1 170.295 730.8 181.776C748.4 192.513 766.3 202.59 786.9 209.116C792.9 210.933 799 212.502 806.2 214.484Z" fill="#F2CCDE"/>
<path d="M493.499 147.415C500.099 153.362 506.299 159.061 512.899 165.091C509.199 166.578 505.599 167.982 501.999 169.386C476.799 179.38 454.199 192.679 432.499 207.051C419.899 215.393 406.799 223.157 394.099 231.417C390.799 233.565 388.499 233.73 385.599 231.417C384.199 230.261 382.599 229.352 380.699 228.113C425.199 207.546 464.899 182.932 493.499 147.415Z" fill="#F2CCDE"/>
<path d="M24.6992 168.23C15.9992 162.696 7.39922 157.162 -1.80078 151.38C19.4992 144.937 40.4992 144.359 61.7992 149.728C49.3992 155.84 37.0992 161.952 24.6992 168.23Z" fill="#F2CCDE"/>
<path d="M1139.7 106.116C1124.3 113.55 1108.9 120.984 1093.4 128.335C1092.3 128.83 1090.8 129.078 1089.6 128.913C1083.5 127.757 1077.4 126.353 1070.5 124.948C1091.6 113.302 1113.1 104.299 1138.7 104.712C1139 105.125 1139.3 105.62 1139.7 106.116Z" fill="#F2CCDE"/>
<path d="M525.4 121.809C516.9 114.21 508.9 107.107 500.5 99.6732C518.7 98.1864 535.3 101.821 551.9 107.355C543 112.311 534.3 117.019 525.4 121.809Z" fill="#F2CCDE"/>
</svg>
