<svg width="30" height="29" viewBox="0 0 30 29" fill="none" xmlns="http://www.w3.org/2000/svg">
<circle cx="14.8273" cy="14.5" r="14.5" fill="#E8C346"/>
<path fill-rule="evenodd" clip-rule="evenodd" d="M8.50846 14.5395C8.50856 13.3788 8.84369 12.2427 9.47363 11.2677C10.1036 10.2926 11.0015 9.51997 12.0598 9.04247C13.1181 8.56497 14.2917 8.40289 15.4399 8.57567C16.588 8.74845 17.6619 9.24876 18.5327 10.0166C19.4034 10.7844 20.0341 11.7871 20.349 12.9043C20.6639 14.0215 20.6496 15.2059 20.3079 16.3152C19.9662 17.4246 19.3116 18.4118 18.4226 19.1584C17.5335 19.905 16.4479 20.3793 15.296 20.5244V16.0475H16.8043C17.0043 16.0475 17.1961 15.968 17.3376 15.8266C17.479 15.6852 17.5585 15.4935 17.5585 15.2935C17.5585 15.0935 17.479 14.9018 17.3376 14.7604C17.1961 14.619 17.0043 14.5395 16.8043 14.5395H15.296V13.0316C15.296 12.8317 15.3754 12.6399 15.5168 12.4985C15.6583 12.3571 15.8501 12.2777 16.0501 12.2777H16.4272C16.6272 12.2777 16.819 12.1982 16.9605 12.0569C17.1019 11.9155 17.1814 11.7237 17.1814 11.5237C17.1814 11.3238 17.1019 11.132 16.9605 10.9906C16.819 10.8492 16.6272 10.7698 16.4272 10.7698H16.0501C15.4501 10.7698 14.8746 11.0081 14.4503 11.4323C14.026 11.8564 13.7876 12.4318 13.7876 13.0316V14.5395H12.2793C12.0793 14.5395 11.8874 14.619 11.746 14.7604C11.6046 14.9018 11.5251 15.0935 11.5251 15.2935C11.5251 15.4935 11.6046 15.6852 11.746 15.8266C11.8874 15.968 12.0793 16.0475 12.2793 16.0475H13.7876V20.5244C12.3295 20.3408 10.9886 19.6314 10.0166 18.5294C9.04459 17.4275 8.50832 16.0088 8.50846 14.5395ZM14.5418 22.0791C18.7071 22.0791 22.0835 18.7036 22.0835 14.5395C22.0835 10.3755 18.7071 7 14.5418 7C10.3765 7 7.00012 10.3755 7.00012 14.5395C7.00012 18.7036 10.3765 22.0791 14.5418 22.0791Z" fill="#046E4B"/>
</svg>
