<svg width="1440" height="798" viewBox="0 0 1440 798" fill="none" xmlns="http://www.w3.org/2000/svg">
<g opacity="0.79">
<path d="M1239.12 138.247C1232.67 139.392 1227.32 142.745 1222.3 146.698C1221.83 147.078 1220.67 147.227 1220.15 146.918C1192.36 131.067 1146.19 131.245 1111.63 160.334C1075.6 190.69 1065.45 244.301 1088.54 285.427C1091.04 289.907 1094.27 294.009 1097.28 298.195C1097.95 299.122 1098.13 299.707 1097.58 300.788C1094.76 306.416 1092.51 312.286 1092.85 319.219C1090.28 316.859 1087.98 314.832 1085.78 312.766C1057.3 286.156 1039.33 231.114 1064.65 180.984C1081.9 146.792 1109.21 124.75 1147.04 116.922C1172.6 111.587 1197.55 114.429 1221.1 126.342C1227.44 129.582 1233.23 133.845 1239.27 137.659C1239.23 137.844 1239.16 138.062 1239.12 138.247Z" fill="#016845"/>
<path d="M1216.37 152.252C1213.03 156.364 1209.78 160.438 1206.42 164.371C1206.07 164.799 1204.91 164.888 1204.31 164.678C1192.6 160.902 1180.57 159.813 1168.5 161.804C1145.55 165.604 1127.01 176.703 1114.3 196.405C1100.45 217.852 1097.19 240.867 1105.73 265.207C1106.63 267.739 1107.82 270.181 1109.03 272.53C1110.21 274.852 1111.62 277.03 1112.93 279.188C1109.11 283.892 1105.32 288.564 1101.36 293.433C1090.99 280.532 1085.21 265.802 1083.09 249.612C1079.79 224.554 1085.58 201.58 1100.5 181.381C1133.52 136.736 1187.97 136.071 1216.37 152.252Z" fill="#016845"/>
<path d="M1117.8 275.28C1112.84 268.308 1109.78 260.418 1108.38 251.966C1105.14 232.692 1109.13 214.911 1120.1 198.766C1131.96 181.323 1148.66 171.407 1169.23 167.852C1180.55 165.907 1191.74 167.082 1202.73 170.601C1200.62 177.453 1198.49 184.246 1196.38 191.098C1175.37 187.249 1157.07 192.534 1143.25 209.483C1129.4 226.405 1127.75 245.366 1136.01 265.391C1129.95 268.665 1123.99 271.901 1117.8 275.28Z" fill="#016845"/>
<path d="M1131.87 307.227C1125.84 314.51 1119.17 321.046 1110.27 324.793C1109.43 325.15 1108.56 325.481 1107.69 325.752C1102.62 327.206 1098.67 324.383 1098.54 319.148C1098.41 313.854 1100.26 309.02 1102.64 304.402C1108.67 292.654 1116.69 282.572 1128.02 275.559C1130.6 273.938 1133.66 272.931 1136.63 272.234C1140.85 271.289 1143.88 273.421 1144.21 277.731C1144.45 280.601 1144.2 283.673 1143.41 286.469C1141.18 294.268 1137.01 301.03 1131.87 307.227Z" fill="#016845"/>
<path d="M1215.74 161.516C1221.48 155.197 1227.54 149.419 1235.12 145.534C1237.1 144.518 1239.31 143.748 1241.49 143.495C1245.75 143.027 1248.81 145.458 1248.87 149.765C1248.92 153.078 1248.38 156.572 1247.29 159.67C1244.14 168.739 1238.55 176.37 1232 183.285C1227.55 187.964 1222.67 192.083 1216.75 194.862C1214.79 195.786 1212.68 196.636 1210.57 196.943C1205.63 197.63 1202.73 194.942 1202.72 189.966C1202.65 185.328 1204.13 181.014 1206.31 177.051C1209.25 171.743 1212.58 166.696 1215.74 161.516Z" fill="#016845"/>
</g>
<g opacity="0.79">
<path d="M1044.33 860.433C1041.16 854.689 1036.27 850.705 1030.91 847.231C1030.4 846.906 1029.88 845.855 1030.01 845.268C1036.06 813.849 1021.02 770.198 982.341 746.85C941.996 722.522 887.976 730.193 856.482 765.302C853.044 769.105 850.204 773.491 847.209 777.684C846.548 778.617 846.053 778.978 844.851 778.806C838.616 777.951 832.334 777.714 825.88 780.266C827.286 777.072 828.465 774.246 829.709 771.49C845.727 735.963 892.042 701.212 947.658 709.033C985.585 714.349 1015.25 733.1 1034.85 766.385C1048.14 788.869 1053.48 813.402 1049.79 839.532C1048.77 846.582 1046.6 853.435 1044.93 860.385C1044.75 860.406 1044.52 860.412 1044.33 860.433Z" fill="#016845"/>
<path d="M1023.74 843.405C1018.77 841.569 1013.87 839.802 1009.06 837.891C1008.54 837.7 1008.08 836.624 1008.09 835.992C1007.89 823.69 1005.05 811.949 999.274 801.164C988.282 780.661 971.803 766.691 949.057 761.005C924.289 754.798 901.453 759.134 881.16 775.054C879.053 776.721 877.126 778.636 875.293 780.541C873.474 782.406 871.865 784.438 870.245 786.376C864.561 784.276 858.916 782.191 853.033 780.017C861.903 766.037 873.988 755.826 888.63 748.599C911.29 737.403 934.904 735.483 958.834 743.102C1011.74 759.975 1029.91 811.305 1023.74 843.405Z" fill="#016845"/>
<path d="M875.513 789.726C880.516 782.787 886.999 777.347 894.549 773.297C911.753 764.026 929.87 762.068 948.69 767.255C969.025 772.866 983.791 785.478 993.782 803.8C999.271 813.89 1001.77 824.868 1001.98 836.405C994.807 836.61 987.693 836.79 980.524 836.995C977.398 815.865 966.5 800.242 946.003 792.624C925.521 784.966 907.038 789.506 890.742 803.778C885.692 799.104 880.707 794.499 875.513 789.726Z" fill="#016845"/>
<path d="M849.802 813.338C840.967 809.983 832.63 805.77 826.216 798.554C825.608 797.876 825.014 797.158 824.476 796.416C821.466 792.088 822.867 787.442 827.781 785.634C832.75 783.801 837.921 783.99 843.059 784.756C856.126 786.685 868.254 791.03 878.544 799.497C880.908 801.413 882.848 803.987 884.466 806.577C886.719 810.263 885.676 813.819 881.704 815.522C879.064 816.675 876.075 817.428 873.173 817.579C865.073 817.983 857.326 816.208 849.802 813.338Z" fill="#016845"/>
</g>
<g opacity="0.79">
<path d="M365.781 594.956C370.705 596.081 375.506 595.308 380.25 594.009C380.7 593.881 381.568 594.123 381.841 594.497C396.802 614.084 429.61 627.813 462.86 617.548C497.53 606.825 520.814 571.835 516.776 535.729C516.352 531.803 515.286 527.922 514.411 524.05C514.213 523.192 514.26 522.722 514.975 522.12C518.662 518.973 522.019 515.483 523.861 510.464C524.977 512.91 525.997 515.036 526.943 517.165C539.157 544.587 535.391 589.03 502.383 616.995C479.883 636.075 453.894 643.517 424.711 637.72C404.972 633.832 388.127 624.33 374.996 608.812C371.468 604.609 368.64 599.848 365.498 595.328C365.583 595.209 365.696 595.075 365.781 594.956Z" fill="#016845"/>
<path d="M386.125 591.849C389.728 589.933 393.258 588.02 396.82 586.237C397.195 586.037 398.05 586.324 398.409 586.652C405.584 592.846 413.793 597.229 422.953 599.438C440.376 603.63 456.856 601.318 471.786 591.156C488.052 580.098 497.266 564.747 498.517 544.918C498.639 542.852 498.526 540.762 498.371 538.732C498.231 536.73 497.887 534.763 497.603 532.838C501.725 530.647 505.818 528.471 510.083 526.203C513.574 538.47 513.248 550.652 509.897 562.776C504.717 581.542 493.715 596.103 477.066 605.955C440.244 627.719 401.418 611.851 386.125 591.849Z" fill="#016845"/>
<path d="M492.977 534.149C494.401 540.583 494.206 547.099 492.663 553.516C489.173 568.16 481.011 579.579 468.381 587.74C454.73 596.555 439.909 598.578 424.253 594.929C415.638 592.912 408.048 588.718 401.308 582.924C404.865 578.698 408.409 574.516 411.966 570.289C425.716 579.325 440.285 581.068 455.173 573.19C470.076 565.34 476.942 552.386 477.091 535.701C482.367 535.194 487.57 534.689 492.977 534.149Z" fill="#016845"/>
<path d="M492.583 507.263C499.041 503.903 505.737 501.27 513.175 501.282C513.876 501.28 514.593 501.306 515.296 501.377C519.326 501.866 521.28 505.053 519.8 508.805C518.306 512.602 515.546 515.477 512.472 518.039C504.664 524.562 495.948 529.307 485.805 530.882C483.492 531.26 481.017 531.056 478.699 530.658C475.425 530.063 473.915 527.641 474.973 524.484C475.663 522.375 476.762 520.271 478.163 518.525C482.084 513.661 487.076 510.117 492.583 507.263Z" fill="#016845"/>
<path d="M389.349 585.465C383.387 588.227 377.353 590.508 370.805 590.987C369.099 591.116 367.299 590.998 365.68 590.524C362.514 589.576 361.071 586.933 362.321 583.859C363.282 581.495 364.712 579.178 366.416 577.308C371.372 571.819 377.631 568.083 384.348 565.142C388.914 563.16 393.61 561.701 398.645 561.507C400.309 561.438 402.063 561.469 403.652 561.884C407.36 562.878 408.616 565.658 407.13 569.191C405.785 572.501 403.442 575.118 400.707 577.276C397.028 580.159 393.15 582.739 389.349 585.465Z" fill="#016845"/>
</g>
<g opacity="0.79">
<path d="M419.248 69.3008C424.504 71.7068 429.73 74.1248 434.974 76.5005C436.995 77.4179 439.12 78.1535 441.153 79.1013C442.1 79.5327 442.654 79.418 443.41 78.6607C449.373 72.7418 455.682 67.2476 462.766 62.6395C481.435 50.4742 501.406 47.6968 522.703 54.0162C524.379 54.5089 526.055 55.0015 527.694 55.5791C529.758 56.3389 530.252 57.9341 528.951 59.7157C519.354 72.9806 506.936 82.344 491.05 86.9745C484.102 88.9996 477.102 90.2728 470.196 90.4545C472.442 91.4935 474.875 92.7387 477.394 93.8446C479.531 94.7864 481.79 95.5039 483.896 96.4578C484.916 96.8954 485.53 96.7564 486.286 95.9991C494.036 88.6326 502.837 82.8496 512.963 79.2448C524.544 75.1318 536.355 74.7907 548.211 77.6635C552.11 78.6069 555.984 79.8413 559.761 81.1848C562.754 82.2426 562.914 83.6192 561.015 86.2007C555.863 93.2724 549.395 98.8998 541.681 102.986C538.63 104.62 535.386 105.945 532.251 107.368C532.44 107.398 532.774 107.441 533.096 107.453C541.465 107.673 549.643 108.917 556.996 113.229C564.665 117.802 570.467 124.241 575.483 131.449C576.397 132.772 577.243 134.192 577.938 135.672C578.596 137.061 578.228 138.085 576.78 138.521C564.179 142.372 551.475 144.192 538.793 139.329C534.671 137.737 530.892 135.235 526.941 133.188C527.086 133.552 527.273 134.11 527.52 134.644C531.463 143.052 532.747 151.955 532.432 161.177C532.371 163.063 531.14 164.044 529.221 163.649C514.611 160.852 502.439 154.171 493.982 141.587C487.018 131.254 483.189 119.851 481.849 107.528C481.789 107.025 481.488 106.267 481.106 106.103C476.395 104.182 471.635 102.317 466.741 100.645C467.614 101.597 468.504 102.508 469.346 103.473C476.038 111.174 481.646 119.516 485.068 129.185C488.267 138.205 489.349 147.574 488.699 157.106C488.615 158.403 488.575 159.719 488.461 161.029C488.297 162.921 487.243 163.726 485.458 163.136C471.583 158.643 459.534 151.561 451.38 139.032C442.888 126.006 439.269 111.498 438.68 96.1018C438.608 93.8824 438.566 91.651 438.391 89.4375C438.344 88.9645 437.975 88.3032 437.581 88.1088C430.03 84.8943 422.429 81.7343 414.86 78.5622C414.817 78.544 414.781 78.6289 414.64 78.7197C417.142 81.5537 419.704 84.3635 422.096 87.2763C432.746 100.147 440.092 114.543 441.922 131.378C442.707 138.758 442.076 146.034 440.29 153.242C439.724 155.54 438.841 156.066 436.625 155.191C422.037 149.436 409.835 140.729 402.197 126.661C397.356 117.767 394.561 108.165 393.432 98.1471C392.527 90.1118 392.024 82.0223 391.533 73.9631C391.24 68.8814 391.361 68.833 386.663 66.7671C381.443 64.4521 376.174 62.1917 370.936 59.9191C369.024 59.0988 368.117 57.5275 367.947 55.593C367.771 53.5554 368.858 52.0344 370.575 51.0354C371.86 50.2786 373.216 50.2313 374.642 50.8935C381.076 53.7796 387.553 56.6839 393.98 59.6427C394.927 60.0741 395.462 60.0018 396.218 59.2446C406.456 49.097 417.748 40.3571 430.473 33.5408C449.55 23.286 469.082 22.6851 488.894 31.2103C490.679 31.976 491.215 33.5894 490.134 35.0377C484.317 42.8304 478.008 50.1861 470.021 55.891C463.112 60.851 455.334 63.979 447.194 66.197C438.196 68.6508 428.967 69.3702 419.673 69.4831C419.466 69.495 419.259 69.507 419.052 69.5189C419.132 69.4523 419.168 69.3674 419.248 69.3008ZM429.735 139.104C429.902 138.019 430.093 137.17 430.181 136.327C430.839 130.094 429.892 124.078 427.948 118.213C423.926 106.148 416.804 95.9488 408.421 86.5667C406.453 84.3638 404.326 82.2941 402.048 79.9332C402.033 80.7822 402.014 81.1763 402.018 81.6311C402.291 89.6719 403.079 97.6828 405.255 105.458C407.497 113.489 410.828 120.981 416.107 127.522C419.819 132.158 424.128 136.17 429.735 139.104ZM410.539 59.0998C411.086 59.2337 411.226 59.3187 411.371 59.3309C422.774 59.6444 434.129 59.4848 445.148 55.9111C454.701 52.815 463.232 48.1233 469.961 40.4951C470.614 39.7438 471.2 38.9136 471.841 38.1319C471.622 37.9377 471.544 37.8285 471.44 37.8344C471.124 37.7492 470.809 37.6641 470.493 37.5789C461.278 35.7636 452.178 36.0101 443.269 39.131C434.208 42.3124 425.926 47.0104 418.285 52.7883C415.72 54.7567 413.258 56.895 410.539 59.0998ZM476.4 146.295C476.428 145.125 476.516 144.106 476.489 143.063C476.252 137.503 474.859 132.226 472.534 127.179C467.434 116.035 459.634 106.878 450.89 98.4474C450.375 97.9497 449.768 97.4883 449.095 96.948C447.653 114.592 462.212 141.013 476.4 146.295ZM456.413 79.9882C466.136 80.8641 475.675 80.3027 485.08 77.7219C494.62 75.1231 502.72 70.146 509.987 63.252C489.137 59.7405 471.695 66.3949 456.413 79.9882ZM520.151 148.815C519.374 133.036 505.134 117.518 492.9 111.213C494.036 126.392 505.431 144.411 520.151 148.815ZM497.014 100.023C510.489 104.043 536.215 97.5721 543.381 88.295C531.404 83.4332 505.313 90.0495 497.014 100.023ZM558.996 130.313C555.014 124.906 550.016 121.379 543.828 119.554C537.725 117.766 531.538 117.451 524.954 117.997C534.767 126.81 545.147 132.974 558.996 130.313Z" fill="#016845"/>
</g>
<g opacity="0.79" clip-path="url(#clip0_2003_2)">
<path d="M102.13 805.389C103.852 802.029 105.676 798.701 107.263 795.273C110.032 789.291 111.923 783.04 112.328 776.453C112.801 768.891 111.214 761.968 105.541 756.49C101.792 752.894 96.9966 751.415 92.0323 750.508C79.706 748.323 67.8862 750.373 56.4379 755.011C37.9316 762.506 22.9036 774.571 10.5773 790.064C5.81565 796.046 2.64121 802.768 2.40481 810.599C2.3035 813.59 2.57367 816.547 4.70122 819.471C-2.15423 816.85 -8.33427 814.094 -12.2517 808.011C-14.0753 805.188 -13.974 802.062 -13.1297 798.937C-11.1035 791.576 -7.18607 785.157 -2.4244 779.31C12.8062 760.691 31.5152 746.609 54.4455 738.409C65.0832 734.611 76.0587 732.763 87.3719 733.502C95.308 734.006 103.075 735.519 110.235 739.249C118.205 743.383 122.325 750.138 122.899 758.91C123.946 775.243 117.732 788.921 106.959 800.819C105.473 802.465 103.953 804.079 102.434 805.725C102.332 805.625 102.231 805.524 102.13 805.389Z" fill="#016845"/>
<path d="M119.826 738.308C118.103 734.78 116.685 731.52 114.929 728.428C110.741 721.168 104.561 716.699 96.0848 715.522C89.6346 714.648 83.3194 715.421 77.0719 717.068C63.3609 720.698 51.3723 727.487 40.7346 736.796C39.8228 737.603 38.7421 738.241 37.6614 738.813C26.1794 744.66 15.4065 751.449 6.38976 760.725C6.28845 760.826 6.1196 760.893 5.61304 761.195C6.49108 758.742 7.16649 756.557 8.04453 754.474C18.6148 729.604 37.0198 713.103 62.3478 703.894C70.858 700.802 79.6047 699.021 88.7227 699.256C93.0454 699.357 97.368 699.861 101.454 701.373C110.032 704.533 114.726 711.153 117.394 719.454C119.353 725.47 120.062 731.688 119.826 738.308Z" fill="#016845"/>
<path d="M91.7621 691.963C86.325 692.467 80.7528 692.602 75.3495 693.61C71.3646 694.349 68.2239 693.576 64.6104 691.929C47.3198 684.065 30.6709 685.947 15.1364 696.534C10.9488 699.39 7.43664 703.188 3.58678 706.515C2.94514 707.086 2.16841 707.624 1.35792 707.859C-5.93656 710.111 -13.1297 712.632 -20.154 716.497C-19.8839 715.757 -19.7488 715.287 -19.5124 714.816C-8.63821 691.694 9.26026 677.108 34.6558 672.941C56.1002 669.446 74.9443 675.865 90.749 690.854C91.1542 691.257 91.5595 691.728 91.7621 691.963Z" fill="#016845"/>
<path d="M40.3293 807.473C53.3648 806.062 64.0701 800.382 72.479 790.535C80.8542 780.721 84.0286 768.858 85.5821 756.221C92.0661 756.624 98.0772 757.767 102.366 763.077C102.873 763.682 103.075 764.724 103.042 765.531C101.927 781.763 95.173 795.442 83.7922 806.902C76.6328 814.127 68.2577 819.538 58.3967 822.496C54.2766 823.739 50.9671 822.832 47.9953 819.807C44.7195 816.446 41.41 811.338 40.3293 807.473Z" fill="#016845"/>
<path d="M78.9292 756.389C77.5784 761.161 75.5859 765.362 73.1207 769.362C67.6498 778.335 60.2203 785.426 51.8789 791.644C39.35 800.987 25.7404 808.145 10.4085 811.775C9.86815 811.909 9.32782 812.01 8.3147 812.212C8.92257 809.557 9.29405 807.07 10.0032 804.717C11.7593 799.004 15.1364 794.198 19.2226 789.896C19.5941 789.526 20.1007 789.224 20.641 789.056C34.1831 784.082 45.1248 775.646 53.8714 764.253C54.5468 763.38 55.5261 762.573 56.5393 762.136C63.5973 759.044 71.0269 757.397 78.9292 756.389Z" fill="#016845"/>
<path d="M-1.3775 761.699C-3.23488 755.011 -3.64013 748.659 -3.13357 742.274C-2.39062 732.36 0.446124 723.017 6.1196 714.749C14.3597 702.785 25.5715 695.425 40.2956 693.912C45.5976 693.374 56.4379 695.189 60.5242 697.441C45.6313 702.684 32.4608 710.279 21.5866 721.807C10.78 733.267 2.74253 746.105 -1.3775 761.699Z" fill="#016845"/>
<path d="M109.255 731.385C94.9365 726.411 80.5502 725.84 65.8262 727.991C69.8449 726.647 73.8298 725.201 77.8823 723.958C82.8466 722.412 87.8784 721.471 93.1129 721.639C100.306 721.874 105.574 725.134 109.255 731.385Z" fill="#016845"/>
</g>
<g opacity="0.79" clip-path="url(#clip1_2003_2)">
<path d="M290.13 491.389C291.852 488.029 293.676 484.701 295.263 481.273C298.032 475.291 299.923 469.04 300.328 462.453C300.801 454.891 299.214 447.968 293.541 442.49C289.792 438.894 284.997 437.415 280.032 436.508C267.706 434.323 255.886 436.373 244.438 441.011C225.932 448.506 210.904 460.571 198.577 476.064C193.816 482.046 190.641 488.768 190.405 496.599C190.304 499.59 190.574 502.547 192.701 505.471C185.846 502.85 179.666 500.094 175.748 494.011C173.925 491.188 174.026 488.062 174.87 484.937C176.897 477.576 180.814 471.157 185.576 465.31C200.806 446.691 219.515 432.609 242.445 424.409C253.083 420.611 264.059 418.763 275.372 419.502C283.308 420.006 291.075 421.519 298.235 425.249C306.205 429.383 310.325 436.138 310.899 444.91C311.946 461.243 305.732 474.921 294.959 486.819C293.473 488.465 291.953 490.079 290.434 491.725C290.332 491.625 290.231 491.524 290.13 491.389Z" fill="#016845"/>
<path d="M307.826 424.308C306.103 420.78 304.685 417.52 302.929 414.428C298.741 407.168 292.561 402.699 284.085 401.522C277.635 400.648 271.319 401.421 265.072 403.068C251.361 406.698 239.372 413.487 228.735 422.796C227.823 423.603 226.742 424.241 225.661 424.813C214.179 430.66 203.407 437.449 194.39 446.725C194.288 446.826 194.12 446.893 193.613 447.195C194.491 444.742 195.166 442.557 196.045 440.474C206.615 415.604 225.02 399.103 250.348 389.894C258.858 386.802 267.605 385.021 276.723 385.256C281.045 385.357 285.368 385.861 289.454 387.373C298.032 390.533 302.726 397.153 305.394 405.454C307.353 411.47 308.062 417.688 307.826 424.308Z" fill="#016845"/>
<path d="M279.762 377.963C274.325 378.467 268.753 378.602 263.35 379.61C259.365 380.349 256.224 379.576 252.61 377.929C235.32 370.065 218.671 371.947 203.136 382.534C198.949 385.39 195.437 389.188 191.587 392.515C190.945 393.086 190.168 393.624 189.358 393.859C182.063 396.111 174.87 398.632 167.846 402.497C168.116 401.757 168.251 401.287 168.488 400.816C179.362 377.694 197.26 363.108 222.656 358.941C244.1 355.446 262.944 361.865 278.749 376.854C279.154 377.257 279.559 377.728 279.762 377.963Z" fill="#016845"/>
<path d="M228.329 493.473C241.365 492.062 252.07 486.382 260.479 476.535C268.854 466.721 272.029 454.858 273.582 442.221C280.066 442.624 286.077 443.767 290.366 449.077C290.873 449.682 291.075 450.724 291.042 451.531C289.927 467.763 283.173 481.442 271.792 492.902C264.633 500.127 256.258 505.538 246.397 508.496C242.277 509.739 238.967 508.832 235.995 505.807C232.72 502.446 229.41 497.338 228.329 493.473Z" fill="#016845"/>
<path d="M266.929 442.389C265.578 447.161 263.586 451.362 261.121 455.362C255.65 464.335 248.22 471.426 239.879 477.644C227.35 486.987 213.74 494.145 198.408 497.775C197.868 497.909 197.328 498.01 196.315 498.212C196.923 495.557 197.294 493.07 198.003 490.717C199.759 485.004 203.136 480.198 207.223 475.896C207.594 475.526 208.101 475.224 208.641 475.056C222.183 470.082 233.125 461.646 241.871 450.253C242.547 449.38 243.526 448.573 244.539 448.136C251.597 445.044 259.027 443.397 266.929 442.389Z" fill="#016845"/>
<path d="M186.623 447.699C184.765 441.011 184.36 434.659 184.866 428.274C185.609 418.36 188.446 409.017 194.12 400.749C202.36 388.785 213.572 381.425 228.296 379.912C233.598 379.374 244.438 381.189 248.524 383.441C233.631 388.684 220.461 396.279 209.587 407.807C198.78 419.267 190.743 432.105 186.623 447.699Z" fill="#016845"/>
<path d="M185.069 402.161C183.482 406.597 181.692 411.033 180.274 415.57C179.429 418.225 179.193 421.048 178.585 423.77C178.45 424.342 178.146 425.115 177.673 425.384C170.581 429.719 167.137 436.474 165.144 444.17C163.726 449.682 163.253 455.295 163.49 461.243C163.051 460.84 162.747 460.638 162.51 460.369C150.961 447.162 149.509 424.039 168.184 410.395C173.418 406.563 179.193 403.975 185.069 402.161Z" fill="#016845"/>
<path d="M172.473 473.409C167.306 460.034 170.244 441.28 177.775 433.45C178.045 436.34 178.214 439.197 178.653 442.02C179.429 447.128 180.814 452.035 183.043 456.74C183.245 457.177 183.144 458.084 182.84 458.42C178.585 462.789 175.005 467.595 172.473 473.409Z" fill="#016845"/>
<path d="M297.255 417.385C282.937 412.411 268.55 411.84 253.826 413.991C257.845 412.647 261.83 411.201 265.882 409.958C270.847 408.412 275.878 407.471 281.113 407.639C288.306 407.874 293.574 411.134 297.255 417.385Z" fill="#016845"/>
</g>
<g opacity="0.79" clip-path="url(#clip2_2003_2)">
<path d="M1114.13 572.389C1115.85 569.029 1117.68 565.701 1119.26 562.273C1122.03 556.291 1123.92 550.04 1124.33 543.453C1124.8 535.891 1123.21 528.968 1117.54 523.49C1113.79 519.894 1109 518.415 1104.03 517.508C1091.71 515.323 1079.89 517.373 1068.44 522.011C1049.93 529.506 1034.9 541.571 1022.58 557.064C1017.82 563.046 1014.64 569.768 1014.4 577.599C1014.3 580.59 1014.57 583.547 1016.7 586.471C1009.85 583.85 1003.67 581.094 999.748 575.011C997.925 572.188 998.026 569.062 998.87 565.937C1000.9 558.576 1004.81 552.157 1009.58 546.31C1024.81 527.691 1043.52 513.609 1066.45 505.409C1077.08 501.611 1088.06 499.763 1099.37 500.502C1107.31 501.006 1115.08 502.519 1122.23 506.249C1130.2 510.383 1134.32 517.138 1134.9 525.91C1135.95 542.243 1129.73 555.921 1118.96 567.819C1117.47 569.465 1115.95 571.079 1114.43 572.725C1114.33 572.625 1114.23 572.524 1114.13 572.389Z" fill="#016845"/>
<path d="M1131.83 505.308C1130.1 501.78 1128.68 498.52 1126.93 495.428C1122.74 488.168 1116.56 483.699 1108.08 482.522C1101.63 481.648 1095.32 482.421 1089.07 484.068C1075.36 487.698 1063.37 494.487 1052.73 503.796C1051.82 504.603 1050.74 505.241 1049.66 505.813C1038.18 511.66 1027.41 518.449 1018.39 527.725C1018.29 527.826 1018.12 527.893 1017.61 528.195C1018.49 525.742 1019.17 523.557 1020.04 521.474C1030.61 496.604 1049.02 480.103 1074.35 470.894C1082.86 467.802 1091.6 466.021 1100.72 466.256C1105.05 466.357 1109.37 466.861 1113.45 468.373C1122.03 471.533 1126.73 478.153 1129.39 486.454C1131.35 492.47 1132.06 498.688 1131.83 505.308Z" fill="#016845"/>
<path d="M1103.76 458.963C1098.32 459.467 1092.75 459.602 1087.35 460.61C1083.36 461.349 1080.22 460.576 1076.61 458.929C1059.32 451.065 1042.67 452.947 1027.14 463.534C1022.95 466.39 1019.44 470.188 1015.59 473.515C1014.95 474.086 1014.17 474.624 1013.36 474.859C1006.06 477.111 998.87 479.632 991.846 483.497C992.116 482.757 992.251 482.287 992.488 481.816C1003.36 458.694 1021.26 444.108 1046.66 439.941C1068.1 436.446 1086.94 442.865 1102.75 457.854C1103.15 458.257 1103.56 458.728 1103.76 458.963Z" fill="#016845"/>
<path d="M1052.33 574.473C1065.36 573.062 1076.07 567.382 1084.48 557.535C1092.85 547.721 1096.03 535.858 1097.58 523.221C1104.07 523.624 1110.08 524.767 1114.37 530.077C1114.87 530.682 1115.08 531.724 1115.04 532.531C1113.93 548.763 1107.17 562.442 1095.79 573.902C1088.63 581.127 1080.26 586.538 1070.4 589.496C1066.28 590.739 1062.97 589.832 1060 586.807C1056.72 583.446 1053.41 578.338 1052.33 574.473Z" fill="#016845"/>
<path d="M1090.93 523.389C1089.58 528.161 1087.59 532.362 1085.12 536.362C1079.65 545.335 1072.22 552.426 1063.88 558.644C1051.35 567.987 1037.74 575.145 1022.41 578.775C1021.87 578.909 1021.33 579.01 1020.31 579.212C1020.92 576.557 1021.29 574.07 1022 571.717C1023.76 566.004 1027.14 561.198 1031.22 556.896C1031.59 556.526 1032.1 556.224 1032.64 556.056C1046.18 551.082 1057.12 542.646 1065.87 531.253C1066.55 530.38 1067.53 529.573 1068.54 529.136C1075.6 526.044 1083.03 524.397 1090.93 523.389Z" fill="#016845"/>
<path d="M1010.62 528.699C1008.77 522.011 1008.36 515.659 1008.87 509.274C1009.61 499.36 1012.45 490.017 1018.12 481.749C1026.36 469.785 1037.57 462.425 1052.3 460.912C1057.6 460.374 1068.44 462.189 1072.52 464.441C1057.63 469.684 1044.46 477.279 1033.59 488.807C1022.78 500.267 1014.74 513.105 1010.62 528.699Z" fill="#016845"/>
<path d="M1009.07 483.161C1007.48 487.597 1005.69 492.033 1004.27 496.57C1003.43 499.225 1003.19 502.048 1002.59 504.77C1002.45 505.342 1002.15 506.115 1001.67 506.384C994.581 510.719 991.137 517.474 989.144 525.17C987.726 530.682 987.253 536.295 987.49 542.243C987.05 541.84 986.747 541.638 986.51 541.369C974.961 528.162 973.508 505.039 992.184 491.395C997.418 487.563 1003.19 484.975 1009.07 483.161Z" fill="#016845"/>
<path d="M996.473 554.409C991.306 541.034 994.244 522.28 1001.77 514.45C1002.04 517.34 1002.21 520.197 1002.65 523.02C1003.43 528.128 1004.81 533.035 1007.04 537.74C1007.25 538.177 1007.14 539.084 1006.84 539.42C1002.59 543.789 999.005 548.595 996.473 554.409Z" fill="#016845"/>
<path d="M1121.26 498.385C1106.94 493.411 1092.55 492.84 1077.83 494.991C1081.84 493.647 1085.83 492.201 1089.88 490.958C1094.85 489.412 1099.88 488.471 1105.11 488.639C1112.31 488.874 1117.57 492.134 1121.26 498.385Z" fill="#016845"/>
</g>
<g opacity="0.79" clip-path="url(#clip3_2003_2)">
<path d="M50.1168 210.734C-14.9317 233.843 -80.0687 256.985 -145.692 280.299C-148.051 274.503 -150.437 268.767 -152.827 262.882C-87.7784 239.773 -23.3051 216.867 41.1239 193.978C44.1015 199.554 47.0792 205.129 50.1168 210.734Z" fill="#016845"/>
<path d="M-140.687 286.251C-138.475 285.465 -136.262 284.679 -134.094 283.909C-71.9216 261.821 -9.79365 239.749 52.3628 217.617C54.3099 216.925 55.2824 217.278 56.6355 218.842C60.3605 223.155 64.348 227.225 68.37 231.532C67.7219 231.812 66.9854 232.123 66.2331 232.391C2.60066 254.997 -61.0318 277.604 -124.649 300.255C-126.242 300.821 -127.385 300.828 -128.628 299.574C-132.811 295.374 -137.023 291.234 -141.235 287.094C-141.048 286.778 -140.89 286.523 -140.687 286.251Z" fill="#016845"/>
<path d="M38.6279 169.277C36.6701 175.409 37.7931 181.095 39.0076 186.899C-25.2001 209.71 -89.3194 232.489 -153.704 255.363C-154.011 248.888 -153.525 242.681 -149.004 237.732C-147.317 235.886 -144.775 234.485 -142.342 233.62C-93.1949 216.11 -43.9881 198.628 5.21862 181.146C15.529 177.483 25.8837 173.805 36.1941 170.142C36.8579 169.906 37.5659 169.654 38.6279 169.277Z" fill="#016845"/>
<path d="M93.3453 246.002C69.6711 254.412 45.997 262.823 22.3229 271.234C-13.6529 284.015 -49.7202 296.679 -85.6173 309.681C-95.8963 313.433 -105.49 312.801 -115.176 308.262C-116.496 307.633 -117.974 307.261 -119.379 306.812C-119.28 306.528 -119.242 306.215 -119.144 305.931C-118.54 305.666 -117.996 305.373 -117.377 305.153C-53.7884 282.562 9.75555 259.987 73.3595 237.44C74.2003 237.142 75.4895 236.983 76.1522 237.446C81.4958 240.984 87.096 243.982 93.3453 246.002Z" fill="#016845"/>
<path d="M47.7418 189.881C46.2235 184.485 44.945 179.203 45.3541 173.621C45.7542 167.593 48.9019 164.53 54.9141 164.339C60.8221 164.135 66.1519 166.232 71.1267 169.153C87.358 178.649 99.4199 192.12 108.492 208.399C111.852 214.488 114.37 220.875 114.954 227.85C115.645 235.685 111.661 240.043 103.788 240.047C98.5599 240.059 93.7444 238.428 89.2682 235.928C74.2926 227.582 62.7814 215.661 53.7315 201.269C51.5347 197.611 49.7489 193.706 47.7418 189.881Z" fill="#016845"/>
</g>
<g opacity="0.79" clip-path="url(#clip4_2003_2)">
<path d="M1438.02 399.41C1372.97 422.52 1307.83 445.661 1242.21 468.975C1239.85 463.179 1237.46 457.443 1235.07 451.559C1300.12 428.449 1364.59 405.544 1429.02 382.654C1432 388.23 1434.98 393.806 1438.02 399.41Z" fill="#016845"/>
<path d="M1247.21 474.927C1249.42 474.141 1251.64 473.355 1253.8 472.585C1315.98 450.497 1378.1 428.425 1440.26 406.293C1442.21 405.601 1443.18 405.954 1444.53 407.518C1448.26 411.831 1452.25 415.901 1456.27 420.208C1455.62 420.488 1454.88 420.8 1454.13 421.067C1390.5 443.673 1326.87 466.28 1263.25 488.931C1261.66 489.497 1260.51 489.504 1259.27 488.25C1255.09 484.05 1250.88 479.91 1246.66 475.77C1246.85 475.455 1247.01 475.199 1247.21 474.927Z" fill="#016845"/>
<path d="M1426.53 357.953C1424.57 364.086 1425.69 369.772 1426.91 375.575C1362.7 398.386 1298.58 421.165 1234.19 444.039C1233.89 437.565 1234.37 431.357 1238.89 426.409C1240.58 424.563 1243.12 423.161 1245.56 422.296C1294.7 404.786 1343.91 387.304 1393.12 369.823C1403.43 366.16 1413.78 362.481 1424.09 358.818C1424.76 358.582 1425.46 358.331 1426.53 357.953Z" fill="#016845"/>
<path d="M1481.24 434.678C1457.57 443.089 1433.9 451.499 1410.22 459.91C1374.25 472.691 1338.18 485.355 1302.28 498.358C1292 502.109 1282.41 501.477 1272.72 496.938C1271.4 496.31 1269.92 495.937 1268.52 495.488C1268.62 495.204 1268.66 494.891 1268.75 494.607C1269.36 494.343 1269.9 494.05 1270.52 493.829C1334.11 471.239 1397.65 448.663 1461.26 426.117C1462.1 425.818 1463.39 425.659 1464.05 426.122C1469.39 429.66 1474.99 432.659 1481.24 434.678Z" fill="#016845"/>
<path d="M1435.64 378.557C1434.12 373.161 1432.84 367.879 1433.25 362.297C1433.65 356.269 1436.8 353.206 1442.81 353.015C1448.72 352.812 1454.05 354.908 1459.03 357.829C1475.26 367.325 1487.32 380.797 1496.39 397.076C1499.75 403.164 1502.27 409.552 1502.85 416.526C1503.54 424.361 1499.56 428.719 1491.69 428.723C1486.46 428.735 1481.64 427.104 1477.17 424.604C1462.19 416.258 1450.68 404.337 1441.63 389.946C1439.43 386.287 1437.65 382.383 1435.64 378.557Z" fill="#016845"/>
</g>
<g opacity="0.79" clip-path="url(#clip5_2003_2)">
<path d="M1347.43 819.552C1288.44 783.691 1229.38 747.782 1169.87 711.604C1172.87 706.116 1175.82 700.644 1178.87 695.076C1237.86 730.937 1296.32 766.481 1354.75 802C1352.3 807.829 1349.86 813.658 1347.43 819.552Z" fill="#016845"/>
<path d="M1168.41 719.243C1170.42 720.463 1172.42 721.683 1174.39 722.878C1230.77 757.153 1287.11 791.404 1343.51 825.639C1345.27 826.713 1345.61 827.689 1345.25 829.726C1344.26 835.338 1343.62 841 1342.82 846.838C1342.19 846.512 1341.49 846.137 1340.81 845.723C1283.1 810.643 1225.4 775.562 1167.67 740.522C1166.23 739.644 1165.5 738.762 1165.69 737.006C1166.31 731.11 1166.86 725.231 1167.41 719.351C1167.77 719.296 1168.07 719.258 1168.41 719.243Z" fill="#016845"/>
<path d="M1372.33 784.472C1366.34 786.825 1362.63 791.285 1358.9 795.89C1300.68 760.493 1242.53 725.144 1184.15 689.65C1188.98 685.324 1194.1 681.782 1200.79 682.165C1203.29 682.308 1205.98 683.394 1208.19 684.736C1252.79 711.799 1297.41 738.926 1342.03 766.054C1351.38 771.738 1360.77 777.446 1370.12 783.13C1370.72 783.496 1371.36 783.886 1372.33 784.472Z" fill="#016845"/>
<path d="M1347.36 875.342C1325.9 862.291 1304.43 849.239 1282.96 836.188C1250.34 816.355 1217.75 796.377 1185 776.744C1175.6 771.14 1170.04 763.301 1167.44 752.924C1167.1 751.503 1166.46 750.122 1165.92 748.749C1166.2 748.646 1166.47 748.478 1166.75 748.375C1167.33 748.676 1167.9 748.913 1168.47 749.254C1226.13 784.31 1283.75 819.342 1341.39 854.437C1342.15 854.901 1343.09 855.801 1343.15 856.607C1343.78 862.985 1344.99 869.221 1347.36 875.342Z" fill="#016845"/>
<path d="M1362.1 804.546C1365.33 799.962 1368.62 795.637 1373.2 792.43C1378.13 788.936 1382.5 789.443 1386.44 793.985C1390.33 798.439 1392.06 803.896 1392.94 809.598C1395.82 828.181 1392.99 846.04 1386.09 863.353C1383.49 869.802 1380.12 875.787 1375.08 880.643C1369.44 886.124 1363.55 885.786 1358.57 879.683C1355.26 875.635 1353.49 870.871 1352.6 865.821C1349.62 848.938 1351.6 832.485 1357.05 816.381C1358.5 812.368 1360.4 808.518 1362.1 804.546Z" fill="#016845"/>
</g>
<g opacity="0.79" clip-path="url(#clip6_2003_2)">
<path d="M169.153 81.078C110.167 45.2172 51.1008 9.30759 -8.40703 -26.8704C-5.40052 -32.358 -2.45856 -37.8299 0.596771 -43.3979C59.583 -7.53715 118.047 28.0065 176.472 63.5258C174.027 69.355 171.582 75.1842 169.153 81.078Z" fill="#016845"/>
<path d="M-9.86408 -19.2307C-7.85775 -18.0109 -5.85142 -16.7912 -3.88521 -15.5958C52.4927 18.6793 108.831 52.93 165.233 87.165C166.999 88.2384 167.339 89.2154 166.98 91.2522C165.986 96.8637 165.347 102.526 164.546 108.364C163.919 108.038 163.213 107.663 162.531 107.249C104.829 72.1685 47.1265 37.0883 -10.6001 2.04833C-12.0447 1.17011 -12.7722 0.28774 -12.5841 -1.46803C-11.9676 -7.36363 -11.4156 -13.2435 -10.8636 -19.1233C-10.5008 -19.1777 -10.2025 -19.2164 -9.86408 -19.2307Z" fill="#016845"/>
<path d="M194.053 45.9977C188.061 48.3504 184.36 52.8108 180.626 57.4161C122.402 22.0188 64.2588 -13.3297 5.87455 -48.8245C10.7025 -53.1499 15.8236 -56.6919 22.5154 -56.3089C25.0117 -56.1663 27.7036 -55.0798 29.9106 -53.7381C74.5157 -26.6753 119.137 0.452054 163.757 27.5794C173.107 33.2635 182.497 38.9719 191.846 44.656C192.448 45.0219 193.09 45.4122 194.053 45.9977Z" fill="#016845"/>
<path d="M169.09 136.868C147.622 123.817 126.154 110.765 104.686 97.7138C72.0634 77.8806 39.4736 57.9025 6.72854 38.2701C-2.6698 32.6664 -8.23596 24.8271 -10.83 14.4495C-11.1756 13.0292 -11.8196 11.6477 -12.3589 10.2748C-12.0763 10.1715 -11.8094 10.0038 -11.5268 9.90055C-10.9406 10.2019 -10.3701 10.4387 -9.80837 10.7803C47.8536 45.836 105.476 80.8674 163.113 115.963C163.876 116.427 164.812 117.326 164.872 118.133C165.501 124.511 166.711 130.746 169.09 136.868Z" fill="#016845"/>
<path d="M183.827 66.0723C187.053 61.4884 190.343 57.1627 194.93 53.9562C199.858 50.4614 204.221 50.9688 208.164 55.5112C212.051 59.9647 213.79 65.4219 214.665 71.1241C217.546 89.7071 214.713 107.566 207.815 124.879C205.213 131.327 201.849 137.313 196.808 142.169C191.168 147.65 185.273 147.312 180.3 141.208C176.99 137.161 175.215 132.397 174.328 127.347C171.348 110.464 173.327 94.0109 178.775 77.9071C180.226 73.8937 182.127 70.044 183.827 66.0723Z" fill="#016845"/>
</g>
<g opacity="0.79">
<path d="M902.49 -29.3378C906.897 -25.5235 912.208 -23.7108 917.745 -22.4645C918.272 -22.3512 919.026 -21.6337 919.101 -21.105C923.734 6.95472 949.724 38.7154 989.162 46.2685C1030.29 54.1237 1072.97 31.0868 1088.41 -7.88708C1090.11 -12.1168 1091.13 -16.6487 1092.33 -21.0672C1092.6 -22.0491 1092.9 -22.5023 1093.95 -22.7289C1099.41 -23.9374 1104.72 -25.6746 1109.32 -29.791C1109.13 -26.6943 1109.02 -23.9751 1108.83 -21.2938C1106.42 13.2615 1078.51 56.5029 1029.73 67.115C996.469 74.366 965.959 67.8703 939.366 46.1552C921.361 31.5022 909.345 12.6951 904.373 -10.2285C903.055 -16.4221 902.753 -22.8044 902 -29.1112C902.151 -29.1868 902.339 -29.2623 902.49 -29.3378Z" fill="#016845"/>
<path d="M924.901 -21.4827C929.61 -21.4827 934.243 -21.5205 938.838 -21.4072C939.328 -21.4072 940.044 -20.6519 940.232 -20.1232C944.187 -9.92651 950.176 -1.01388 958.312 6.19932C973.794 19.9082 991.836 26.4793 1012.55 24.2134C1035.12 21.7587 1052.82 11.1088 1064.84 -8.4159C1066.08 -10.4552 1067.1 -12.6456 1068.04 -14.7983C1068.98 -16.9131 1069.69 -19.1035 1070.45 -21.2184C1075.83 -21.2184 1081.18 -21.2184 1086.76 -21.2184C1083.67 -6.82975 1076.74 5.40624 1066.76 15.9428C1051.31 32.2575 1032.22 41.1323 1009.92 42.152C960.61 44.3801 929.648 7.18122 924.901 -21.4827Z" fill="#016845"/>
<path d="M1065.02 -22.389C1062.99 -15.0626 1059.26 -8.52914 1054.21 -2.82656C1042.72 10.2025 1028.22 17.4157 1010.93 18.8885C992.25 20.4747 976.053 14.5078 962.079 2.30953C954.395 -4.41271 948.933 -12.7966 945.204 -22.3513C951.118 -24.7305 956.994 -27.072 962.908 -29.4512C972.023 -12.7966 985.922 -3.12869 1005.36 -3.09092C1024.79 -3.01539 1038.81 -12.4945 1048 -29.4134C1053.65 -27.072 1059.22 -24.7683 1065.02 -22.389Z" fill="#016845"/>
</g>
<path d="M313.603 887.587C290.909 868.3 271.273 846.556 245.773 829.548C228.498 818.012 209.575 809.178 187.973 805.006C164.408 800.544 141.622 802.209 119.385 808.928C97.5533 815.547 78.1281 825.852 58.2868 835.399C48.8637 839.916 39.1509 844.08 29.5014 848.447C23.6516 844.088 18.2546 840.03 12.5575 835.75C21.012 831.42 29.4559 827.22 37.7524 822.876C54.8508 813.834 71.4438 804.158 90.1956 797.292C121.066 785.994 153.285 780.67 187.565 785.332C212.173 788.69 234.096 797.765 254.336 810.001C269.721 819.342 282.205 831.153 294.532 842.951C311.587 859.216 328.558 875.539 348.845 889.162C349.298 889.462 349.572 890.011 350.009 890.508C337.847 889.532 325.685 888.556 313.603 887.587Z" fill="#016C47"/>
<path d="M7.98116 863.066C-2.83799 862.198 -13.5782 861.336 -24.3973 860.468C-27.7461 857.629 -30.9265 854.671 -34.3647 851.957C-56.4899 834.495 -78.7097 817.223 -104.125 803.122C-122.69 792.801 -142.528 785.475 -164.472 782.594C-194.992 778.629 -223.732 783.178 -250.891 793.785C-265.005 799.31 -278.271 806.155 -292.1 812.098C-302.971 816.828 -314.137 821.271 -326.519 823.045C-326.031 816.955 -325.537 810.799 -325.048 804.708C-306.164 799.171 -288.834 791.202 -271.562 782.965C-260.902 777.889 -249.799 773.243 -238.296 769.552C-207.773 759.61 -176.185 758.19 -144.064 765.974C-117.555 772.385 -93.651 783.53 -72.9215 798.573C-50.3859 814.882 -29.2347 832.595 -7.64138 849.751C-2.18118 854.012 2.85263 858.634 7.98116 863.066Z" fill="#016C47"/>
<path d="M-323.262 782.442C-303.767 776.229 -285.753 767.656 -267.517 759.298C-248.455 750.546 -228.287 743.859 -206.381 741.267C-173.314 737.263 -142.34 743.505 -112.808 756.816C-82.3602 770.595 -55.4915 788.372 -29.8546 807.631C-4.43875 826.675 21.0613 845.66 46.4824 864.639C47.1563 865.154 47.7461 865.729 48.3358 866.304C37.0428 865.398 25.6709 864.485 14.3779 863.579C10.5605 860.636 6.74312 857.694 2.92574 854.751C-19.6417 836.858 -41.6985 818.545 -64.7923 801.269C-91.2612 781.481 -121.057 766.502 -156.273 760.644C-176.432 757.313 -196.375 757.229 -216.228 760.975C-239.871 765.405 -261.013 774.321 -281.328 784.818C-294.925 791.834 -309.513 797.321 -324.796 801.565C-324.276 795.082 -323.771 788.795 -323.262 782.442Z" fill="#016C47"/>
<path d="M276.485 884.609C268.887 878.265 261.379 871.796 253.612 865.571C240.691 855.241 227.085 845.515 211.464 838.132C180.984 823.757 149.822 822.838 118.751 833.659C102.563 839.281 87.2808 846.491 71.5087 852.871C64.7702 855.626 57.8844 858.238 51.067 860.986C48.8507 861.863 47.0291 861.783 45.0072 860.236C40.7475 856.863 36.3141 853.673 31.4384 850.052C59.2079 837.78 85.9243 824.764 114.047 814.036C151.851 799.537 189.731 802.906 226.16 821.383C241.508 829.206 255.293 838.682 267.445 849.676C281.304 862.19 295.079 874.764 308.937 887.278C298.044 886.339 287.304 885.477 276.485 884.609Z" fill="#016C47"/>
<path d="M896.892 788.725C848.19 765.703 799.08 762.62 749.163 782.474C731.016 789.718 714.313 798.792 697.894 808.284C682.727 817.02 666.913 824.912 649.678 830.714C648.451 831.143 646.471 831.05 645.403 830.502C638.31 826.77 631.397 822.788 624.1 818.643C643.352 812.476 661.135 804.807 677.933 795.544C689.409 789.214 700.669 782.604 712.504 776.765C738.088 763.987 765.621 755.651 796.104 754.142C832.493 752.316 866.384 759.847 898.022 775.633C897.591 780.015 897.244 784.337 896.892 788.725Z" fill="#016C47"/>
<path d="M895.263 809.026C886.723 805.507 878.293 801.601 869.554 798.593C826.623 783.878 785.679 785.997 747.16 806.437C727.567 816.86 708.047 827.356 688.379 837.708C683.647 840.228 678.846 842.611 673.982 844.791C672.829 845.292 670.739 845.586 669.749 845.045C663.13 841.35 656.696 837.341 649.72 833.156C679.622 824.021 703.158 807.059 729.559 794.017C752.479 782.74 776.685 774.269 803.856 772.428C827.516 770.767 850.355 774.379 872.394 782.014C880.592 784.846 888.589 788.19 896.602 791.338C896.209 797.238 895.736 803.132 895.263 809.026Z" fill="#016C47"/>
<path d="M893.477 831.293C850.718 806.507 806.446 802.559 761.431 822.741C744.779 830.171 729.834 840.111 714.031 848.862C708.625 851.855 703.287 854.986 697.812 857.842C696.817 858.356 694.969 858.603 693.974 858.128C687.387 855.029 680.98 851.68 674.103 848.229C682.895 843.661 691.023 839.436 699.235 835.151C719.634 824.595 739.602 813.476 760.433 803.481C789.85 789.496 821.538 788.809 854.28 796.774C867.38 799.935 879.547 804.799 891.425 810.3C892.573 810.854 893.821 811.152 894.979 811.574C894.527 818.195 894.002 824.744 893.477 831.293Z" fill="#016C47"/>
<path d="M333.948 874.719C328.435 870.125 322.922 865.53 318.005 861.444C337.424 849.227 356.523 837.05 375.848 825.023C403.532 807.867 433.939 795.411 468.396 789.936C507.117 783.816 544.487 788.594 580.763 802.05C608.162 812.223 632.788 826.261 657.055 840.797C668.733 847.797 680.675 854.49 692.453 861.235C685.372 864.292 677.876 867.579 670.237 870.657C669.337 870.98 667.557 870.376 666.494 869.764C650.108 860.012 633.897 850.077 617.511 840.326C599.615 829.597 581.087 819.806 560.195 813.713C525.168 803.521 490.442 804.426 455.833 812.788C429.573 819.118 406.726 830.467 385.006 843.62C369.05 853.281 353.242 863.085 337.359 872.818C336.428 873.534 335.275 874.035 333.948 874.719Z" fill="#016C47"/>
<path d="M336.265 876.553C358.148 863.347 379.237 850.143 400.973 837.782C428.789 821.954 459.56 811.9 493.922 809.582C529.485 807.163 562.786 814.119 593.134 830.131C614.026 841.167 633.671 853.882 653.932 865.855C657.801 868.143 661.75 870.437 665.626 872.66C658.887 876.403 652.139 880.278 645.253 883.878C644.426 884.273 642.336 883.578 641.273 882.965C624.961 873.286 608.991 863.304 592.506 853.809C571.24 841.491 548.2 832.458 522.529 829.476C495.599 826.326 469.818 829.662 445.46 839.045C417.164 849.956 391.759 864.461 368.228 881.358C364.517 884.026 360.432 886.401 356.357 888.644C355.525 889.105 353.462 889.071 352.709 888.549C347.212 884.747 342.046 880.773 336.265 876.553Z" fill="#016C47"/>
<path d="M114.533 786.195C108.693 779.728 102.248 772.884 96.1291 765.934C85.7084 754.156 74.777 742.8 60.9662 733.65C34.6978 716.317 -0.618714 711.704 -31.1887 726.191C-39.8643 730.306 -48.6874 734.278 -57.8527 737.563C-69.3871 741.647 -81.9486 742.682 -94.9735 742.56C-74.5804 727.125 -53.2605 713.017 -26.9959 705.633C17.6417 693.133 57.8498 702.159 93.6751 728.168C106.896 737.731 116.659 749.785 127.438 761.064C133.888 767.843 141.091 774.155 148.11 780.782C136.76 782.573 126.209 784.297 114.533 786.195Z" fill="#016C47"/>
<path d="M138.916 769.564C157.657 761.841 176.657 755.851 196.825 752.131C221.516 747.521 244.95 750.653 267.99 759.686C282.711 765.415 295.848 773.06 308.879 781.026C326.749 792.083 344.793 802.956 365.058 810.909C371.071 813.237 377.184 815.309 383.212 817.441C378.116 820.525 373.031 823.479 368.167 826.648C365.735 828.232 363.745 828.27 360.796 827.374C335.098 819.776 313.337 806.693 291.86 793.04C278.323 784.441 264.07 776.838 247.702 772.822C222.841 766.675 198.549 768.285 175.444 776.911C168.727 779.404 162.088 780.915 154.717 780.653C153.764 780.642 152.496 780.606 151.822 780.091C147.325 776.698 143.16 773.135 138.916 769.564Z" fill="#016C47"/>
<path d="M408.339 804.429C401.879 807.668 394.825 811.386 387.555 814.823C386.481 815.331 384.307 814.695 382.833 814.247C361.183 807.698 341.707 797.831 323.153 786.39C308.157 777.146 293.341 767.652 276.84 760.33C260.029 752.918 242.654 747.569 223.622 747.031C208.239 746.587 193.498 749.03 179.347 753.035C166.17 756.79 153.403 761.368 140.495 765.737C137.552 766.753 135.815 766.613 133.935 764.288C131.618 761.465 128.885 758.873 126.247 756.091C155.943 741.601 187.52 732.402 222.43 732.171C245.016 732.006 266.196 737.462 286.13 746.575C304.142 754.875 320.475 765.281 336.902 775.497C352.193 785.029 368.183 793.76 386.094 799.349C393.45 801.785 401.31 802.877 408.339 804.429Z" fill="#016C47"/>
<path d="M290.052 745.242C303.855 739.627 317.47 740.324 330.643 746.522C336.846 749.458 342.416 753.332 348.082 757.017C358.496 763.916 368.111 771.872 379.147 777.964C397.27 787.855 419.513 787.003 434.611 777.141C442.412 772.033 447.239 765.368 448.064 757.063C448.569 751.765 448.368 746.344 448.162 740.989C447.971 736.426 450.282 733.382 455.194 732.59C459.458 731.943 463.902 734.013 465.329 738.017C470.849 753.421 469.216 776.754 450.27 789.998C449.007 790.885 447.375 791.413 445.827 791.882C436.114 795.058 426.612 798.58 416.641 801.009C412.345 802.049 407.064 801.493 402.442 800.661C384.799 797.663 368.978 790.792 354.077 782.346C340.545 774.669 327.551 766.245 314.198 758.319C306.374 753.802 298.355 749.731 290.052 745.242Z" fill="#016C47"/>
<path d="M-3.49044 697.962C24.7261 683.09 54.0332 672.457 87.3955 670.718C119.405 669.002 148.778 676.367 175.904 690.935C197.012 702.252 216.278 715.727 235.244 729.97C229.847 729.866 224.73 729.258 219.839 729.788C212.858 730.612 207.893 728.105 202.686 724.655C187.901 714.769 172.774 705.184 155.504 698.526C130.29 688.857 104.06 683.918 76.5369 687.181C63.2964 688.755 51.1882 693.056 39.4276 697.979C37.6167 698.756 35.2107 699.024 33.1627 698.794C21.2432 697.772 9.35523 696.357 -3.49044 697.962Z" fill="#016C47"/>
<path d="M709.009 750.977C701.375 752.012 693.815 753.119 686.197 753.958C684.834 754.112 683.133 753.514 681.822 753.014C662.357 744.993 642.145 739.351 620.475 738.007C596.273 736.527 573.894 741.059 552.678 749.902C533.353 757.975 515.917 768.242 499.793 779.998C495.319 783.264 490.649 784.999 484.5 785.362C475.319 785.878 466.206 787.52 456.324 788.836C462.015 785.272 467.205 781.997 472.469 778.795C488.857 768.707 504.734 758.051 521.774 748.741C545.553 735.687 571.817 727.315 600.641 724.684C627.222 722.269 652.536 726.739 676.902 736.076C687.927 740.322 698.568 745.394 709.398 750.085C709.293 750.406 709.114 750.656 709.009 750.977Z" fill="#016C47"/>
<path d="M362.139 830.448C355.933 834.498 350.553 838.153 345.036 841.533C343.867 842.23 341.556 842.308 340.082 841.86C323.487 836.706 308.597 829.118 294.981 819.523C285.198 812.674 275.689 805.386 264.063 800.697C253.06 796.189 241.608 793.293 229.357 793.43C228.325 793.413 227.225 793.259 226.298 792.921C209.571 786.438 192.208 781.947 172.586 780.834C183.178 776.609 193.159 774.048 203.594 772.776C230.801 769.489 255.504 775.623 278.313 788.526C287.132 793.518 295.773 798.759 304.239 804.184C321.799 815.15 340.448 824.423 362.139 830.448Z" fill="#016C47"/>
<path d="M750.575 757.937C739.241 762.498 727.575 767.23 715.836 771.891C714.851 772.273 713.63 772.637 712.524 772.548C695.071 771.148 678.746 774.517 663.342 780.268C642.695 787.971 622.543 796.438 602.244 804.762C599.533 805.862 597.453 806.025 594.615 804.743C588.397 802.003 581.995 799.578 575.829 797.172C599.935 786.978 623.856 776.111 648.615 766.695C670.673 758.249 694.479 753.766 719.281 753.712C730.095 753.657 740.788 755.108 750.575 757.937Z" fill="#016C47"/>
<path d="M42.2813 700.053C53.8365 694.719 66.9398 690.893 81.2491 689.866C118.191 687.096 151.313 696.278 181.399 714.576C189.733 719.661 197.974 724.936 206.372 730.224C198.564 731.443 191.236 732.634 183.923 733.629C182.639 733.79 180.938 733.192 179.722 732.501C165.901 724.472 151.338 717.767 135.148 713.502C115.683 708.447 96.2827 707.55 76.7723 711.982C75.3983 712.267 73.6504 712.259 72.3394 711.758C62.1568 707.909 52.069 703.87 42.2813 700.053Z" fill="#016C47"/>
<path d="M678.795 755.078C670.909 757.279 663.023 759.481 655.142 761.617C654.331 761.815 653.384 761.739 652.441 761.598C641.132 759.899 629.876 757.546 618.509 756.568C594.992 754.484 573.028 758.785 553.081 768.653C543.558 773.425 534.604 779.034 525.439 784.297C524.523 784.817 523.428 785.586 522.48 785.51C514.651 785.013 506.838 784.321 498.941 783.687C504.563 779.986 510.449 775.976 516.476 772.175C532.306 762.109 549.141 753.375 567.835 747.23C593.468 738.806 619.954 738.559 646.716 744.792C657.714 747.389 668.387 751.079 679.18 754.252C679.001 754.501 678.901 754.757 678.795 755.078Z" fill="#016C47"/>
<path d="M837.29 752.965C828.998 752.299 821.211 751.279 813.43 751.182C807.949 751.138 803.527 749.794 798.788 747.437C775.016 735.643 749.423 728.712 722.067 727.901C707.479 727.456 692.975 728.929 678.897 732.017C677.039 732.396 674.749 732.212 672.885 731.667C663.476 729.066 654.163 726.276 644.454 723.454C676.63 712.721 710.098 709.672 744.714 716.075C778.625 722.355 809.979 733.768 837.29 752.965Z" fill="#016C47"/>
<path d="M61.867 737.282C67.7538 742.17 73.5615 747.052 79.6009 752.019C70.6051 762.106 61.0511 771.226 49.9174 779.231C30.4296 793.288 8.7249 804.268 -15.9182 811.254C-18.3609 811.981 -20.0298 811.979 -22.1149 810.23C-27.2645 806.06 -32.7509 802.126 -38.6007 797.768C4.44218 788.303 36.5905 767.023 61.867 737.282Z" fill="#016C47"/>
<path d="M37.4733 725.306C24.6771 740.164 9.31122 752.377 -9.0243 761.979C-24.954 770.324 -42.1319 776.393 -60.6053 779.788C-62.2215 780.12 -64.5749 779.734 -65.9438 778.965C-73.8521 774.507 -81.5815 769.801 -89.3161 765.16C-82.8985 764.422 -76.1913 764.038 -69.6632 762.914C-39.0339 757.594 -13.7495 744.595 7.67507 726.211C8.19093 725.725 8.85948 725.317 9.22266 724.753C12.1965 720.378 16.9189 719.966 22.3049 721.189C25.5797 721.979 28.944 722.645 32.2135 723.5C33.8404 724.026 35.5357 724.69 37.4733 725.306Z" fill="#016C47"/>
<path d="M59.1344 735.679C49.4281 747.687 38.337 758.133 25.2135 767.165C6.3678 780.153 -14.6685 789.736 -38.4642 795.077C-40.728 795.554 -42.2285 795.434 -44.1082 794.097C-49.284 790.254 -54.6335 786.595 -59.2986 783.321C-47.801 779.695 -35.8559 776.436 -24.3795 772.084C1.27928 762.344 21.8725 747.387 38.6272 728.761C40.5433 726.673 41.9068 726.519 44.3498 727.77C47.4036 729.333 50.5521 730.706 53.6007 732.335C55.3592 733.201 57.0178 734.323 59.1344 735.679Z" fill="#016C47"/>
<path d="M81.5804 754.089C86.4826 759.36 91.2427 764.421 96.4399 769.979C89.0176 776.304 82.0692 782.668 74.5205 788.587C53.8379 804.657 29.3956 816.076 3.57894 825.803C1.12046 826.726 -0.606428 826.456 -2.5441 824.85C-7.0302 821.326 -11.6952 818.052 -16.95 814.203C24.0025 803.055 56.2299 782.769 81.5804 754.089Z" fill="#016C47"/>
<path d="M9.98023 720.267C-14.5288 742.423 -42.9086 757.349 -78.8397 761.387C-83.7306 761.917 -88.7478 762.042 -93.7651 762.166C-94.8812 762.209 -96.1185 761.78 -97.1136 761.305C-103.395 758.362 -109.676 755.419 -115.784 752.293C-117.542 751.427 -119.017 749.99 -120.338 748.632C-122.76 746.131 -124.935 743.518 -127.342 740.82C-120.903 741.798 -114.637 742.96 -108.346 743.794C-81.9218 747.298 -57.6731 743.246 -35.6369 731.107C-23.1658 724.264 -9.12539 720.645 6.01063 720.212C7.13199 720.104 8.15863 720.186 9.98023 720.267Z" fill="#016C47"/>
<path d="M890.129 768.013C878.425 764.306 866.378 759.912 853.906 756.868C846.113 754.925 839.927 751.792 833.835 747.48C818.413 736.62 800.57 729.19 782.084 722.83C775.045 720.42 767.816 718.39 760.524 716.157C773.558 708.239 787.983 707.748 802.32 713.315C829.609 723.875 855.108 736.928 876.038 755.414C880.935 759.762 885.832 764.109 890.129 768.013Z" fill="#016C47"/>
<path d="M681.509 734.138C722.693 726.04 761.953 732.024 798.398 750.306C785.679 752.317 772.555 754.428 759.362 756.401C757.593 756.655 755.455 756.549 753.749 756.017C742.951 752.909 732.042 751.177 720.749 751.26C716.932 751.283 713.821 750.44 710.472 748.59C700.942 743.541 691.144 738.866 681.509 734.138Z" fill="#016C47"/>
<path d="M528.398 786.05C563.472 760.984 603.02 752.491 648.551 763.526C642.149 766.045 635.69 768.295 629.425 771.088C621.429 774.664 613.89 777.487 603.724 776.407C587.961 774.747 573.357 779.442 559.917 785.482C552.905 788.676 546.414 790.33 538.511 787.785C535.573 786.758 532.167 786.616 528.398 786.05Z" fill="#016C47"/>
<path d="M77.8574 714.31C114.815 707.388 146.989 716.495 177.574 734.504C168.451 737.265 160.054 739.887 151.442 742.228C150.141 742.585 148.135 741.831 146.672 741.252C136.436 737.069 126.033 733.005 114.782 732.564C105.511 732.215 98.7449 729.366 92.5001 723.987C88.2562 720.417 82.991 717.688 77.8574 714.31Z" fill="#016C47"/>
<path d="M601.775 807.624C628.656 797.522 652.961 783.851 681.515 777.64C690.334 775.711 699.31 774.783 708.834 774.954C682.512 789.979 656.818 805.12 627.174 815.001C622.683 816.486 619.014 816.653 614.849 814.078C610.989 811.659 606.519 809.916 601.775 807.624Z" fill="#016C47"/>
<path d="M340.225 845.036C331.654 849.819 323.658 854.384 315.419 858.996C306.768 850.92 298.496 843.072 290.134 835.348C276.449 822.65 262.333 810.379 244.695 801.384C241.109 799.514 237.429 797.835 233.222 795.784C252.559 797.467 268.723 804.037 282.761 814.325C295.976 823.953 309.471 833.077 325.324 839.556C329.947 841.377 334.665 843.008 340.225 845.036Z" fill="#016C47"/>
<path d="M97.5459 772.045C102.38 777.179 106.913 782.09 111.742 787.289C108.725 788.233 105.793 789.119 102.861 790.004C82.3241 796.331 63.6305 805.443 45.5793 815.463C35.0981 821.279 24.2589 826.605 13.704 832.349C10.9614 833.843 9.13449 833.828 6.99143 831.811C5.95939 830.805 4.75364 829.983 3.33199 828.881C39.7828 815.393 72.7005 798.393 97.5459 772.045Z" fill="#016C47"/>
<path d="M610.489 780.246C597.855 785.164 585.22 790.082 572.512 794.928C571.612 795.252 570.411 795.353 569.474 795.146C564.731 793.843 560.003 792.343 554.643 790.792C572.047 782.895 589.599 777.119 609.789 779.069C610 779.415 610.205 779.827 610.489 780.246Z" fill="#016C47"/>
<path d="M124.367 753.765C118.138 747.201 112.272 741.062 106.112 734.636C120.579 734.611 133.457 738.544 146.214 743.983C138.871 747.349 131.701 750.53 124.367 753.765Z" fill="#016C47"/>
<defs>
<clipPath id="clip0_2003_2">
<rect width="157" height="151" fill="white" transform="translate(-34 672)"/>
</clipPath>
<clipPath id="clip1_2003_2">
<rect width="157" height="151" fill="white" transform="translate(154 358)"/>
</clipPath>
<clipPath id="clip2_2003_2">
<rect width="157" height="151" fill="white" transform="translate(978 439)"/>
</clipPath>
<clipPath id="clip3_2003_2">
<rect width="265.373" height="90.7092" fill="white" transform="translate(-160.898 240.163) rotate(-19.5585)"/>
</clipPath>
<clipPath id="clip4_2003_2">
<rect width="265.373" height="90.7092" fill="white" transform="translate(1227 428.839) rotate(-19.5585)"/>
</clipPath>
<clipPath id="clip5_2003_2">
<rect width="265.373" height="90.7092" fill="white" transform="translate(1191.4 674.474) rotate(31.2976)"/>
</clipPath>
<clipPath id="clip6_2003_2">
<rect width="265.373" height="90.7092" fill="white" transform="translate(13.1219 -64) rotate(31.2976)"/>
</clipPath>
</defs>
</svg>
