<svg width="387" height="757" viewBox="0 0 387 757" fill="none" xmlns="http://www.w3.org/2000/svg">
<g opacity="0.79" clip-path="url(#clip0_2006_3)">
<path d="M420.447 282.47C421.73 279.955 423.089 277.465 424.272 274.899C426.336 270.423 427.745 265.745 428.047 260.815C428.399 255.156 427.217 249.975 422.989 245.876C420.195 243.185 416.621 242.078 412.922 241.399C403.736 239.764 394.928 241.299 386.396 244.769C372.605 250.378 361.406 259.407 352.22 271.001C348.671 275.478 346.306 280.508 346.129 286.368C346.054 288.606 346.255 290.819 347.841 293.008C342.732 291.046 338.126 288.983 335.207 284.431C333.848 282.319 333.924 279.98 334.553 277.641C336.063 272.133 338.982 267.329 342.531 262.953C353.881 249.02 367.823 238.482 384.911 232.345C392.839 229.503 401.018 228.12 409.449 228.673C415.363 229.05 421.151 230.182 426.487 232.974C432.426 236.067 435.496 241.123 435.924 247.687C436.704 259.91 432.074 270.146 424.046 279.049C422.938 280.281 421.806 281.489 420.673 282.721C420.598 282.646 420.522 282.57 420.447 282.47Z" fill="#016845"/>
<path d="M433.634 232.27C432.351 229.629 431.294 227.19 429.985 224.876C426.864 219.443 422.259 216.098 415.942 215.218C411.135 214.564 406.429 215.143 401.773 216.375C391.556 219.091 382.621 224.171 374.694 231.138C374.014 231.742 373.209 232.22 372.404 232.647C363.847 237.023 355.819 242.104 349.099 249.045C349.024 249.121 348.898 249.171 348.521 249.397C349.175 247.561 349.678 245.926 350.333 244.367C358.21 225.756 371.926 213.407 390.801 206.516C397.143 204.202 403.661 202.869 410.456 203.045C413.677 203.121 416.898 203.498 419.944 204.63C426.336 206.994 429.834 211.948 431.822 218.161C433.282 222.662 433.81 227.315 433.634 232.27Z" fill="#016845"/>
<path d="M412.721 197.588C408.669 197.965 404.516 198.065 400.49 198.82C397.52 199.373 395.18 198.795 392.487 197.562C379.601 191.677 367.194 193.086 355.618 201.008C352.497 203.146 349.88 205.988 347.011 208.478C346.532 208.905 345.954 209.308 345.35 209.484C339.914 211.169 334.553 213.055 329.318 215.947C329.52 215.394 329.62 215.042 329.797 214.69C337.9 197.386 351.239 186.471 370.164 183.352C386.145 180.737 400.188 185.541 411.966 196.758C412.268 197.059 412.57 197.411 412.721 197.588Z" fill="#016845"/>
<path d="M374.392 284.029C384.106 282.973 392.084 278.722 398.35 271.353C404.592 264.009 406.957 255.131 408.115 245.675C412.947 245.977 417.427 246.832 420.623 250.805C421 251.258 421.151 252.038 421.126 252.641C420.296 264.789 415.262 275.025 406.781 283.601C401.446 289.009 395.204 293.058 387.856 295.271C384.785 296.202 382.319 295.523 380.104 293.259C377.663 290.744 375.197 286.921 374.392 284.029Z" fill="#016845"/>
<path d="M403.158 245.801C402.151 249.372 400.666 252.516 398.829 255.509C394.752 262.224 389.215 267.531 382.999 272.183C373.662 279.175 363.52 284.532 352.095 287.248C351.692 287.349 351.289 287.424 350.534 287.575C350.987 285.588 351.264 283.727 351.793 281.967C353.101 277.691 355.618 274.095 358.663 270.876C358.94 270.599 359.317 270.373 359.72 270.247C369.812 266.525 377.966 260.212 384.484 251.686C384.987 251.032 385.717 250.428 386.472 250.101C391.732 247.788 397.269 246.555 403.158 245.801Z" fill="#016845"/>
<path d="M343.311 249.774C341.927 244.77 341.625 240.016 342.002 235.238C342.556 227.818 344.67 220.826 348.898 214.64C355.038 205.686 363.394 200.178 374.367 199.046C378.318 198.644 386.396 200.002 389.441 201.687C378.343 205.611 368.528 211.295 360.424 219.921C352.371 228.497 346.381 238.105 343.311 249.774Z" fill="#016845"/>
<path d="M342.153 215.696C340.97 219.016 339.637 222.335 338.58 225.731C337.95 227.718 337.774 229.83 337.321 231.867C337.221 232.295 336.994 232.873 336.642 233.075C331.357 236.319 328.79 241.374 327.305 247.134C326.248 251.258 325.896 255.458 326.072 259.91C325.745 259.608 325.518 259.457 325.342 259.256C316.735 249.372 315.653 232.069 329.57 221.858C333.471 218.99 337.774 217.054 342.153 215.696Z" fill="#016845"/>
<path d="M332.766 269.014C328.916 259.005 331.105 244.971 336.717 239.111C336.919 241.274 337.044 243.412 337.372 245.524C337.95 249.347 338.982 253.019 340.643 256.54C340.794 256.867 340.719 257.546 340.492 257.797C337.321 261.067 334.654 264.663 332.766 269.014Z" fill="#016845"/>
</g>
<path d="M331.113 754.391C307.089 736.788 285.938 716.515 259.28 701.387C241.219 691.125 221.709 683.676 199.863 681.071C176.037 678.318 153.431 681.62 131.735 689.922C110.437 698.096 91.8038 709.773 72.7016 720.724C63.6282 725.908 54.2405 730.76 44.9304 735.811C38.782 731.885 33.1068 728.226 27.1163 724.368C35.2369 719.439 43.3565 714.642 51.3187 709.713C67.7216 699.463 83.5747 688.617 101.783 680.419C131.76 666.927 163.512 659.296 198.039 661.477C222.824 663.055 245.345 670.528 266.413 681.274C282.43 689.483 295.733 700.365 308.877 711.245C327.059 726.238 345.161 741.297 366.377 753.424C366.85 753.691 367.163 754.219 367.634 754.683C355.434 754.585 343.234 754.488 331.113 754.391Z" fill="#016C47"/>
<path d="M24.5194 751.942C13.6659 751.855 2.89154 751.769 -7.96203 751.682C-11.5066 749.092 -14.8917 746.371 -18.5165 743.911C-41.8416 728.088 -65.2476 712.461 -91.612 700.227C-110.872 691.269 -131.187 685.391 -153.281 684.097C-184.008 682.341 -212.345 688.947 -238.67 701.483C-252.349 708.009 -265.088 715.792 -278.453 722.715C-288.955 728.216 -299.772 733.451 -311.995 736.113C-311.946 730.003 -311.896 723.828 -311.848 717.718C-293.412 710.835 -276.7 701.639 -260.066 692.179C-249.799 686.348 -239.06 680.915 -227.853 676.406C-198.125 664.291 -166.721 660.6 -134.122 666.051C-107.22 670.536 -82.5763 679.931 -60.8173 693.443C-37.1658 708.086 -14.794 724.23 7.97864 739.786C13.7315 743.643 19.0851 747.891 24.5194 751.942Z" fill="#016C47"/>
<path d="M-311.67 695.381C-292.673 687.78 -275.323 677.932 -257.736 668.283C-239.354 658.18 -219.72 650.058 -198.057 645.895C-165.364 639.521 -134.022 643.516 -103.608 654.665C-72.2467 666.217 -44.1677 682.012 -17.2104 699.376C9.51085 716.54 36.3118 733.639 63.0336 750.738C63.7429 751.204 64.3725 751.734 65.0021 752.265C53.6732 752.174 42.265 752.083 30.9361 751.993C26.9167 749.333 22.8974 746.672 18.878 744.012C-4.91934 727.791 -28.2377 711.114 -52.5156 695.546C-80.3406 677.715 -111.137 664.92 -146.684 661.614C-167.031 659.743 -186.928 661.095 -206.46 666.261C-229.722 672.383 -250.167 682.797 -269.673 694.731C-282.731 702.708 -296.885 709.23 -311.823 714.564C-311.771 708.06 -311.721 701.753 -311.67 695.381Z" fill="#016C47"/>
<path d="M293.878 754.093C285.843 748.313 277.888 742.402 269.693 736.752C256.062 727.379 241.791 718.658 225.678 712.42C194.243 700.276 163.095 701.604 132.885 714.635C117.143 721.408 102.42 729.7 87.1481 737.199C80.6256 740.432 73.9456 743.532 67.3439 746.765C65.1965 747.799 63.3738 747.85 61.2458 746.453C56.7542 743.395 52.1026 740.533 46.9788 737.272C73.7925 723.032 99.5023 708.126 126.779 695.401C163.441 678.217 201.465 678.85 239.131 694.656C255.002 701.353 269.433 709.813 282.346 719.902C297.07 731.386 311.714 742.935 326.438 754.419C315.506 754.266 304.731 754.18 293.878 754.093Z" fill="#016C47"/>
<path d="M375.478 754.745C387.992 745.253 400.351 735.496 413.18 726.335C432.86 712.366 453.954 700.051 478.104 691.966C512.264 680.544 546.557 682.066 580.616 693.113C602.032 700.052 620.881 710.846 640.373 720.594C646.133 723.465 651.735 726.467 657.731 729.537C651.276 734.216 645.06 738.765 638.766 743.117C638.129 743.572 636.152 743.162 635.125 742.694C623.446 736.95 612.006 730.88 600.246 725.267C583.356 717.116 565.905 709.816 546.681 706.245C511.873 699.726 479.74 705.448 450.061 721.308C432.636 730.564 417.963 742.47 404.076 755.105C394.491 754.897 384.984 754.821 375.478 754.745Z" fill="#016C47"/>
<path d="M70.4684 752.309C69.4448 751.512 68.4212 750.715 67.6347 749.986C79.886 743.711 92.217 737.371 104.469 731.03C118.947 723.656 133.347 716.215 149.468 711.482C177.66 703.232 204.654 706.141 230.707 717.584C246.735 724.545 260.763 733.856 274.392 743.557C279.277 747.012 284.161 750.534 289.045 754.055C276.369 753.954 263.694 753.852 251.018 753.751C241.332 746.381 230.206 740.707 218.359 736.079C196.323 727.428 173.685 724.75 150.178 731.658C132.707 736.775 116.958 744.599 101.286 752.555C91.0664 752.473 80.7674 752.391 70.4684 752.309Z" fill="#016C47"/>
<path d="M143.354 752.891C131.471 752.796 119.588 752.701 107.704 752.606C118.756 747.635 129.653 742.335 141.019 737.827C158.187 730.999 176.347 728.845 195.255 732.281C213.451 735.58 229.159 742.867 243.822 752.051C244.532 752.451 245.002 753.177 245.552 753.707C231.53 753.595 217.587 753.484 203.564 753.372C190.846 748.671 177.635 746.135 163.835 747.93C156.856 748.794 150.182 751.171 143.354 752.891Z" fill="#016C47"/>
<path d="M152.069 752.96C165.57 748.863 179.037 749.102 192.473 753.283C179.005 753.176 165.537 753.068 152.069 752.96Z" fill="#016C47"/>
<path d="M350.479 740.091C344.65 735.905 338.82 731.72 333.621 727.999C352.11 714.415 370.282 700.894 388.691 687.507C415.068 668.401 444.499 653.788 478.472 645.847C516.652 636.954 554.269 639.028 591.42 649.837C619.481 658.011 645.053 670.239 670.304 682.989C682.456 689.131 694.849 694.946 707.082 700.825C700.24 704.384 693 708.203 685.602 711.823C684.728 712.21 682.909 711.736 681.804 711.201C664.759 702.656 647.874 693.914 630.829 685.368C612.207 675.955 593.022 667.523 571.746 662.951C536.075 655.308 501.504 658.711 467.587 669.544C441.852 677.748 419.881 690.713 399.165 705.396C383.946 716.18 368.885 727.098 353.745 737.949C352.867 738.731 351.753 739.313 350.479 740.091Z" fill="#016C47"/>
<path d="M352.922 741.754C373.797 727.006 393.88 712.318 414.67 698.424C441.274 680.634 471.241 668.39 505.347 663.604C540.644 658.63 574.359 663.17 605.781 676.955C627.414 686.458 647.923 697.725 668.993 708.209C673.018 710.212 677.122 712.216 681.147 714.153C674.696 718.372 668.244 722.723 661.635 726.809C660.839 727.262 658.704 726.72 657.599 726.185C640.633 717.706 623.986 708.9 606.86 700.616C584.762 689.862 561.131 682.512 535.312 681.386C508.226 680.184 482.752 685.368 459.132 696.48C431.695 709.401 407.401 725.698 385.148 744.245C381.638 747.173 377.735 749.836 373.832 752.367C373.036 752.886 370.975 753.001 370.187 752.535C364.43 749.138 358.992 745.547 352.922 741.754Z" fill="#016C47"/>
<path d="M125.259 667.597C118.969 661.568 112.047 655.206 105.444 648.714C94.2024 637.718 82.4816 627.178 68.0478 619.047C40.5994 603.65 5.04238 601.592 -24.4051 618.243C-32.7618 622.972 -41.2759 627.569 -50.1809 631.505C-61.3913 636.409 -73.8456 638.346 -86.8455 639.162C-67.6168 622.299 -47.3682 606.693 -21.7035 597.437C21.918 581.754 62.6717 587.861 100.277 611.223C114.152 619.809 124.758 631.129 136.321 641.602C143.243 647.899 150.882 653.676 158.359 659.78C147.167 662.385 136.769 664.864 125.259 667.597Z" fill="#016C47"/>
<path d="M148.381 649.254C166.517 640.201 185.036 632.859 204.884 627.696C229.179 621.32 252.777 622.756 276.408 630.107C291.503 634.761 305.156 641.44 318.728 648.447C337.348 658.188 356.128 667.733 376.913 674.207C383.078 676.096 389.324 677.722 395.49 679.414C390.63 682.858 385.77 686.17 381.147 689.681C378.835 691.436 376.853 691.617 373.848 690.936C347.669 685.208 325.022 673.727 302.618 661.656C288.497 654.053 273.734 647.496 257.118 644.67C231.879 640.329 207.767 643.684 185.343 653.952C178.822 656.922 172.31 658.906 164.939 659.176C163.988 659.234 162.72 659.29 162.011 658.824C157.281 655.764 152.871 652.509 148.381 649.254Z" fill="#016C47"/>
<path d="M419.615 664.627C413.406 668.322 406.638 672.539 399.634 676.491C398.6 677.074 396.385 676.596 394.882 676.256C372.817 671.283 352.682 662.844 333.351 652.769C317.729 644.628 302.268 636.226 285.282 630.112C267.981 623.929 250.266 619.845 231.245 620.679C215.869 621.345 201.343 624.842 187.517 629.856C174.644 634.55 162.241 640.035 149.681 645.322C146.819 646.548 145.076 646.534 143.033 644.349C140.519 641.701 137.607 639.313 134.775 636.728C163.351 620.137 194.183 608.688 228.986 605.944C251.501 604.153 273.02 608.069 293.558 615.724C312.121 622.705 329.16 631.908 346.281 640.914C362.218 649.32 378.795 656.877 397.063 661.162C404.574 663.061 412.493 663.585 419.615 664.627Z" fill="#016C47"/>
<path d="M297.374 614.112C310.737 607.517 324.366 607.232 337.952 612.465C344.349 614.947 350.184 618.41 356.1 621.677C366.985 627.808 377.148 635.051 388.593 640.333C407.381 648.893 429.506 646.441 443.854 635.518C451.267 629.861 455.602 622.866 455.827 614.524C455.948 609.203 455.358 603.81 454.766 598.484C454.248 593.946 456.334 590.744 461.176 589.6C465.382 588.648 469.964 590.393 471.676 594.283C478.29 609.25 478.341 632.64 460.398 647.214C459.202 648.19 457.612 648.834 456.102 649.413C446.643 653.28 437.419 657.477 427.649 660.618C423.439 661.964 418.133 661.79 413.462 661.293C395.649 659.574 379.374 653.859 363.904 646.508C349.855 639.826 336.287 632.359 322.399 625.415C314.27 621.474 305.978 617.991 297.374 614.112Z" fill="#016C47"/>
<path d="M1.1876 588.093C28.2599 571.227 56.7252 558.511 89.8756 554.374C121.678 550.357 151.505 555.589 179.61 568.165C201.478 577.933 221.665 589.986 241.607 602.825C236.217 603.111 231.069 602.873 226.229 603.754C219.326 605.078 214.193 602.935 208.751 599.869C193.292 591.073 177.514 582.603 159.81 577.205C133.965 569.378 107.448 566.341 80.2308 571.576C67.138 574.1 55.371 579.262 43.9954 585.018C42.2451 585.924 39.8648 586.365 37.8055 586.283C25.8433 586.122 13.8843 585.566 1.1876 588.093Z" fill="#016C47"/>
<path d="M375.409 693.905C369.51 698.392 364.408 702.424 359.148 706.193C358.033 706.973 355.733 707.217 354.231 706.877C337.308 702.931 321.91 696.435 307.638 687.845C297.388 681.719 287.378 675.134 275.445 671.294C264.145 667.59 252.515 665.526 240.306 666.546C239.276 666.603 238.167 666.528 237.218 666.258C220.068 660.996 202.426 657.767 182.775 658.07C193.035 653.093 202.806 649.821 213.122 647.801C240.022 642.562 265.103 646.902 288.782 658.129C297.937 662.473 306.933 667.078 315.768 671.879C334.072 681.552 353.34 689.459 375.409 693.905Z" fill="#016C47"/>
<path d="M46.9919 586.882C58.133 580.729 70.9268 575.97 85.125 573.915C121.772 568.492 155.469 575.265 186.794 591.35C195.473 595.821 204.072 600.489 212.829 605.158C205.13 606.936 197.906 608.652 190.684 610.171C189.415 610.424 187.675 609.95 186.412 609.349C172.049 602.335 157.041 596.696 140.586 593.608C120.808 589.968 101.393 590.47 82.2525 596.296C80.9025 596.68 79.1586 596.797 77.8149 596.392C67.3816 593.286 57.0291 589.984 46.9919 586.882Z" fill="#016C47"/>
<path d="M69.2077 622.604C75.4312 627.056 81.5754 631.507 87.9568 636.026C79.7108 646.735 70.8383 656.519 60.31 665.305C41.885 680.729 21.0273 693.242 -3.04869 701.986C-5.43273 702.886 -7.09746 703.004 -9.30311 701.41C-14.7396 697.622 -20.4951 694.093 -26.6435 690.168C15.6061 677.628 46.1385 654.088 69.2077 622.604Z" fill="#016C47"/>
<path d="M44.0144 612.416C32.3213 628.157 17.8748 641.444 0.278352 652.342C-15.0091 661.812 -31.7053 669.103 -49.8862 673.819C-51.4743 674.267 -53.8495 674.05 -55.2702 673.382C-63.479 669.506 -71.5272 665.368 -79.5759 661.296C-73.2281 660.098 -66.566 659.232 -60.1358 657.641C-29.9691 650.129 -5.6864 635.343 14.3587 615.464C14.8382 614.942 15.4757 614.488 15.7973 613.899C18.4484 609.321 23.1289 608.57 28.589 609.402C31.9121 609.954 35.3156 610.375 38.6382 610.993C40.2987 611.401 42.0375 611.94 44.0144 612.416Z" fill="#016C47"/>
<path d="M66.366 621.202C57.5496 633.877 47.2396 645.096 34.8005 655.049C16.939 669.36 -3.3526 680.433 -26.7019 687.474C-28.9254 688.113 -30.4307 688.101 -32.4018 686.903C-37.8409 683.443 -43.44 680.179 -48.3288 677.249C-37.1221 672.805 -25.4427 668.693 -14.3095 663.526C10.5813 651.964 30.044 635.563 45.4139 615.778C47.1746 613.559 48.5235 613.307 51.0503 614.378C54.2087 615.717 57.4479 616.86 60.6058 618.265C62.4222 619.002 64.1572 620.002 66.366 621.202Z" fill="#016C47"/>
<path d="M90.0798 637.948C95.3489 642.852 100.461 647.557 106.045 652.727C99.0976 659.57 92.6254 666.417 85.5226 672.865C66.0509 690.383 42.4944 703.532 17.4451 715.092C15.0595 716.19 13.3176 716.045 11.2694 714.583C6.54119 711.392 1.65246 708.462 -3.86586 705.001C36.1775 690.932 66.8606 668.379 90.0798 637.948Z" fill="#016C47"/>
<path d="M16.23 609.369C-6.61995 633.233 -33.8512 650.164 -69.3983 656.778C-74.2383 657.659 -79.2335 658.145 -84.2288 658.631C-85.3389 658.753 -86.6039 658.415 -87.6307 658.012C-94.1075 655.53 -100.584 653.047 -106.901 650.368C-108.718 649.631 -110.292 648.305 -111.708 647.045C-114.304 644.725 -116.661 642.275 -119.255 639.758C-112.763 640.269 -106.43 640.977 -100.095 641.356C-73.4869 642.948 -49.593 637.16 -28.4881 623.466C-16.5422 615.743 -2.79881 611.122 12.2667 609.6C13.3774 609.412 14.4073 609.42 16.23 609.369Z" fill="#016C47"/>
<path d="M83.5017 598.54C119.865 588.975 152.611 595.741 184.414 611.501C175.513 614.912 167.327 618.132 158.905 621.087C157.634 621.536 155.579 620.929 154.077 620.457C143.567 617.022 132.898 613.717 121.645 614.087C112.372 614.408 105.419 612.052 98.8033 607.138C94.3133 603.882 88.8653 601.539 83.5017 598.54Z" fill="#016C47"/>
<path d="M354.602 710.033C346.398 715.421 338.751 720.55 330.866 725.743C321.656 718.311 312.84 711.079 303.944 703.978C289.38 692.298 274.416 681.075 256.176 673.374C252.465 671.767 248.674 670.357 244.33 668.614C263.739 668.901 280.334 674.289 295.075 683.54C308.95 692.192 323.067 700.32 339.346 705.641C344.088 707.124 348.91 708.411 354.602 710.033Z" fill="#016C47"/>
<path d="M107.297 654.708C112.488 659.48 117.364 664.052 122.554 668.89C119.614 670.049 116.753 671.143 113.892 672.237C93.8639 680.027 75.875 690.461 58.5922 701.755C48.5571 708.311 38.1295 714.403 28.0157 720.893C25.3877 722.58 23.5645 722.697 21.2817 720.839C20.18 719.91 18.9182 719.177 17.4208 718.18C52.8058 702.103 84.4138 682.776 107.297 654.708Z" fill="#016C47"/>
<path d="M132.732 634.544C126.047 628.446 119.754 622.745 113.146 616.779C127.574 615.712 140.702 618.707 153.818 623.214C146.736 627.1 139.813 630.789 132.732 634.544Z" fill="#016C47"/>
<g opacity="0.79">
<path d="M-55.6139 289.355C-52.0323 290.174 -48.5399 289.611 -45.0893 288.666C-44.7623 288.573 -44.1307 288.75 -43.9323 289.022C-33.0504 303.268 -9.18644 313.254 14.9985 305.788C40.2161 297.988 57.152 272.537 54.2144 246.276C53.9062 243.42 53.1312 240.597 52.4946 237.781C52.3508 237.156 52.3844 236.815 52.9043 236.377C55.5866 234.088 58.0285 231.549 59.3681 227.898C60.1796 229.678 60.9213 231.225 61.6099 232.773C70.4937 252.719 67.7547 285.045 43.746 305.386C27.38 319.264 8.47662 324.677 -12.7501 320.46C-27.1072 317.632 -39.3602 310.721 -48.9109 299.433C-51.4774 296.376 -53.5338 292.913 -55.8194 289.626C-55.7578 289.539 -55.6754 289.442 -55.6139 289.355Z" fill="#016845"/>
<path d="M-40.8156 287.095C-38.195 285.701 -35.6276 284.309 -33.0364 283.013C-32.7638 282.868 -32.142 283.076 -31.8807 283.315C-26.6621 287.82 -20.6914 291.008 -14.0286 292.615C-1.35552 295.664 10.631 293.982 21.4909 286.59C33.3223 278.548 40.0241 267.381 40.9341 252.959C41.0225 251.456 40.9404 249.936 40.8275 248.459C40.7258 247.003 40.4759 245.573 40.2694 244.173C43.2673 242.579 46.2443 240.996 49.347 239.346C51.8858 248.269 51.6491 257.13 49.2114 265.948C45.4437 279.598 37.4409 290.189 25.3317 297.355C-1.45147 313.185 -29.692 301.644 -40.8156 287.095Z" fill="#016845"/>
<path d="M36.9018 245.128C37.9378 249.808 37.7956 254.547 36.6739 259.215C34.1352 269.866 28.1983 278.172 19.0115 284.108C9.08247 290.519 -1.69797 291.991 -13.0854 289.337C-19.3514 287.87 -24.8722 284.82 -29.775 280.605C-27.1876 277.531 -24.61 274.489 -22.0227 271.415C-12.0209 277.987 -1.42416 279.255 9.4047 273.525C20.2447 267.815 25.2385 258.393 25.3473 246.257C29.1848 245.888 32.9693 245.52 36.9018 245.128Z" fill="#016845"/>
<path d="M36.6153 225.57C41.3127 223.126 46.1833 221.211 51.5929 221.219C52.103 221.218 52.6243 221.237 53.1357 221.289C56.0676 221.644 57.4883 223.962 56.4117 226.692C55.3252 229.453 53.318 231.545 51.0817 233.408C45.4027 238.153 39.0631 241.604 31.6855 242.75C30.0029 243.024 28.203 242.876 26.5163 242.586C24.1351 242.154 23.0371 240.392 23.8062 238.096C24.3082 236.562 25.1079 235.031 26.1269 233.761C28.9785 230.223 32.6097 227.646 36.6153 225.57Z" fill="#016845"/>
<path d="M325.974 -38.6163C325.982 -34.9424 324.662 -31.6603 322.979 -28.5035C322.816 -28.2051 322.848 -27.5501 323.07 -27.2965C334.562 -13.5381 339.034 11.9416 326.413 33.8816C313.238 56.7552 284.677 67.6547 259.712 58.9921C256.995 58.0611 254.412 56.6819 251.806 55.4394C251.229 55.1612 250.888 55.1186 250.346 55.529C247.522 57.6398 244.507 59.4611 240.65 59.9616C242.206 61.146 243.551 62.2109 244.909 63.2242C262.402 76.292 294.535 80.7571 319.674 61.8311C336.823 48.9326 346.276 31.6906 346.849 10.0567C347.261 -4.57039 343.224 -18.0469 334.324 -29.8538C331.909 -33.0319 328.985 -35.802 326.284 -38.7569C326.186 -38.716 326.072 -38.6572 325.974 -38.6163Z" fill="#016845"/>
<path d="M320.502 -24.6821C318.564 -22.4338 316.64 -20.2369 314.803 -17.996C314.602 -17.7621 314.668 -17.1096 314.843 -16.8021C318.084 -10.7178 319.876 -4.1905 319.972 2.66271C320.148 15.6962 315.862 27.0157 306.255 35.9759C295.799 45.7398 283.429 49.8113 269.161 47.5149C267.676 47.2693 266.211 46.8536 264.796 46.4175C263.399 45.997 262.058 45.4374 260.738 44.9269C258.522 47.499 256.321 50.0531 254.027 52.7151C262.169 57.1609 270.864 58.8862 280.002 58.4554C294.148 57.7941 306.244 52.3267 315.906 42.0983C337.259 19.4707 332.236 -10.6211 320.502 -24.6821Z" fill="#016845"/>
<path d="M262.414 41.8532C266.75 43.8967 271.404 44.8044 276.204 44.7407C287.153 44.616 296.565 40.6593 304.382 33.0095C312.827 24.7408 316.643 14.5513 316.568 2.85891C316.52 -3.57644 314.764 -9.63434 311.736 -15.3466C308.166 -13.5017 304.63 -11.6593 301.061 -9.81437C305.263 1.39145 304.16 12.0067 296.181 21.3033C288.219 30.6155 277.927 33.406 266.066 30.8329C264.859 34.4944 263.665 38.1043 262.414 41.8532Z" fill="#016845"/>
<path d="M243.402 37.2563C239.982 41.2984 237.038 45.6259 235.852 50.904C235.738 51.4011 235.642 51.9138 235.58 52.424C235.279 55.362 237.226 57.2595 240.126 56.8119C243.059 56.3619 245.542 54.866 247.853 53.0961C253.735 48.6047 258.5 43.1834 261.246 36.2408C261.886 34.6603 262.138 32.872 262.228 31.163C262.332 28.7451 260.856 27.2852 258.447 27.5284C256.84 27.6794 255.17 28.1215 253.707 28.835C249.627 30.8352 246.311 33.8077 243.402 37.2563Z" fill="#016845"/>
</g>
<g opacity="0.79" clip-path="url(#clip1_2006_3)">
<path d="M14.8676 399.767C46.6605 431.56 78.4966 463.396 110.571 495.47C107.822 498.478 105.116 501.487 102.323 504.539C70.5304 472.746 39.0186 441.234 7.52855 409.744C9.9749 406.433 12.4212 403.121 14.8676 399.767Z" fill="#016845"/>
<path d="M112.672 490.86C111.59 489.779 110.509 488.697 109.449 487.638C79.0619 457.251 48.6965 426.885 18.2878 396.52C17.3361 395.568 17.2715 394.897 17.8129 393.664C19.3073 390.266 20.5853 386.782 21.9932 383.211C22.3393 383.514 22.7286 383.86 23.0963 384.228C54.1971 415.329 85.2979 446.43 116.42 477.509C117.199 478.287 117.523 478.958 117.133 480.04C115.834 483.675 114.577 487.311 113.321 490.946C113.083 490.925 112.888 490.903 112.672 490.86Z" fill="#016845"/>
<path d="M-6.30077 418.124C-2.14626 417.559 0.883836 415.308 3.95725 412.97C35.3392 444.352 66.6779 475.69 98.1464 507.159C94.424 509.151 90.6369 510.602 86.4616 509.327C84.9039 508.852 83.3682 507.749 82.1786 506.56C58.1285 482.553 34.0784 458.503 10.0282 434.453C4.98894 429.413 -0.0719634 424.352 -5.11124 419.313C-5.43566 418.989 -5.78171 418.643 -6.30077 418.124Z" fill="#016845"/>
<path d="M23.5151 364.473C35.086 376.044 46.6569 387.615 58.2278 399.186C75.8112 416.769 93.3513 434.439 111.043 451.915C116.125 456.911 118.438 462.73 118.479 469.697C118.478 470.649 118.672 471.623 118.802 472.575C118.607 472.596 118.412 472.661 118.218 472.683C117.893 472.402 117.569 472.164 117.266 471.861C86.1868 440.782 55.1293 409.725 24.0718 378.624C23.6608 378.213 23.2067 377.499 23.2935 376.98C23.8794 372.847 24.0759 368.714 23.5151 364.473Z" fill="#016845"/>
<path d="M3.26667 406.998C0.517788 409.401 -2.23102 411.631 -5.62856 412.952C-9.28579 414.404 -11.9684 413.409 -13.7628 409.927C-15.5355 406.509 -15.7936 402.787 -15.4675 399.044C-14.4238 386.84 -9.87557 375.977 -2.83946 366.086C-0.198227 362.406 2.85394 359.138 6.79281 356.843C11.2078 354.245 14.8856 355.368 17.0906 359.997C18.5606 363.069 18.9487 366.358 18.731 369.69C18.0123 380.833 14.2216 390.939 8.28923 400.289C6.75204 402.605 4.95529 404.748 3.26667 406.998Z" fill="#016845"/>
</g>
<defs>
<clipPath id="clip0_2006_3">
<rect width="117" height="113" fill="white" transform="translate(319 182.648)"/>
</clipPath>
<clipPath id="clip1_2006_3">
<rect width="172.843" height="59.081" fill="white" transform="translate(91.2188 515.644) rotate(-135)"/>
</clipPath>
</defs>
</svg>
