<svg width="29" height="29" viewBox="0 0 29 29" fill="none" xmlns="http://www.w3.org/2000/svg">
<circle cx="14.5" cy="14.5" r="14.5" fill="#E8C346"/>
<path d="M18.005 9.095C17.827 9.095 17.653 9.14778 17.505 9.24668C17.357 9.34557 17.2416 9.48613 17.1735 9.65058C17.1054 9.81504 17.0876 9.996 17.1223 10.1706C17.157 10.3452 17.2427 10.5055 17.3686 10.6314C17.4945 10.7573 17.6548 10.843 17.8294 10.8777C18.004 10.9124 18.185 10.8946 18.3494 10.8265C18.5139 10.7584 18.6544 10.643 18.7533 10.495C18.8522 10.347 18.905 10.173 18.905 9.995C18.905 9.7563 18.8102 9.52739 18.6414 9.3586C18.4726 9.18982 18.2437 9.095 18.005 9.095ZM21.455 10.91C21.4403 10.2877 21.3237 9.67209 21.11 9.0875C20.9202 8.58691 20.6232 8.13385 20.24 7.76C19.8686 7.37557 19.4147 7.08063 18.9125 6.8975C18.3295 6.67712 17.7131 6.55791 17.09 6.545C16.295 6.5 16.04 6.5 14 6.5C11.96 6.5 11.705 6.5 10.91 6.545C10.2869 6.55791 9.67051 6.67712 9.0875 6.8975C8.58648 7.08294 8.13302 7.37756 7.76 7.76C7.37557 8.13138 7.08063 8.58533 6.8975 9.0875C6.67712 9.67051 6.55791 10.2869 6.545 10.91C6.5 11.705 6.5 11.96 6.5 14C6.5 16.04 6.5 16.295 6.545 17.09C6.55791 17.7131 6.67712 18.3295 6.8975 18.9125C7.08063 19.4147 7.37557 19.8686 7.76 20.24C8.13302 20.6224 8.58648 20.9171 9.0875 21.1025C9.67051 21.3229 10.2869 21.4421 10.91 21.455C11.705 21.5 11.96 21.5 14 21.5C16.04 21.5 16.295 21.5 17.09 21.455C17.7131 21.4421 18.3295 21.3229 18.9125 21.1025C19.4147 20.9194 19.8686 20.6244 20.24 20.24C20.6242 19.8669 20.9213 19.4136 21.11 18.9125C21.3237 18.3279 21.4403 17.7123 21.455 17.09C21.455 16.295 21.5 16.04 21.5 14C21.5 11.96 21.5 11.705 21.455 10.91ZM20.105 17C20.0997 17.4761 20.0135 17.9478 19.85 18.395C19.7302 18.7214 19.5379 19.0163 19.2875 19.2575C19.0441 19.5052 18.7498 19.6971 18.425 19.82C17.9778 19.9835 17.5061 20.0697 17.03 20.075C16.28 20.1125 16.0025 20.12 14.03 20.12C12.0575 20.12 11.78 20.12 11.03 20.075C10.5356 20.0847 10.0433 20.0086 9.575 19.85C9.26464 19.7205 8.98393 19.5291 8.75 19.2875C8.50107 19.0466 8.31113 18.7514 8.195 18.425C8.01128 17.9715 7.9097 17.489 7.895 17C7.895 16.25 7.85 15.9725 7.85 14C7.85 12.0275 7.85 11.75 7.895 11C7.89774 10.5132 7.98661 10.0308 8.1575 9.575C8.28954 9.25843 8.4922 8.97624 8.75 8.75C8.97719 8.49139 9.25897 8.28646 9.575 8.15C10.032 7.98461 10.514 7.89837 11 7.895C11.75 7.895 12.0275 7.85 14 7.85C15.9725 7.85 16.25 7.85 17 7.895C17.4761 7.90032 17.9478 7.98654 18.395 8.15C18.7358 8.27649 19.0417 8.48214 19.2875 8.75C19.5325 8.98102 19.7245 9.26251 19.85 9.575C20.0168 10.0317 20.1031 10.5138 20.105 11C20.1425 11.75 20.15 12.0275 20.15 14C20.15 15.9725 20.1425 16.25 20.105 17ZM14 10.1525C13.2394 10.154 12.4962 10.3809 11.8645 10.8046C11.2328 11.2282 10.7408 11.8296 10.4507 12.5328C10.1607 13.236 10.0855 14.0093 10.2348 14.7552C10.3841 15.501 10.7512 16.1859 11.2896 16.7232C11.8279 17.2606 12.5135 17.6263 13.2596 17.7741C14.0058 17.922 14.779 17.8453 15.4816 17.5539C16.1842 17.2625 16.7847 16.7693 17.2071 16.1368C17.6295 15.5042 17.855 14.7606 17.855 14C17.856 13.4938 17.7569 12.9925 17.5634 12.5247C17.37 12.057 17.0859 11.6321 16.7277 11.2745C16.3694 10.917 15.944 10.6338 15.4758 10.4412C15.0077 10.2486 14.5062 10.1505 14 10.1525ZM14 16.4975C13.506 16.4975 13.0232 16.351 12.6125 16.0766C12.2018 15.8022 11.8816 15.4121 11.6926 14.9558C11.5036 14.4994 11.4541 13.9972 11.5505 13.5128C11.6469 13.0283 11.8847 12.5833 12.234 12.234C12.5833 11.8847 13.0283 11.6469 13.5128 11.5505C13.9972 11.4541 14.4994 11.5036 14.9558 11.6926C15.4121 11.8816 15.8022 12.2018 16.0766 12.6125C16.351 13.0232 16.4975 13.506 16.4975 14C16.4975 14.328 16.4329 14.6527 16.3074 14.9558C16.1819 15.2588 15.9979 15.5341 15.766 15.766C15.5341 15.9979 15.2588 16.1819 14.9558 16.3074C14.6527 16.4329 14.328 16.4975 14 16.4975Z" fill="#046E4B"/>
</svg>
