<svg width="1440" height="278" viewBox="0 0 1440 278" fill="none" xmlns="http://www.w3.org/2000/svg">
<path d="M646.117 1.02476C676.617 23.4064 703.517 49.2509 737.317 68.4231C760.217 81.4298 784.917 90.8048 812.517 93.9298C842.617 97.2237 871.117 92.7473 898.417 81.8521C925.217 71.1258 948.617 55.9232 972.617 41.6496C984.017 34.8929 995.817 28.5584 1007.52 21.9706C1015.32 26.9537 1022.52 31.599 1030.12 36.4976C1019.92 42.9165 1009.72 49.1665 999.717 55.5854C979.117 68.9299 959.217 83.0346 936.317 93.7609C898.617 111.413 858.617 121.548 815.017 119.099C783.717 117.325 755.217 107.95 728.517 94.352C708.217 83.9636 691.317 70.1123 674.617 56.261C651.517 37.1732 628.517 18.001 601.617 2.62947C601.017 2.29163 600.617 1.61597 600.017 1.02476C615.417 1.02476 630.817 1.02476 646.117 1.02476Z" fill="#BDD6A0"/>
<path d="M1033.12 1.02518C1046.82 1.02518 1060.42 1.02518 1074.12 1.02518C1078.62 4.31909 1082.92 7.78193 1087.52 10.9069C1117.12 31.0082 1146.82 50.8561 1180.22 66.3121C1204.62 77.6296 1230.32 84.9775 1258.22 86.4133C1297.02 88.3559 1332.72 79.5722 1365.82 63.1871C1383.02 54.6567 1399.02 44.5216 1415.82 35.4845C1429.02 28.3055 1442.62 21.4643 1458.02 17.917C1458.02 25.7717 1458.02 33.7109 1458.02 41.5656C1434.82 50.6027 1413.82 62.5959 1392.92 74.9269C1380.02 82.5282 1366.52 89.6228 1352.42 95.5349C1315.02 111.413 1275.42 116.481 1234.22 109.808C1200.22 104.319 1169.02 92.4944 1141.42 75.3492C1111.42 56.7682 1083.02 36.2446 1054.12 16.4812C1046.82 11.5826 1040.02 6.17719 1033.12 1.02518Z" fill="#BDD6A0"/>
<path d="M1458.02 70.2817C1434.12 80.2479 1412.32 93.0857 1390.22 105.67C1367.12 118.846 1342.42 129.488 1315.12 135.062C1273.92 143.592 1234.32 138.778 1195.82 124.758C1156.12 110.231 1120.52 90.214 1086.32 68.1702C1052.42 46.3798 1018.42 24.6738 984.518 2.96778C983.618 2.37656 982.818 1.7009 982.018 1.02523C996.318 1.02523 1010.72 1.02523 1025.02 1.02523C1030.12 4.40359 1035.22 7.78196 1040.32 11.1603C1070.52 31.7683 1100.12 52.9676 1130.92 72.731C1166.22 95.366 1205.22 111.498 1250.12 115.383C1275.82 117.579 1300.92 115.636 1325.52 108.795C1354.82 100.687 1380.52 87.0891 1405.02 71.5486C1421.42 61.1601 1439.22 52.6298 1458.02 45.6197C1458.02 53.9811 1458.02 62.0892 1458.02 70.2817Z" fill="#BDD6A0"/>
<path d="M693.118 1.02496C703.318 8.3729 713.418 15.8898 723.818 23.0688C741.118 34.9775 759.218 46.0417 779.618 53.8964C819.418 69.1835 858.718 67.1564 896.718 50.0957C916.518 41.2275 935.018 30.4168 954.218 20.6195C962.418 16.3965 970.818 12.3425 979.118 8.11954C981.818 6.7682 984.118 6.68374 986.818 8.45737C992.518 12.3425 998.418 15.9743 1004.92 20.1127C971.218 38.6937 938.918 58.1193 904.618 74.7578C858.518 97.2239 810.518 96.8016 762.818 76.8692C742.718 68.4233 724.418 57.697 708.018 44.8592C689.318 30.2478 670.718 15.5519 652.018 0.94049C665.818 1.02496 679.418 1.02496 693.118 1.02496Z" fill="#BDD6A0"/>
<path d="M1080.12 1.02514C1095.82 1.02514 1111.42 1.02514 1127.12 1.02514C1135.02 6.17714 1142.92 11.3292 1150.82 16.3967C1174.22 31.4304 1198.92 44.606 1226.62 53.2208C1245.72 59.133 1265.42 61.9201 1285.82 59.7242C1310.02 57.106 1331.82 49.1668 1352.42 38.525C1367.92 30.5858 1382.92 21.971 1398.52 14.2008C1408.32 9.30216 1418.82 5.41703 1429.02 1.02517C1438.62 1.02517 1448.12 1.02517 1458.02 1.02517C1458.02 5.5015 1458.02 10.0623 1458.02 14.5386C1456.92 14.7075 1455.72 14.6231 1454.62 14.9609C1435.42 20.0285 1418.62 28.6433 1402.62 38.6095C1380.92 52.1229 1358.52 64.7073 1332.82 72.562C1288.62 86.0754 1244.82 87.2579 1201.02 71.2106C1181.72 64.1161 1163.52 55.2479 1146.72 44.606C1124.22 30.4169 1102.32 15.5521 1080.12 1.02514Z" fill="#BDD6A0"/>
<path d="M590.117 1.02509C574.417 13.3561 558.917 26.025 542.817 37.9337C518.117 56.0924 491.617 72.1396 461.217 82.7815C418.217 97.8152 374.917 96.2105 331.817 82.3592C304.717 73.6599 280.817 59.9775 256.117 47.6465C248.817 44.0147 241.717 40.2141 234.117 36.3289C242.217 30.2479 250.017 24.3358 257.917 18.677C258.717 18.0858 261.217 18.5926 262.517 19.1838C277.317 26.4472 291.817 34.133 306.717 41.2276C328.117 51.5316 350.217 60.7376 374.517 65.1295C418.517 73.1531 459.017 65.4673 496.317 44.7749C518.217 32.6972 536.617 17.2412 554.017 0.85616C566.117 1.02508 578.117 1.02509 590.117 1.02509Z" fill="#BDD6A0"/>
<path d="M274.218 1.02509C251.118 19.0993 228.418 37.4269 202.818 52.9674C176.418 68.9302 148.218 81.2612 115.618 85.3152C76.8178 90.1294 39.8178 85.1463 3.91785 72.4775C-25.1822 62.1734 -52.3822 48.9978 -77.7822 33.1195C-77.7822 24.927 -77.7822 16.8189 -77.7822 8.62637C-73.6822 10.4845 -69.4821 12.1737 -65.5821 14.2007C-38.8821 28.4743 -11.3822 41.481 17.6178 52.1228C71.7178 71.8862 123.718 68.5079 173.718 42.3256C195.518 30.9236 213.618 15.721 232.118 1.02508C246.218 1.02508 260.218 1.02508 274.218 1.02509Z" fill="#BDD6A0"/>
<path d="M-77.7826 187.68C-14.1826 212.173 47.9174 211.075 108.717 180.501C130.817 169.352 150.917 156.008 170.617 142.156C188.817 129.403 207.917 117.663 229.017 108.457C230.517 107.781 233.017 107.697 234.417 108.288C243.717 112.342 252.817 116.734 262.417 121.295C238.817 131.177 217.217 142.832 197.017 156.43C183.217 165.72 169.717 175.349 155.417 184.048C124.517 203.051 90.7175 216.565 52.5175 221.632C6.91745 227.713 -36.4826 221.548 -77.8826 204.572C-77.7826 198.913 -77.7826 193.338 -77.7826 187.68Z" fill="#BDD6A0"/>
<path d="M184.218 1.02513C198.218 1.02513 212.218 1.02513 226.218 1.02514C207.318 16.7345 187.818 31.7682 164.618 42.9168C135.018 57.2749 103.218 63.0181 69.3179 60.2309C44.9179 58.2039 22.4178 50.9404 1.01782 41.481C-25.5822 29.6567 -51.4822 16.819 -77.7822 4.40347C-78.5822 1.53186 -77.1822 0.940643 -73.7822 0.940643C-56.7822 1.10956 -39.7822 1.02511 -22.7822 1.02511C-22.0822 1.53186 -21.4821 2.29199 -20.5821 2.62983C1.81784 12.4271 24.3178 22.0554 48.6178 28.3899C67.4178 33.2885 86.5178 35.7378 106.118 33.6263C129.718 31.177 150.718 22.9845 169.818 11.1602C174.818 8.03523 179.418 4.40349 184.218 1.02513Z" fill="#BDD6A0"/>
<path d="M-77.7822 161.497C-66.6822 165.129 -55.6822 169.268 -44.3822 172.224C11.1178 186.666 62.4179 179.741 108.818 149.589C132.418 134.217 155.918 118.761 179.618 103.474C185.318 99.7578 191.118 96.2105 197.018 92.9166C198.418 92.1565 201.018 91.5652 202.318 92.1565C211.018 96.2105 219.518 100.687 228.718 105.332C192.018 120.112 164.118 144.268 132.218 163.693C104.518 180.501 74.9178 193.845 40.9178 198.997C11.3178 203.558 -17.7822 201.278 -46.2822 193.761C-56.8822 190.974 -67.2821 187.511 -77.6821 184.301C-77.7821 176.7 -77.7822 169.099 -77.7822 161.497Z" fill="#BDD6A0"/>
<path d="M549.118 1.02497C527.918 20.4506 505.118 38.2714 476.918 50.3491C433.718 68.9301 389.818 69.3524 345.418 53.5585C316.218 43.17 289.618 28.812 262.418 15.0452C268.518 10.231 274.318 5.58573 280.118 1.02494C284.418 1.02494 288.818 1.02494 293.118 1.02494C294.418 2.03845 295.718 3.13642 297.118 3.98101C313.118 13.356 329.918 21.5485 347.918 27.8829C380.218 39.2849 413.218 42.5788 447.218 33.964C471.718 27.7985 491.918 15.7208 510.118 0.940499C523.118 1.02496 536.118 1.02497 549.118 1.02497Z" fill="#BDD6A0"/>
<path d="M975.118 1.02532C976.418 2.03883 977.718 3.05234 978.718 3.98139C963.318 12.1739 947.818 20.4509 932.418 28.7279C914.218 38.3562 896.118 48.069 875.818 54.319C840.318 65.2142 806.218 61.7514 773.218 47.3089C752.918 38.5251 735.118 26.7009 717.818 14.3698C711.618 9.97795 705.418 5.50163 699.218 1.0253C715.218 1.0253 731.218 1.0253 747.218 1.0253C759.518 10.4003 773.618 17.5793 788.618 23.407C816.518 34.3022 845.118 37.5116 874.718 28.3901C896.718 21.6333 916.518 11.4138 936.218 1.02532C949.118 1.02532 962.118 1.02532 975.118 1.02532Z" fill="#BDD6A0"/>
<path d="M-77.7825 132.781C-21.4825 160.146 34.6175 160.652 89.2175 130.163C109.418 118.93 127.218 104.656 146.218 91.8182C152.718 87.4263 159.118 82.8656 165.718 78.6426C166.918 77.8825 169.218 77.3757 170.518 77.8825C179.118 81.1764 187.518 84.8081 196.518 88.5243C185.918 95.2811 176.118 101.531 166.218 107.865C141.618 123.49 117.618 139.791 92.4176 154.74C56.8176 175.686 17.0176 179.825 -24.9824 172.983C-41.7824 170.281 -57.5824 165.298 -73.0824 159.47C-74.5824 158.879 -76.1824 158.625 -77.6824 158.203C-77.7824 149.673 -77.7825 141.227 -77.7825 132.781Z" fill="#BDD6A0"/>
<path d="M1134.02 1.025C1150.32 1.025 1166.72 1.025 1183.02 1.025C1188.22 4.48782 1193.22 8.20401 1198.72 11.4135C1219.12 23.4066 1241.42 31.3458 1266.52 32.3593C1304.62 33.8796 1335.62 19.1837 1365.02 1.10948C1383.02 1.10948 1401.02 1.10948 1419.02 1.10949C1417.42 1.86962 1415.92 2.62973 1414.32 3.38987C1400.72 9.97767 1387.02 16.6499 1373.42 23.4067C1358.92 30.5857 1345.02 38.6093 1329.92 44.7748C1298.92 57.6126 1266.72 60.5686 1233.22 51.1092C1195.72 40.5518 1164.52 21.3796 1134.02 1.025Z" fill="#BDD6A0"/>
<path d="M1458.02 207.105C1410.12 219.352 1362.92 219.098 1316.22 202.544C1275.02 187.933 1241.42 165.298 1213.22 136.413C1212.82 135.991 1212.52 135.484 1211.82 134.555C1219.12 136.16 1225.92 137.764 1232.72 139.2C1235.32 139.791 1237.92 140.298 1240.52 140.467C1250.02 141.227 1257.62 144.268 1264.82 150.095C1286.42 167.578 1311.42 180.754 1340.52 187.764C1377.92 196.801 1414.82 194.521 1451.22 183.963C1453.42 183.372 1455.72 183.119 1457.92 182.696C1458.02 190.805 1458.02 198.913 1458.02 207.105Z" fill="#BDD6A0"/>
<path d="M-77.7827 105.754C-67.7827 109.386 -57.8826 113.609 -47.6826 116.65C1.61739 131.43 47.3173 125.096 89.0173 98.9132C98.9173 92.6632 109.117 89.116 121.317 87.6802C133.817 86.2444 146.017 82.4437 157.317 79.9099C147.617 86.7511 136.917 94.268 126.217 101.869C107.017 115.636 87.4174 128.812 64.4174 138.018C39.7174 147.899 13.6173 150.687 -13.3827 148.153C-35.5827 146.041 -55.9826 139.707 -75.1826 130.332C-75.9826 129.91 -76.9827 129.656 -77.8827 129.318C-77.7827 121.548 -77.7827 113.609 -77.7827 105.754Z" fill="#BDD6A0"/>
<path d="M1458.02 178.389C1430.32 186.666 1402.02 191.649 1372.42 189.2C1335.32 186.244 1303.32 173.744 1275.22 153.474C1270.92 150.349 1266.82 147.139 1261.62 143.254C1264.22 143.254 1265.72 143.339 1267.22 143.254C1279.12 142.494 1291.02 141.649 1303.02 140.974C1304.72 140.889 1306.72 140.974 1308.02 141.649C1346.22 161.92 1387.32 165.298 1430.42 156.852C1439.72 154.994 1448.82 152.122 1457.92 149.673C1458.02 159.217 1458.02 168.845 1458.02 178.389Z" fill="#BDD6A0"/>
<path d="M300.218 1.02496C320.918 1.02497 341.518 1.02497 362.218 1.02497C363.118 1.61618 363.918 2.29185 364.918 2.62969C394.618 13.2715 424.018 13.4405 453.118 1.02498C470.118 1.02498 487.118 1.02498 504.118 1.02498C501.418 3.13646 498.918 5.33239 496.018 7.27495C469.218 25.7715 439.018 36.5823 403.918 35.3998C376.618 34.5552 351.518 26.9539 327.818 15.8053C318.318 11.329 309.418 6.00805 300.218 1.02496Z" fill="#BDD6A0"/>
<path d="M-77.7827 75.3489C-60.6827 84.3861 -42.8826 92.2408 -22.6826 95.2813C-2.18262 98.3218 17.8173 97.0549 36.7173 89.2002C41.2173 87.3421 45.2174 86.9198 50.4174 87.7644C60.8174 89.4536 71.5173 89.9604 82.0173 90.7205C86.4173 91.0583 90.8174 90.805 96.3174 90.805C72.5174 105.079 48.6174 117.241 19.8174 120.112C-13.2826 123.406 -43.7827 116.312 -72.8827 103.558C-74.4827 102.883 -76.1827 102.207 -77.7827 101.531C-77.7827 92.832 -77.7827 84.0482 -77.7827 75.3489Z" fill="#BDD6A0"/>
<path d="M127.218 1.02507C144.218 1.02507 161.218 1.02507 178.218 1.02507C166.918 7.3595 156.118 14.4541 144.118 19.8594C123.318 29.1499 100.918 32.4439 77.4178 29.8256C54.4178 27.2918 32.8178 21.0419 12.0178 12.7649C3.21782 9.21758 -5.18222 4.99464 -13.7822 1.10952C8.91777 1.10952 31.5178 1.10952 54.2178 1.10952C66.3178 5.41694 79.1178 6.76829 92.0178 7.02166C104.218 7.19058 116.118 5.75477 127.218 1.02507Z" fill="#BDD6A0"/>
<path d="M1458.02 145.45C1437.62 152.882 1416.42 157.19 1394.22 157.528C1365.22 157.95 1337.62 153.474 1312.12 139.622C1315.62 138.947 1318.62 138.524 1321.52 137.68C1331.72 134.639 1341.72 131.345 1351.92 128.305C1354.12 127.629 1356.82 127.291 1358.92 127.798C1381.72 133.035 1404.22 133.288 1426.62 126.362C1428.42 125.856 1431.02 126.278 1432.92 127.038C1441.42 130.501 1449.72 134.217 1458.12 137.849C1458.02 140.383 1458.02 142.916 1458.02 145.45Z" fill="#BDD6A0"/>
<path d="M883.117 1.02508C898.117 1.02508 913.117 1.02508 928.117 1.02508C914.217 7.52843 900.517 14.4541 886.217 20.3662C864.617 29.3189 841.717 32.2749 817.817 28.052C794.817 23.9979 774.917 14.7919 756.317 3.13655C755.417 2.62979 754.817 1.70074 754.117 1.02507C771.817 1.02507 789.417 1.02507 807.117 1.02507C823.217 6.93721 839.917 10.0622 857.317 7.61287C866.117 6.43045 874.517 3.30547 883.117 1.02508Z" fill="#BDD6A0"/>
<path d="M1315.02 1.02507C1329.32 1.02507 1343.72 1.02507 1358.02 1.02507C1349.22 5.67032 1340.52 10.7379 1331.42 14.9608C1314.02 22.9844 1295.52 28.3053 1275.52 28.8121C1254.22 29.3188 1234.32 24.6736 1215.82 15.8899C1206.82 11.5824 1198.62 6.00814 1190.02 1.02506C1208.02 1.02506 1226.02 1.02506 1244.02 1.02506C1249.42 2.62979 1254.72 4.6568 1260.32 5.67031C1279.12 9.04868 1297.42 8.03517 1315.02 1.02507Z" fill="#BDD6A0"/>
<path d="M-77.7825 38.1871C-76.0825 39.0317 -74.2824 39.7074 -72.6824 40.6364C-43.0824 57.7816 -11.7824 72.1397 22.3176 81.768C27.1176 83.1194 32.0176 83.9639 38.0176 85.3153C26.8176 89.9605 16.0175 92.1565 4.71753 93.0011C-21.3825 94.9436 -44.6825 87.9335 -66.7825 76.8694C-70.4825 75.0113 -74.0825 73.0687 -77.7825 71.1261C-77.7825 60.1465 -77.7825 49.1668 -77.7825 38.1871Z" fill="#BDD6A0"/>
<path d="M1458.02 272.983C1449.62 270.365 1441.12 268.085 1433.02 264.96C1404.82 253.896 1382.62 236.075 1359.32 217.325C1364.32 217.663 1367.92 218.085 1371.62 218.254C1381.62 218.592 1391.52 218.761 1401.52 219.183C1403.62 219.267 1406.12 219.859 1407.82 220.957C1421.92 229.825 1436.52 238.017 1452.82 243.929C1454.42 244.521 1456.22 244.774 1458.02 245.112C1458.02 254.402 1458.02 263.693 1458.02 272.983Z" fill="#BDD6A0"/>
<path d="M1458.02 133.626C1451.42 131.008 1444.52 128.896 1438.42 125.602C1425.82 118.846 1413.72 111.413 1400.32 103.559C1409.72 98.4065 1417.62 93.9302 1425.82 89.6228C1426.72 89.2005 1428.82 89.8762 1429.92 90.4674C1439.32 95.7038 1448.62 101.109 1458.02 106.43C1458.02 115.636 1458.02 124.589 1458.02 133.626Z" fill="#BDD6A0"/>
<path d="M1458.02 241.733C1449.42 238.271 1440.52 235.146 1432.32 231.176C1425.22 227.713 1418.82 223.152 1411.22 218.676C1419.62 217.663 1427.42 217.409 1434.62 215.551C1443.22 213.44 1450.42 215.804 1458.02 218.085C1458.02 225.94 1458.02 233.879 1458.02 241.733Z" fill="#BDD6A0"/>
<path d="M1458.02 103.221C1449.02 97.9842 1440.02 92.8322 1430.02 87.0046C1440.12 82.5282 1449.02 78.4742 1458.02 74.5046C1458.02 84.0485 1458.02 93.6768 1458.02 103.221Z" fill="#BDD6A0"/>
<path d="M441.118 1.02469C433.518 2.88279 426.118 5.41655 418.318 6.3456C402.818 8.2037 387.618 6.43006 373.118 1.02468C395.818 1.02468 418.518 1.02469 441.118 1.02469Z" fill="#BDD6A0"/>
<path d="M872.117 1.02517C855.117 6.43055 838.117 6.26163 821.117 1.02517C838.117 1.02517 855.117 1.02517 872.117 1.02517Z" fill="#BDD6A0"/>
<path d="M1303.02 1.0248C1287.72 5.33221 1272.32 5.41667 1257.02 1.0248C1272.42 1.0248 1287.72 1.0248 1303.02 1.0248Z" fill="#BDD6A0"/>
<path d="M114.218 1.02476C99.9178 4.82541 85.5178 4.2342 71.2178 1.02475C85.5178 1.02475 99.8178 1.02476 114.218 1.02476Z" fill="#BDD6A0"/>
<path d="M621.818 19.606C629.218 24.9269 636.618 30.2479 643.218 34.9776C620.018 52.6295 597.218 70.197 574.118 87.5956C541.018 112.427 504.018 131.514 461.218 142.072C413.118 153.896 365.618 151.616 318.618 138.102C283.118 127.883 250.718 112.427 218.718 96.2948C203.318 88.5246 187.618 81.1767 172.118 73.7443C180.718 69.099 189.818 64.1159 199.118 59.3862C200.218 58.8795 202.518 59.4707 203.918 60.1464C225.518 70.9571 246.918 82.0213 268.518 92.832C292.118 104.741 316.418 115.383 343.318 121.041C388.418 130.501 432.018 125.771 474.718 111.498C507.118 100.687 534.718 83.7949 560.718 64.7072C579.818 50.687 598.718 36.4978 617.718 22.3932C618.818 21.3797 620.218 20.6195 621.818 19.606Z" fill="#BDD6A0"/>
<path d="M618.718 17.4946C592.518 36.6668 567.318 55.7546 541.218 73.8288C507.818 96.9706 470.118 113.018 427.118 119.521C382.618 126.278 340.018 120.788 300.218 103.389C272.818 91.3963 246.818 77.1227 220.118 63.8626C215.018 61.3288 209.818 58.7951 204.718 56.3458C212.818 50.8559 220.918 45.1972 229.218 39.8762C230.218 39.285 232.918 39.9607 234.318 40.6364C255.818 51.3627 276.918 62.5113 298.618 72.9842C326.618 86.5821 356.518 95.7882 389.118 96.9706C423.318 98.2375 455.418 91.3118 485.118 76.7849C519.618 59.8931 550.118 38.6939 578.018 14.623C582.418 10.8224 587.318 7.35954 592.218 4.06563C593.218 3.38996 595.818 3.22103 596.818 3.81224C604.118 8.11966 611.018 12.6805 618.718 17.4946Z" fill="#BDD6A0"/>
<path d="M906.817 110.484C914.817 118.17 923.617 126.278 932.017 134.555C946.317 148.575 961.217 162.004 979.517 172.308C1014.32 191.818 1059.22 194.099 1096.22 172.393C1106.72 166.227 1117.42 160.231 1128.62 155.079C1142.72 148.66 1158.42 146.041 1174.82 144.859C1150.72 166.734 1125.32 187.004 1093.02 199.166C1038.12 219.774 986.617 212.342 938.917 182.697C921.317 171.801 907.817 157.359 893.117 144.014C884.317 135.991 874.617 128.643 865.117 120.873C879.217 117.41 892.317 114.116 906.817 110.484Z" fill="#BDD6A0"/>
<path d="M877.817 134.302C855.017 146.126 831.717 155.754 806.717 162.595C776.117 171.041 746.317 169.437 716.417 160.231C697.317 154.403 680.017 145.957 662.817 137.089C639.217 124.758 615.417 112.68 589.117 104.572C581.317 102.207 573.417 100.18 565.617 98.0686C571.717 93.5923 577.817 89.2849 583.617 84.7241C586.517 82.4437 589.017 82.1903 592.817 83.0349C625.917 90.1295 654.617 104.656 683.017 119.944C700.917 129.572 719.617 137.849 740.617 141.312C772.517 146.633 802.917 142.072 831.117 128.643C839.317 124.758 847.517 122.14 856.817 121.717C858.017 121.633 859.617 121.548 860.517 122.14C866.517 126.025 872.117 130.163 877.817 134.302Z" fill="#BDD6A0"/>
<path d="M535.317 117.325C543.117 112.511 551.617 107.021 560.417 101.869C561.717 101.109 564.517 101.7 566.417 102.123C594.317 108.288 619.817 118.93 644.317 131.683C664.117 141.987 683.717 152.629 705.217 160.315C727.117 168.085 749.517 173.153 773.517 171.886C792.917 170.872 811.217 166.227 828.617 159.639C844.817 153.474 860.417 146.295 876.217 139.369C879.817 137.764 882.017 137.764 884.617 140.552C887.817 143.93 891.517 146.97 895.117 150.264C859.217 171.886 820.417 186.92 776.517 190.805C748.117 193.339 720.917 188.524 694.917 178.896C671.417 170.112 649.817 158.457 628.117 147.055C607.917 136.413 586.917 126.869 563.817 121.548C554.317 119.183 544.317 118.592 535.317 117.325Z" fill="#BDD6A0"/>
<path d="M690.117 181.007C673.317 189.622 656.117 190.129 638.917 183.541C630.817 180.416 623.417 176.024 615.917 171.886C602.117 164.116 589.217 154.91 574.717 148.237C550.917 137.427 523.017 140.805 505.017 154.994C495.717 162.342 490.317 171.379 490.117 182.105C490.017 188.947 490.817 195.872 491.617 202.713C492.317 208.541 489.717 212.68 483.617 214.2C478.317 215.467 472.517 213.271 470.317 208.288C461.817 189.116 461.517 159.048 484.017 140.129C485.517 138.862 487.517 138.018 489.417 137.258C501.317 132.19 512.917 126.7 525.217 122.562C530.517 120.788 537.217 120.957 543.117 121.548C565.617 123.575 586.217 130.754 605.817 140.045C623.617 148.491 640.817 157.95 658.417 166.734C668.717 171.717 679.217 176.109 690.117 181.007Z" fill="#BDD6A0"/>
<path d="M1064.22 211.412C1030.22 233.372 994.418 250.01 952.618 255.669C912.518 261.159 874.818 254.74 839.218 238.862C811.518 226.531 785.918 211.243 760.618 194.943C767.418 194.521 773.918 194.774 780.018 193.591C788.718 191.818 795.218 194.521 802.118 198.406C821.718 209.554 841.718 220.281 864.118 227.037C896.818 236.835 930.318 240.466 964.618 233.456C981.118 230.078 995.918 223.321 1010.22 215.804C1012.42 214.622 1015.42 214.031 1018.02 214.115C1033.12 214.2 1048.22 214.791 1064.22 211.412Z" fill="#BDD6A0"/>
<path d="M162.418 216.733C171.918 214.622 181.318 212.426 190.818 210.568C192.518 210.23 194.718 210.821 196.418 211.328C221.718 219.605 247.718 224.757 275.118 224.25C305.718 223.659 333.418 215.551 359.218 202.038C382.718 189.707 403.618 174.757 422.718 158.034C428.018 153.389 433.718 150.686 441.418 149.588C452.918 147.984 464.218 144.943 476.518 142.241C469.718 147.393 463.518 152.122 457.218 156.768C437.618 171.379 418.718 186.666 398.218 200.348C369.618 219.521 337.418 232.95 301.418 239.284C268.218 245.112 235.918 241.987 204.318 232.527C190.018 228.22 176.118 222.814 162.018 217.916C162.118 217.494 162.318 217.156 162.418 216.733Z" fill="#BDD6A0"/>
<path d="M590.817 79.234C598.217 73.4063 604.617 68.1698 611.217 63.2712C612.617 62.2577 615.517 61.9199 617.417 62.3422C638.817 67.2408 658.317 75.4333 676.417 86.3285C689.417 94.0988 702.117 102.46 717.217 107.274C731.517 111.92 746.217 114.453 761.617 113.018C762.917 112.933 764.317 113.018 765.517 113.355C787.217 119.943 809.517 123.913 834.317 123.322C821.417 129.825 809.117 134.132 796.117 136.835C762.217 143.845 730.517 138.524 700.517 124.335C688.917 118.845 677.517 113.018 666.317 106.937C643.117 94.69 618.717 84.7238 590.817 79.234Z" fill="#BDD6A0"/>
<path d="M109.417 212.088C123.217 205.078 137.417 197.815 151.717 190.636C152.917 190.045 154.417 189.453 155.817 189.453C177.917 189.453 198.117 183.457 216.917 174.504C242.117 162.511 266.617 149.589 291.317 136.835C294.617 135.146 297.217 134.724 300.917 136.075C309.017 138.947 317.317 141.396 325.317 143.846C296.017 159.386 267.017 175.771 236.817 190.383C209.917 203.474 180.417 211.666 149.217 214.284C135.617 215.467 122.017 214.707 109.417 212.088Z" fill="#BDD6A0"/>
<path d="M1006.42 213.44C992.418 221.463 976.318 227.713 958.418 230.501C912.218 237.849 869.618 229.487 829.918 209.132C818.918 203.474 808.018 197.562 796.918 191.649C806.618 189.285 815.718 187.004 824.818 184.977C826.418 184.639 828.618 185.231 830.218 185.991C848.418 194.859 867.418 201.953 888.218 205.754C913.218 210.23 937.718 209.386 961.818 201.7C963.518 201.193 965.718 201.024 967.418 201.531C980.618 205.416 993.718 209.555 1006.42 213.44Z" fill="#BDD6A0"/>
<path d="M200.017 208.372C209.717 204.74 219.417 201.109 229.117 197.561C230.117 197.223 231.317 197.223 232.517 197.308C246.917 198.321 261.317 200.179 275.717 200.264C305.517 200.517 332.718 192.747 356.818 178.051C368.318 170.957 379.017 162.849 390.017 155.163C391.117 154.403 392.417 153.305 393.617 153.305C403.517 153.136 413.417 153.22 423.417 153.22C416.717 158.541 409.717 164.284 402.517 169.774C383.617 184.301 363.317 197.223 340.417 207.021C309.017 220.45 275.717 223.49 241.417 218.254C227.317 216.058 213.517 212.426 199.617 209.47C199.817 209.132 199.917 208.794 200.017 208.372Z" fill="#BDD6A0"/>
<path d="M0.817508 227.375C11.3175 227.375 21.2175 227.882 31.0175 227.207C37.9175 226.7 43.6175 227.967 49.8175 230.5C80.9175 243.169 113.818 249.419 148.318 247.646C166.718 246.717 184.817 243.338 202.217 237.933C204.517 237.257 207.418 237.257 209.818 237.764C221.918 240.129 233.917 242.747 246.417 245.365C207.017 262.426 165.217 269.774 121.017 265.129C77.7175 260.568 37.1175 249.166 0.817508 227.375Z" fill="#BDD6A0"/>
<path d="M978.017 167.747C970.117 162.088 962.317 156.43 954.217 150.686C964.517 136.835 975.617 124.166 988.817 112.764C1011.92 92.7474 1038.12 76.4468 1068.42 64.9604C1071.42 63.7779 1073.52 63.609 1076.32 65.636C1083.22 70.4502 1090.52 74.9265 1098.32 79.9096C1045.12 96.4636 1006.82 127.038 978.017 167.747Z" fill="#BDD6A0"/>
<path d="M1009.92 180.585C1024.52 160.231 1042.62 143.001 1064.72 128.812C1083.92 116.481 1104.92 106.937 1127.82 100.687C1129.82 100.096 1132.82 100.349 1134.62 101.194C1145.02 106.092 1155.22 111.329 1165.42 116.481C1157.42 118.085 1149.02 119.268 1140.92 121.379C1102.92 131.346 1072.42 150.602 1047.32 176.362C1046.72 177.038 1045.92 177.629 1045.52 178.389C1042.22 184.301 1036.32 185.315 1029.42 184.301C1025.22 183.626 1020.92 183.119 1016.72 182.359C1014.62 181.852 1012.42 181.176 1009.92 180.585Z" fill="#BDD6A0"/>
<path d="M981.617 169.521C992.617 153.136 1005.52 138.609 1021.12 125.687C1043.52 107.106 1069.02 92.6633 1098.42 83.3728C1101.22 82.5282 1103.12 82.5282 1105.62 84.0485C1112.52 88.4403 1119.62 92.5788 1125.82 96.295C1111.72 102.123 1097.02 107.528 1083.02 114.285C1051.72 129.403 1027.32 150.687 1008.12 176.278C1005.92 179.149 1004.22 179.487 1001.02 178.136C997.017 176.447 992.917 175.011 988.917 173.237C986.617 172.308 984.417 171.041 981.617 169.521Z" fill="#BDD6A0"/>
<path d="M951.518 148.237C944.818 141.987 938.318 135.991 931.218 129.403C939.918 120.535 948.018 111.667 956.918 103.305C981.318 80.5856 1010.92 63.4404 1042.42 48.3222C1045.42 46.8864 1047.62 47.0553 1050.22 48.9134C1056.22 52.9675 1062.42 56.6837 1069.42 61.0755C1019.02 79.5721 980.518 108.879 951.518 148.237Z" fill="#BDD6A0"/>
<path d="M1045.02 184.217C1073.62 153.305 1107.82 131.261 1152.62 122.393C1158.72 121.21 1165.02 120.535 1171.32 119.859C1172.72 119.69 1174.32 120.112 1175.62 120.619C1183.82 123.744 1192.02 126.869 1200.02 130.247C1202.32 131.176 1204.32 132.866 1206.12 134.47C1209.42 137.426 1212.42 140.551 1215.72 143.761C1207.52 143.17 1199.52 142.325 1191.52 141.903C1157.92 140.129 1127.82 147.815 1101.32 165.636C1086.32 175.686 1069.02 181.767 1050.02 183.879C1048.62 184.132 1047.32 184.132 1045.02 184.217Z" fill="#BDD6A0"/>
<path d="M-67.1822 213.524C-52.0822 217.071 -36.4823 221.463 -20.4823 224.082C-10.4823 225.771 -2.38234 229.149 5.71766 234.048C26.2177 246.379 49.4177 254.065 73.3178 260.315C82.4178 262.679 91.7177 264.537 101.118 266.649C85.5177 278.135 67.4177 280.247 48.8177 274.588C13.4177 263.862 -19.9823 249.757 -48.1822 228.22C-54.7823 223.152 -61.3822 218.085 -67.1822 213.524Z" fill="#BDD6A0"/>
<path d="M198.718 235.483C147.718 250.095 97.7178 246.463 50.0178 226.784C65.8178 222.899 82.1178 218.845 98.5178 214.96C100.718 214.453 103.418 214.369 105.618 214.875C119.518 217.747 133.418 218.845 147.618 217.578C152.418 217.156 156.418 217.916 160.818 219.943C173.318 225.433 186.118 230.416 198.718 235.483Z" fill="#BDD6A0"/>
<path d="M386.118 153.22C344.518 188.947 295.618 203.896 237.218 194.436C245.018 190.551 252.918 187.004 260.518 182.781C270.218 177.376 279.418 172.984 292.318 173.322C312.318 173.828 330.218 166.312 346.518 157.19C355.018 152.376 363.018 149.589 373.218 152.038C377.018 153.051 381.318 152.883 386.118 153.22Z" fill="#BDD6A0"/>
<path d="M960.218 198.828C914.418 211.497 873.018 203.136 832.718 183.203C843.918 178.727 854.218 174.504 864.818 170.619C866.418 170.028 869.018 170.788 870.918 171.379C884.218 175.687 897.718 179.825 911.918 179.234C923.618 178.727 932.418 181.683 940.818 187.933C946.518 192.072 953.418 195.028 960.218 198.828Z" fill="#BDD6A0"/>
<path d="M291.618 133.119C258.818 148.828 229.618 168.845 194.318 179.74C183.418 183.119 172.218 185.23 160.218 185.99C191.818 164.031 222.618 141.987 258.918 126.278C264.418 123.913 269.018 123.322 274.518 126.193C279.618 128.896 285.418 130.67 291.618 133.119Z" fill="#BDD6A0"/>
<path d="M616.918 58.2881C627.218 51.278 636.818 44.6058 646.718 37.8491C658.418 47.3085 669.618 56.5145 680.918 65.5516C699.418 80.4164 718.418 94.69 741.518 104.403C746.218 106.43 751.018 108.203 756.518 110.399C732.018 110.23 711.018 103.474 692.318 91.7339C674.718 80.7543 656.818 70.4503 636.218 63.778C630.218 61.9199 624.118 60.3152 616.918 58.2881Z" fill="#BDD6A0"/>
<path d="M929.618 126.869C923.018 120.788 916.818 114.96 910.218 108.795C913.918 107.275 917.518 105.839 921.118 104.403C946.318 94.1835 968.918 80.5856 990.618 65.8897C1003.22 57.3593 1016.32 49.4201 1029.02 40.9742C1032.32 38.7783 1034.62 38.6094 1037.52 40.9742C1038.92 42.1567 1040.52 43.0857 1042.42 44.3526C997.918 65.3829 958.218 90.5517 929.618 126.869Z" fill="#BDD6A0"/>
<path d="M1398.42 105.585C1407.12 111.244 1415.72 116.903 1424.92 122.815C1403.62 129.403 1382.62 129.994 1361.32 124.504C1373.72 118.254 1386.02 112.004 1398.42 105.585Z" fill="#BDD6A0"/>
<path d="M283.418 169.099C298.818 161.497 314.218 153.896 329.718 146.379C330.818 145.872 332.318 145.619 333.518 145.788C339.618 146.97 345.718 148.406 352.618 149.842C331.518 161.751 310.018 170.957 284.418 170.534C284.118 170.112 283.818 169.605 283.418 169.099Z" fill="#BDD6A0"/>
<path d="M897.717 153.051C906.217 160.822 914.217 168.085 922.617 175.686C904.417 177.207 887.817 173.491 871.217 167.832C880.117 162.764 888.817 157.95 897.717 153.051Z" fill="#BDD6A0"/>
</svg>
