<svg width="387" height="585" viewBox="0 0 387 585" fill="none" xmlns="http://www.w3.org/2000/svg">
<g opacity="0.79" clip-path="url(#clip0_2001_2)">
<path d="M348.782 519.004C350.121 516.4 351.538 513.822 352.771 511.165C354.923 506.53 356.393 501.687 356.708 496.583C357.075 490.724 355.842 485.359 351.433 481.115C348.52 478.328 344.794 477.183 340.936 476.479C331.358 474.787 322.173 476.375 313.277 479.969C298.896 485.776 287.218 495.124 277.64 507.129C273.94 511.764 271.473 516.972 271.289 523.04C271.21 525.357 271.42 527.649 273.074 529.915C267.746 527.883 262.944 525.748 259.9 521.035C258.483 518.847 258.562 516.426 259.218 514.004C260.792 508.301 263.836 503.327 267.537 498.796C279.372 484.37 293.91 473.459 311.728 467.105C319.995 464.162 328.523 462.73 337.315 463.303C343.481 463.694 349.517 464.865 355.081 467.756C361.274 470.959 364.475 476.193 364.921 482.99C365.735 495.645 360.906 506.244 352.535 515.462C351.38 516.738 350.199 517.988 349.019 519.264C348.94 519.186 348.861 519.108 348.782 519.004Z" fill="#016845"/>
<path d="M362.533 467.026C361.195 464.292 360.093 461.766 358.728 459.37C355.474 453.745 350.672 450.282 344.085 449.371C339.073 448.694 334.166 449.293 329.311 450.569C318.656 453.381 309.34 458.641 301.074 465.854C300.366 466.479 299.526 466.974 298.686 467.417C289.764 471.948 281.392 477.208 274.386 484.395C274.307 484.473 274.176 484.525 273.782 484.76C274.465 482.859 274.989 481.166 275.672 479.552C283.885 460.282 298.187 447.496 317.869 440.361C324.482 437.965 331.279 436.585 338.364 436.767C341.723 436.845 345.082 437.236 348.258 438.408C354.923 440.855 358.571 445.985 360.644 452.417C362.166 457.079 362.717 461.896 362.533 467.026Z" fill="#016845"/>
<path d="M340.726 431.116C336.501 431.507 332.171 431.611 327.973 432.392C324.876 432.965 322.436 432.366 319.628 431.09C306.192 424.997 293.254 426.455 281.183 434.658C277.929 436.871 275.2 439.814 272.208 442.392C271.709 442.834 271.106 443.251 270.476 443.433C264.808 445.178 259.218 447.131 253.76 450.126C253.97 449.553 254.075 449.188 254.258 448.824C262.708 430.908 276.617 419.606 296.351 416.377C313.015 413.669 327.658 418.643 339.939 430.257C340.254 430.569 340.569 430.934 340.726 431.116Z" fill="#016845"/>
<path d="M300.759 520.618C310.888 519.524 319.207 515.123 325.741 507.494C332.249 499.89 334.716 490.697 335.923 480.906C340.962 481.219 345.633 482.104 348.966 486.219C349.359 486.687 349.517 487.494 349.491 488.119C348.625 500.697 343.376 511.296 334.532 520.175C328.969 525.774 322.461 529.967 314.798 532.258C311.597 533.222 309.025 532.519 306.716 530.175C304.17 527.571 301.599 523.613 300.759 520.618Z" fill="#016845"/>
<path d="M330.754 481.036C329.705 484.734 328.156 487.989 326.241 491.088C321.989 498.041 316.216 503.535 309.734 508.353C299.998 515.592 289.423 521.139 277.509 523.951C277.089 524.055 276.669 524.133 275.882 524.289C276.354 522.232 276.643 520.305 277.194 518.482C278.559 514.055 281.183 510.332 284.358 506.999C284.647 506.712 285.04 506.478 285.46 506.347C295.983 502.494 304.486 495.957 311.283 487.13C311.807 486.453 312.568 485.828 313.356 485.489C318.84 483.093 324.614 481.817 330.754 481.036Z" fill="#016845"/>
<path d="M268.35 485.15C266.906 479.968 266.591 475.047 266.985 470.099C267.562 462.417 269.767 455.178 274.175 448.772C280.579 439.501 289.291 433.798 300.733 432.627C304.853 432.21 313.276 433.616 316.452 435.361C304.879 439.423 294.644 445.308 286.194 454.24C277.797 463.12 271.551 473.067 268.35 485.15Z" fill="#016845"/>
<path d="M267.143 449.865C265.91 453.303 264.519 456.74 263.417 460.255C262.761 462.313 262.577 464.5 262.105 466.609C262 467.052 261.763 467.651 261.396 467.859C255.885 471.218 253.208 476.453 251.66 482.416C250.558 486.687 250.191 491.035 250.374 495.644C250.033 495.332 249.797 495.176 249.613 494.967C240.638 484.733 239.51 466.818 254.022 456.245C258.09 453.277 262.577 451.271 267.143 449.865Z" fill="#016845"/>
<path d="M257.355 505.072C253.34 494.707 255.623 480.177 261.475 474.109C261.685 476.349 261.816 478.562 262.157 480.75C262.761 484.708 263.837 488.51 265.569 492.155C265.726 492.494 265.647 493.197 265.411 493.457C262.105 496.843 259.323 500.567 257.355 505.072Z" fill="#016845"/>
<path d="M354.32 461.662C343.193 457.808 332.014 457.366 320.572 459.032C323.695 457.991 326.792 456.871 329.941 455.907C333.798 454.71 337.708 453.98 341.776 454.111C347.366 454.293 351.459 456.819 354.32 461.662Z" fill="#016845"/>
</g>
<g opacity="0.79" clip-path="url(#clip1_2001_2)">
<path d="M61.7824 142.004C63.1208 139.4 64.5378 136.822 65.7712 134.165C67.9231 129.53 69.3926 124.687 69.7076 119.583C70.0749 113.724 68.8416 108.359 64.4329 104.115C61.52 101.328 57.7936 100.183 53.936 99.4795C44.3576 97.7868 35.1728 99.3753 26.2767 102.969C11.896 108.776 0.218203 118.124 -9.3602 130.129C-13.0604 134.764 -15.5271 139.972 -15.7108 146.04C-15.7895 148.357 -15.5796 150.649 -13.9263 152.915C-19.2535 150.883 -24.0558 148.748 -27.0999 144.035C-28.517 141.847 -28.4383 139.426 -27.7822 137.004C-26.2077 131.301 -23.1636 126.327 -19.4635 121.796C-7.62822 107.37 6.90996 96.4588 24.7284 90.1049C32.9947 87.1623 41.5234 85.7301 50.3146 86.303C56.4815 86.6936 62.5172 87.8654 68.0805 90.7559C74.2737 93.9589 77.4753 99.193 77.9214 105.99C78.7349 118.645 73.9063 129.244 65.535 138.462C64.3804 139.738 63.1995 140.988 62.0186 142.264C61.9399 142.186 61.8611 142.108 61.7824 142.004Z" fill="#016845"/>
<path d="M75.5334 90.0261C74.195 87.2919 73.0928 84.7659 71.7282 82.3702C68.4742 76.7454 63.6719 73.2821 57.0851 72.3706C52.0728 71.6936 47.1655 72.2925 42.3107 73.5685C31.6564 76.3809 22.3404 81.6411 14.0741 88.8543C13.3656 89.4793 12.5258 89.974 11.6861 90.4167C2.76373 94.9478 -5.60753 100.208 -12.6142 107.395C-12.6929 107.473 -12.8241 107.525 -13.2178 107.76C-12.5355 105.859 -12.0106 104.166 -11.3283 102.552C-3.11453 83.2816 11.1875 70.4957 30.8691 63.3606C37.4822 60.9649 44.2789 59.5848 51.3643 59.767C54.7233 59.8452 58.0823 60.2358 61.2576 61.4076C67.9231 63.8554 71.5708 68.9854 73.6439 75.4174C75.166 80.0786 75.7171 84.8961 75.5334 90.0261Z" fill="#016845"/>
<path d="M53.7264 54.1161C49.5014 54.5067 45.1715 54.6108 40.9727 55.3921C37.8761 55.965 35.4356 55.366 32.6277 54.09C19.1917 47.9966 6.25428 49.4548 -5.81713 57.6576C-9.07116 59.871 -11.8004 62.8136 -14.792 65.3916C-15.2906 65.8343 -15.8941 66.251 -16.524 66.4332C-22.1923 68.178 -27.7819 70.131 -33.2402 73.1256C-33.0303 72.5528 -32.9253 72.1882 -32.7416 71.8236C-24.2916 53.9078 -10.3833 42.6062 9.35086 39.3772C26.0147 36.6689 40.6578 41.6427 52.9392 53.2567C53.2541 53.5692 53.569 53.9338 53.7264 54.1161Z" fill="#016845"/>
<path d="M13.7588 143.618C23.8883 142.524 32.2071 138.123 38.7414 130.494C45.2494 122.89 47.7162 113.697 48.9233 103.906C53.9618 104.219 58.6329 105.104 61.9657 109.219C62.3593 109.687 62.5168 110.494 62.4906 111.119C61.6246 123.697 56.3761 134.296 47.5325 143.175C41.9692 148.774 35.4611 152.967 27.7984 155.258C24.5968 156.222 22.0251 155.519 19.7158 153.175C17.1703 150.571 14.5985 146.613 13.7588 143.618Z" fill="#016845"/>
<path d="M43.7543 104.036C42.7046 107.734 41.1563 110.989 39.2406 114.088C34.9894 121.041 29.2161 126.535 22.7343 131.353C12.9984 138.592 2.42281 144.139 -9.49115 146.951C-9.91102 147.055 -10.3309 147.133 -11.1182 147.289C-10.6458 145.232 -10.3571 143.305 -9.80605 141.482C-8.44146 137.055 -5.81724 133.332 -2.64193 129.999C-2.35327 129.712 -1.95963 129.478 -1.53976 129.347C8.98336 125.494 17.4858 118.957 24.2826 110.13C24.8074 109.453 25.5684 108.828 26.3557 108.489C31.8403 106.093 37.6136 104.817 43.7543 104.036Z" fill="#016845"/>
<path d="M-18.6503 108.15C-20.0937 102.968 -20.4086 98.0465 -20.0149 93.0988C-19.4376 85.4169 -17.2333 78.1776 -12.8246 71.7717C-6.42146 62.5012 2.29095 56.7984 13.7325 55.6265C17.8526 55.2099 26.2763 56.6161 29.4516 58.3608C17.8788 62.4231 7.64436 68.3083 -0.805632 77.2402C-9.20314 86.12 -15.4488 96.0675 -18.6503 108.15Z" fill="#016845"/>
<path d="M67.3197 84.6624C56.193 80.8084 45.0139 80.3657 33.5723 82.0323C36.6951 80.9907 39.7917 79.871 42.9407 78.9075C46.7983 77.7096 50.7084 76.9805 54.776 77.1107C60.3656 77.293 64.4593 79.8189 67.3197 84.6624Z" fill="#016845"/>
</g>
<path d="M312.596 42.8325C356.27 56.5756 400.003 70.3374 444.063 84.2021C445.646 80.7553 447.248 77.3442 448.853 73.8447C405.179 60.1016 361.892 46.4801 318.634 32.8679C316.635 36.1838 314.636 39.4997 312.596 42.8325Z" fill="#016845"/>
<path d="M440.702 87.7424C439.217 87.275 437.731 86.8075 436.275 86.3494C394.533 73.214 352.82 60.0879 311.088 46.9262C309.781 46.5148 309.128 46.7246 308.22 47.6549C305.719 50.2196 303.042 52.64 300.341 55.2013C300.776 55.3679 301.271 55.5532 301.776 55.7121C344.499 69.156 387.222 82.5999 429.934 96.0702C431.003 96.4068 431.771 96.4111 432.606 95.6652C435.414 93.1676 438.242 90.7057 441.07 88.2437C440.944 88.0559 440.838 87.9038 440.702 87.7424Z" fill="#016845"/>
<path d="M320.311 18.1798C321.625 21.8265 320.871 25.208 320.056 28.6591C363.165 42.2245 406.215 55.7713 449.442 69.3742C449.648 65.5237 449.322 61.832 446.287 58.8894C445.154 57.7916 443.448 56.9579 441.814 56.4437C408.817 46.0306 375.779 35.6344 342.742 25.2383C335.819 23.06 328.867 20.8723 321.945 18.694C321.499 18.5537 321.024 18.4042 320.311 18.1798Z" fill="#016845"/>
<path d="M283.574 63.8058C299.469 68.8076 315.364 73.8093 331.258 78.8111C355.413 86.4118 379.628 93.9429 403.73 101.675C410.631 103.906 417.072 103.531 423.575 100.831C424.461 100.457 425.453 100.236 426.397 99.9692C426.331 99.8001 426.305 99.614 426.239 99.4449C425.834 99.2877 425.469 99.1135 425.053 98.9826C382.36 85.548 339.696 72.1228 296.993 58.7146C296.428 58.5369 295.562 58.4425 295.117 58.7178C291.53 60.8219 287.77 62.6049 283.574 63.8058Z" fill="#016845"/>
<path d="M314.192 30.4316C315.211 27.2227 316.069 24.0817 315.795 20.7621C315.526 17.1775 313.413 15.3557 309.376 15.2423C305.409 15.1212 301.831 16.3681 298.491 18.1052C287.593 23.7524 279.495 31.7636 273.404 41.4445C271.148 45.0654 269.457 48.8639 269.065 53.0117C268.602 57.671 271.276 60.2627 276.562 60.2649C280.072 60.2721 283.305 59.3022 286.311 57.8156C296.365 52.8523 304.094 45.763 310.17 37.2044C311.645 35.0287 312.844 32.7068 314.192 30.4316Z" fill="#016845"/>
<g opacity="0.79">
<path d="M91.581 455.113C87.0906 455.89 83.361 458.119 79.8616 460.742C79.5316 460.994 78.7244 461.097 78.3676 460.895C59.1177 450.545 27.0381 450.825 2.91287 470.12C-22.2356 490.256 -29.4872 525.628 -13.6023 552.654C-11.8877 555.598 -9.65434 558.291 -7.58284 561.039C-7.12043 561.647 -6.99612 562.032 -7.38238 562.747C-9.36146 566.466 -10.9464 570.344 -10.739 574.912C-12.5164 573.365 -14.1031 572.037 -15.6295 570.684C-35.3098 553.245 -47.5885 517.028 -29.8038 483.897C-17.6864 461.299 1.37183 446.674 27.6815 441.381C45.4648 437.774 62.787 439.56 79.1022 447.329C83.4979 449.442 87.5031 452.232 91.687 454.724C91.6579 454.847 91.6101 454.991 91.581 455.113Z" fill="#016845"/>
<path d="M75.7297 464.472C73.3955 467.193 71.1213 469.888 68.7746 472.492C68.5318 472.775 67.721 472.838 67.3083 472.701C59.1905 470.254 50.8395 469.579 42.4503 470.934C26.4974 473.519 13.5845 480.897 4.68177 493.922C-5.02194 508.101 -7.36822 523.276 -1.53576 539.283C-0.920606 540.947 -0.102186 542.552 0.730769 544.095C1.54093 545.621 2.50873 547.051 3.41226 548.468C0.741821 551.581 -1.90994 554.673 -4.67375 557.895C-11.8307 549.431 -15.7831 539.747 -17.1966 529.087C-19.3914 512.59 -15.2824 497.433 -4.84286 484.072C18.2565 454.541 56.0686 453.911 75.7297 464.472Z" fill="#016845"/>
<path d="M6.87562 545.94C3.45985 541.364 1.36339 536.176 0.422308 530.612C-1.74947 517.924 1.08485 506.194 8.76761 495.518C17.073 483.983 28.7068 477.391 43.0017 474.975C50.8709 473.654 58.6417 474.389 66.2604 476.668C64.7651 481.191 63.2656 485.674 61.7702 490.196C47.1935 487.735 34.4639 491.281 24.8044 502.497C15.1221 513.696 13.8989 526.195 19.5589 539.36C15.3436 541.539 11.1884 543.692 6.87562 545.94Z" fill="#016845"/>
<path d="M16.8121 566.953C12.602 571.773 7.94198 576.103 1.74816 578.603C1.16529 578.841 0.559611 579.062 -0.0501978 579.244C-3.5742 580.22 -6.30467 578.374 -6.37359 574.925C-6.44664 571.437 -5.1469 568.246 -3.476 565.195C0.760414 557.433 6.36925 550.762 14.2647 546.102C16.0591 545.025 18.1893 544.35 20.2572 543.88C23.1879 543.243 25.284 544.637 25.4983 547.475C25.6551 549.366 25.4696 551.391 24.9088 553.236C23.3323 558.382 20.406 562.852 16.8121 566.953Z" fill="#016845"/>
<path d="M75.3501 470.878C79.3547 466.695 83.5853 462.866 88.8688 460.28C90.2442 459.603 91.7833 459.088 93.2953 458.913C96.2591 458.591 98.3759 460.181 98.4015 463.019C98.4213 465.202 98.0344 467.505 97.2641 469.55C95.0422 475.537 91.1283 480.585 86.5573 485.164C83.4449 488.263 80.0424 490.994 75.9185 492.846C74.5577 493.462 73.087 494.029 71.6207 494.239C68.1901 494.709 66.1813 492.948 66.1932 489.67C66.1655 486.614 67.208 483.766 68.7356 481.147C70.7988 477.639 73.1314 474.302 75.3501 470.878Z" fill="#016845"/>
</g>
<defs>
<clipPath id="clip0_2001_2">
<rect width="122" height="117" fill="white" transform="translate(243 415.648)"/>
</clipPath>
<clipPath id="clip1_2001_2">
<rect width="122" height="117" fill="white" transform="translate(-44 38.6484)"/>
</clipPath>
</defs>
</svg>
