<svg width="1440" height="573" viewBox="0 0 1440 573" fill="none" xmlns="http://www.w3.org/2000/svg">
<g opacity="0.79">
<path d="M1271.81 -104.076C1265.25 -102.88 1259.83 -99.2777 1254.76 -95.0218C1254.28 -94.6123 1253.1 -94.4589 1252.57 -94.7984C1224.2 -112.222 1177.24 -112.37 1142.29 -81.0297C1105.86 -48.325 1095.91 9.83073 1119.67 54.6719C1122.23 59.5563 1125.55 64.0357 1128.64 68.6047C1129.33 69.6161 1129.51 70.2524 1128.96 71.4234C1126.14 77.5149 1123.89 83.8748 1124.28 91.4075C1121.65 88.8246 1119.3 86.606 1117.04 84.3457C1087.9 55.2321 1069.25 -4.68618 1094.66 -58.9484C1111.97 -95.9591 1139.59 -119.698 1178.01 -127.921C1203.97 -133.526 1229.36 -130.255 1253.39 -117.141C1259.87 -113.574 1265.78 -108.901 1271.96 -104.714C1271.92 -104.513 1271.85 -104.276 1271.81 -104.076Z" fill="#016845"/>
<path d="M1248.74 -89.1356C1245.37 -84.6911 1242.09 -80.2884 1238.7 -76.0386C1238.35 -75.5764 1237.16 -75.4878 1236.55 -75.7209C1224.61 -79.9115 1212.36 -81.1843 1200.09 -79.1098C1176.76 -75.1498 1157.97 -63.2251 1145.17 -41.9086C1131.22 -18.703 1128.07 6.28438 1136.91 32.7997C1137.85 35.5578 1139.08 38.22 1140.33 40.7818C1141.54 43.3142 1142.99 45.6919 1144.34 48.0465C1140.48 53.131 1136.66 58.1799 1132.67 63.4422C1122.02 49.345 1116.04 33.2939 1113.77 15.6835C1110.24 -11.5728 1115.98 -36.4964 1131.03 -58.3379C1164.33 -106.612 1219.73 -106.931 1248.74 -89.1356Z" fill="#016845"/>
<path d="M1149.15 43.7023C1144.05 36.0893 1140.88 27.4927 1139.4 18.2974C1135.98 -2.67068 1139.91 -21.9637 1150.97 -39.427C1162.92 -58.2939 1179.84 -68.9451 1200.74 -72.6565C1212.25 -74.6857 1223.65 -73.3261 1234.86 -69.4213C1232.75 -61.9907 1230.64 -54.625 1228.53 -47.1944C1207.13 -51.5321 1188.54 -45.9256 1174.6 -27.6095C1160.62 -9.32285 1159.06 11.2687 1167.61 33.0907C1161.47 36.6042 1155.42 40.0759 1149.15 43.7023Z" fill="#016845"/>
<path d="M1163.17 78.498C1157.09 86.3679 1150.34 93.4206 1141.31 97.4269C1140.46 97.8089 1139.58 98.1616 1138.69 98.4495C1133.54 99.9924 1129.51 96.8957 1129.34 91.2058C1129.17 85.4511 1131.01 80.2116 1133.4 75.2114C1139.46 62.4892 1147.56 51.5926 1159.04 44.0557C1161.65 42.313 1164.76 41.2408 1167.78 40.5055C1172.06 39.51 1175.16 41.8498 1175.53 46.5351C1175.79 49.6566 1175.56 52.9931 1174.77 56.0254C1172.56 64.4839 1168.36 71.8013 1163.17 78.498Z" fill="#016845"/>
</g>
<g opacity="0.79">
<path d="M1075.77 678.311C1072.48 672.131 1067.45 667.79 1061.96 663.981C1061.43 663.625 1060.9 662.495 1061.02 661.873C1066.71 628.547 1050.81 581.766 1011.22 556.118C969.909 529.393 915.18 536.455 883.712 573.189C880.276 577.168 877.455 581.779 874.475 586.182C873.817 587.162 873.32 587.536 872.098 587.328C865.756 586.291 859.376 585.91 852.86 588.495C854.241 585.123 855.398 582.139 856.622 579.23C872.373 541.734 918.893 505.684 975.464 515.147C1014.04 521.582 1044.43 542.152 1064.8 577.99C1078.61 602.199 1084.39 628.427 1081.02 656.171C1080.08 663.656 1077.97 670.907 1076.38 678.272C1076.19 678.29 1075.96 678.292 1075.77 678.311Z" fill="#016845"/>
<path d="M1054.42 659.84C1049.35 657.79 1044.35 655.815 1039.45 653.689C1038.92 653.475 1038.44 652.323 1038.44 651.653C1038.06 638.587 1035.01 626.063 1028.99 614.496C1017.55 592.504 1000.64 577.338 977.488 570.84C952.281 563.749 929.186 567.89 908.836 584.383C906.724 586.11 904.797 588.105 902.965 590.09C901.148 592.033 899.546 594.158 897.931 596.183C892.136 593.838 886.382 591.51 880.384 589.083C889.177 574.419 901.285 563.822 916.03 556.445C938.847 545.017 962.766 543.456 987.144 552.03C1041.04 571.016 1060.21 625.882 1054.42 659.84Z" fill="#016845"/>
<path d="M903.072 600.327C908.046 593.059 914.543 587.411 922.142 583.262C939.458 573.764 957.805 572.052 976.968 577.943C997.674 584.315 1012.83 598.01 1023.23 617.674C1028.94 628.503 1031.63 640.213 1032.01 652.472C1024.74 652.544 1017.53 652.591 1010.26 652.663C1006.79 630.156 995.508 613.342 974.609 604.834C953.724 596.285 935.043 600.733 918.721 615.561C913.531 610.494 908.409 605.502 903.072 600.327Z" fill="#016845"/>
</g>
<g opacity="0.79">
<path d="M386.406 392.144C391.379 393.262 396.255 392.347 401.081 390.87C401.538 390.725 402.414 390.969 402.685 391.365C417.557 412.077 450.599 426.195 484.439 414.602C519.724 402.492 543.827 364.593 540.263 325.988C539.891 321.79 538.869 317.651 538.038 313.52C537.851 312.604 537.904 312.1 538.637 311.442C542.42 308.005 545.873 304.206 547.812 298.796C548.907 301.397 549.909 303.656 550.837 305.919C562.811 335.075 558.346 382.751 524.492 413.3C501.415 434.143 474.974 442.582 445.49 436.896C425.547 433.086 408.618 423.209 395.541 406.821C392.027 402.383 389.232 397.333 386.115 392.548C386.202 392.419 386.319 392.273 386.406 392.144Z" fill="#016845"/>
<path d="M407.034 388.258C410.709 386.146 414.31 384.036 417.941 382.067C418.324 381.847 419.185 382.138 419.543 382.483C426.714 388.976 434.958 393.516 444.197 395.715C461.77 399.885 478.484 397.119 493.744 385.988C510.37 373.875 519.921 357.297 521.479 336.075C521.632 333.864 521.548 331.632 521.421 329.464C521.309 327.326 520.99 325.229 520.731 323.176C524.935 320.76 529.109 318.36 533.46 315.859C536.813 328.912 536.304 341.943 532.734 354.965C527.216 375.122 515.866 390.886 498.872 401.716C461.283 425.643 422.219 409.371 407.034 388.258Z" fill="#016845"/>
<path d="M515.853 324.347C517.2 331.203 516.907 338.175 515.252 345.065C511.504 360.788 503.074 373.147 490.169 382.1C476.221 391.771 461.188 394.2 445.393 390.577C436.702 388.573 429.081 384.224 422.342 378.148C426.005 373.565 429.654 369.029 433.317 364.445C447.104 373.862 461.826 375.466 477.012 366.775C492.214 358.114 499.353 344.137 499.75 326.291C505.098 325.654 510.372 325.021 515.853 324.347Z" fill="#016845"/>
<path d="M515.101 295.546C521.687 291.838 528.504 288.903 536.032 288.783C536.742 288.768 537.467 288.784 538.177 288.847C542.25 289.297 544.181 292.671 542.627 296.709C541.06 300.796 538.224 303.92 535.074 306.714C527.076 313.829 518.184 319.059 507.894 320.924C505.547 321.369 503.045 321.195 500.703 320.811C497.398 320.233 495.906 317.67 497.023 314.276C497.752 312.008 498.896 309.738 500.34 307.847C504.379 302.575 509.485 298.696 515.101 295.546Z" fill="#016845"/>
<path d="M410.16 379.91C404.084 382.97 397.943 385.517 391.308 386.147C389.579 386.315 387.759 386.221 386.126 385.744C382.935 384.786 381.514 381.985 382.824 378.676C383.831 376.13 385.313 373.626 387.066 371.596C392.163 365.637 398.553 361.531 405.396 358.265C410.047 356.064 414.822 354.42 419.922 354.122C421.608 354.019 423.383 354.021 424.985 354.437C428.724 355.433 429.954 358.383 428.398 362.188C426.988 365.752 424.578 368.592 421.778 370.949C418.011 374.098 414.048 376.927 410.16 379.91Z" fill="#016845"/>
</g>
<g opacity="0.79" clip-path="url(#clip0_2018_2)">
<path d="M118.517 578.633C120.251 575.227 122.086 571.856 123.683 568.383C126.47 562.321 128.373 555.987 128.781 549.313C129.257 541.651 127.659 534.636 121.95 529.086C118.177 525.442 113.351 523.944 108.356 523.024C95.9507 520.811 84.0557 522.888 72.5345 527.587C53.9103 535.181 38.7866 547.406 26.3818 563.104C21.5898 569.166 18.3951 575.977 18.1572 583.911C18.0552 586.942 18.3271 589.938 20.4682 592.901C13.5691 590.245 7.34971 587.452 3.40735 581.289C1.57212 578.428 1.67408 575.261 2.52372 572.094C4.56287 564.637 8.50522 558.133 13.2972 552.208C28.6248 533.342 47.4529 519.074 70.5293 510.765C81.2348 506.917 92.2802 505.044 103.665 505.793C111.652 506.304 119.469 507.837 126.674 511.616C134.695 515.805 138.841 522.65 139.419 531.537C140.472 548.087 134.219 561.947 123.377 574.001C121.882 575.67 120.353 577.305 118.823 578.973C118.721 578.871 118.619 578.769 118.517 578.633Z" fill="#016845"/>
<path d="M136.326 510.663C134.593 507.087 133.165 503.784 131.398 500.651C127.184 493.296 120.964 488.767 112.434 487.575C105.943 486.69 99.5872 487.473 93.2998 489.141C79.5016 492.819 67.4366 499.698 56.7311 509.13C55.8135 509.948 54.7259 510.595 53.6384 511.174C42.0832 517.099 31.2417 523.978 22.1675 533.376C22.0656 533.478 21.8957 533.546 21.3859 533.853C22.2695 531.367 22.9492 529.154 23.8328 527.042C34.4704 501.843 52.9927 485.123 78.482 475.793C87.0464 472.66 95.8488 470.855 105.025 471.093C109.375 471.195 113.725 471.706 117.838 473.239C126.47 476.44 131.194 483.148 133.879 491.559C135.85 497.655 136.564 503.954 136.326 510.663Z" fill="#016845"/>
<path d="M108.084 463.704C102.612 464.215 97.0043 464.351 91.5665 465.373C87.5562 466.122 84.3955 465.339 80.7591 463.67C63.3583 455.702 46.6033 457.609 30.9698 468.336C26.7556 471.23 23.2211 475.078 19.3467 478.449C18.701 479.028 17.9193 479.573 17.1036 479.811C9.7627 482.093 2.52373 484.647 -4.54532 488.563C-4.27343 487.814 -4.13749 487.337 -3.89959 486.86C7.04384 463.432 25.0563 448.653 50.6136 444.43C72.1946 440.889 91.1587 447.393 107.064 462.581C107.472 462.989 107.88 463.466 108.084 463.704Z" fill="#016845"/>
<path d="M56.3232 580.744C69.4418 579.314 80.2153 573.559 88.6777 563.582C97.1062 553.638 100.301 541.617 101.864 528.813C108.389 529.222 114.439 530.38 118.755 535.76C119.265 536.373 119.469 537.429 119.435 538.246C118.313 554.694 111.516 568.553 100.063 580.165C92.858 587.487 84.4295 592.969 74.5056 595.966C70.3594 597.226 67.0288 596.306 64.038 593.242C60.7414 589.836 57.4108 584.66 56.3232 580.744Z" fill="#016845"/>
<path d="M95.1691 528.983C93.8096 533.819 91.8045 538.076 89.3235 542.128C83.8178 551.22 76.3409 558.405 67.9464 564.705C55.3377 574.172 41.6414 581.425 26.2119 585.103C25.6681 585.239 25.1243 585.341 24.1047 585.545C24.7165 582.855 25.0903 580.335 25.804 577.952C27.5713 572.163 30.9699 567.293 35.0822 562.934C35.456 562.56 35.9658 562.253 36.5096 562.083C50.1379 557.043 61.1493 548.496 69.9516 536.952C70.6313 536.066 71.6169 535.249 72.6365 534.806C79.7395 531.674 87.2164 530.005 95.1691 528.983Z" fill="#016845"/>
<path d="M14.3508 534.364C12.4816 527.588 12.0737 521.152 12.5835 514.682C13.3312 504.636 16.186 495.169 21.8956 486.792C30.1882 474.67 41.4715 467.212 56.2893 465.68C61.625 465.135 72.5345 466.974 76.6468 469.255C61.659 474.567 48.4046 482.263 37.4611 493.943C26.5857 505.556 18.4971 518.564 14.3508 534.364Z" fill="#016845"/>
<path d="M12.7875 488.223C11.1901 492.718 9.38888 497.213 7.96148 501.81C7.11183 504.5 6.87393 507.36 6.26219 510.119C6.12624 510.698 5.82037 511.481 5.34457 511.753C-1.79245 516.146 -5.259 522.991 -7.26416 530.789C-8.69157 536.374 -9.16737 542.06 -8.92947 548.088C-9.37128 547.679 -9.67716 547.475 -9.91506 547.202C-21.5382 533.82 -22.9996 510.391 -4.20544 496.566C1.06236 492.684 6.87393 490.062 12.7875 488.223Z" fill="#016845"/>
<path d="M0.11073 560.415C-5.0891 546.862 -2.13233 527.86 5.4465 519.926C5.71839 522.854 5.88832 525.749 6.33013 528.609C7.1118 533.785 8.50522 538.757 10.7483 543.524C10.9522 543.967 10.8502 544.887 10.5444 545.227C6.26216 549.654 2.65967 554.524 0.11073 560.415Z" fill="#016845"/>
<path d="M125.688 503.648C111.278 498.608 96.8004 498.029 81.9825 500.209C86.0269 498.846 90.0372 497.382 94.1155 496.122C99.1114 494.556 104.175 493.602 109.443 493.773C116.682 494.011 121.984 497.314 125.688 503.648Z" fill="#016845"/>
</g>
<g opacity="0.79" clip-path="url(#clip1_2018_2)">
<path d="M308.517 260.749C310.251 257.366 312.086 254.017 313.683 250.566C316.47 244.544 318.373 238.252 318.781 231.621C319.257 224.009 317.659 217.04 311.95 211.526C308.177 207.906 303.351 206.418 298.356 205.504C285.951 203.305 274.056 205.369 262.534 210.037C243.91 217.582 228.787 229.727 216.382 245.323C211.59 251.344 208.395 258.11 208.157 265.993C208.055 269.004 208.327 271.981 210.468 274.924C203.569 272.285 197.35 269.511 193.407 263.388C191.572 260.546 191.674 257.4 192.524 254.254C194.563 246.845 198.505 240.383 203.297 234.497C218.625 215.755 237.453 201.58 260.529 193.325C271.235 189.502 282.28 187.642 293.665 188.386C301.652 188.893 309.469 190.416 316.674 194.171C324.695 198.332 328.841 205.132 329.419 213.962C330.472 230.403 324.219 244.172 313.377 256.148C311.882 257.806 310.353 259.43 308.823 261.088C308.721 260.986 308.619 260.885 308.517 260.749Z" fill="#016845"/>
<path d="M326.326 193.224C324.593 189.672 323.165 186.391 321.398 183.278C317.184 175.971 310.964 171.471 302.434 170.287C295.943 169.408 289.587 170.186 283.3 171.844C269.502 175.497 257.437 182.331 246.731 191.702C245.813 192.514 244.726 193.157 243.638 193.732C232.083 199.618 221.242 206.452 212.168 215.789C212.066 215.891 211.896 215.958 211.386 216.263C212.269 213.793 212.949 211.594 213.833 209.497C224.47 184.462 242.993 167.852 268.482 158.582C277.046 155.47 285.849 153.677 295.025 153.913C299.375 154.015 303.725 154.522 307.838 156.045C316.47 159.225 321.194 165.889 323.879 174.246C325.85 180.301 326.564 186.56 326.326 193.224Z" fill="#016845"/>
<path d="M298.084 146.572C292.612 147.08 287.004 147.215 281.567 148.23C277.556 148.974 274.396 148.196 270.759 146.538C253.358 138.622 236.603 140.517 220.97 151.173C216.756 154.049 213.221 157.872 209.347 161.221C208.701 161.796 207.919 162.337 207.104 162.574C199.763 164.841 192.524 167.378 185.455 171.268C185.727 170.524 185.863 170.05 186.1 169.577C197.044 146.302 215.056 131.619 240.614 127.424C262.195 123.906 281.159 130.367 297.064 145.456C297.472 145.862 297.88 146.335 298.084 146.572Z" fill="#016845"/>
<path d="M246.323 262.847C259.442 261.426 270.215 255.709 278.678 245.797C287.106 235.918 290.301 223.976 291.864 211.256C298.389 211.662 304.439 212.812 308.755 218.157C309.265 218.766 309.469 219.815 309.435 220.627C308.313 236.967 301.516 250.736 290.063 262.272C282.858 269.546 274.43 274.992 264.506 277.969C260.359 279.221 257.029 278.308 254.038 275.263C250.741 271.88 247.411 266.738 246.323 262.847Z" fill="#016845"/>
<path d="M285.169 211.425C283.81 216.229 281.804 220.458 279.324 224.483C273.818 233.516 266.341 240.654 257.946 246.913C245.338 256.318 231.641 263.524 216.212 267.177C215.668 267.313 215.124 267.414 214.105 267.617C214.716 264.945 215.09 262.441 215.804 260.073C217.571 254.322 220.97 249.484 225.082 245.154C225.456 244.782 225.966 244.477 226.51 244.308C240.138 239.301 251.149 230.81 259.952 219.341C260.631 218.462 261.617 217.65 262.636 217.21C269.74 214.097 277.216 212.44 285.169 211.425Z" fill="#016845"/>
<path d="M204.351 216.77C202.482 210.038 202.074 203.644 202.584 197.216C203.331 187.236 206.186 177.831 211.896 169.509C220.188 157.466 231.471 150.057 246.289 148.534C251.625 147.993 262.534 149.82 266.647 152.087C251.659 157.364 238.405 165.01 227.461 176.614C216.586 188.15 208.497 201.073 204.351 216.77Z" fill="#016845"/>
<path d="M202.787 170.93C201.19 175.395 199.389 179.861 197.961 184.428C197.112 187.101 196.874 189.942 196.262 192.683C196.126 193.258 195.82 194.036 195.345 194.306C188.208 198.671 184.741 205.471 182.736 213.218C181.308 218.766 180.833 224.416 181.071 230.404C180.629 229.998 180.323 229.795 180.085 229.524C168.462 216.229 167 192.953 185.795 179.218C191.062 175.361 196.874 172.757 202.787 170.93Z" fill="#016845"/>
<path d="M190.111 242.65C184.911 229.186 187.868 210.308 195.447 202.426C195.718 205.335 195.888 208.211 196.33 211.053C197.112 216.195 198.505 221.134 200.748 225.87C200.952 226.31 200.85 227.223 200.544 227.562C196.262 231.96 192.66 236.797 190.111 242.65Z" fill="#016845"/>
<path d="M315.688 186.255C301.278 181.248 286.8 180.673 271.983 182.838C276.027 181.485 280.037 180.03 284.115 178.779C289.111 177.222 294.175 176.275 299.443 176.444C306.682 176.681 311.984 179.963 315.688 186.255Z" fill="#016845"/>
</g>
<g opacity="0.79" clip-path="url(#clip2_2018_2)">
<path d="M1141.38 342.749C1143.13 339.366 1144.97 336.017 1146.58 332.566C1149.39 326.544 1151.3 320.252 1151.71 313.621C1152.19 306.009 1150.58 299.04 1144.84 293.526C1141.04 289.906 1136.18 288.418 1131.16 287.504C1118.67 285.305 1106.7 287.369 1095.11 292.037C1076.37 299.582 1061.15 311.727 1048.66 327.323C1043.84 333.344 1040.63 340.11 1040.39 347.993C1040.29 351.004 1040.56 353.981 1042.71 356.924C1035.77 354.285 1029.51 351.511 1025.54 345.388C1023.7 342.546 1023.8 339.4 1024.66 336.254C1026.71 328.845 1030.68 322.383 1035.5 316.497C1050.92 297.755 1069.87 283.58 1093.09 275.325C1103.87 271.502 1114.98 269.642 1126.44 270.386C1134.47 270.893 1142.34 272.416 1149.59 276.171C1157.66 280.332 1161.84 287.132 1162.42 295.962C1163.48 312.403 1157.18 326.172 1146.27 338.148C1144.77 339.806 1143.23 341.43 1141.69 343.088C1141.59 342.986 1141.49 342.885 1141.38 342.749Z" fill="#016845"/>
<path d="M1159.3 275.224C1157.56 271.672 1156.12 268.391 1154.35 265.278C1150.1 257.971 1143.85 253.471 1135.26 252.287C1128.73 251.408 1122.33 252.186 1116.01 253.844C1102.12 257.497 1089.98 264.331 1079.21 273.702C1078.28 274.514 1077.19 275.157 1076.09 275.732C1064.47 281.618 1053.56 288.452 1044.42 297.789C1044.32 297.891 1044.15 297.958 1043.64 298.263C1044.53 295.793 1045.21 293.594 1046.1 291.497C1056.8 266.462 1075.44 249.852 1101.09 240.582C1109.71 237.47 1118.57 235.677 1127.81 235.913C1132.18 236.015 1136.56 236.522 1140.7 238.045C1149.39 241.225 1154.14 247.889 1156.84 256.246C1158.83 262.301 1159.54 268.56 1159.3 275.224Z" fill="#016845"/>
<path d="M1130.88 228.572C1125.38 229.08 1119.73 229.215 1114.26 230.23C1110.23 230.974 1107.05 230.196 1103.39 228.538C1085.88 220.622 1069.01 222.517 1053.28 233.173C1049.04 236.049 1045.48 239.872 1041.59 243.221C1040.94 243.796 1040.15 244.337 1039.33 244.574C1031.94 246.841 1024.66 249.378 1017.54 253.268C1017.82 252.524 1017.95 252.05 1018.19 251.577C1029.2 228.302 1047.33 213.619 1073.05 209.424C1094.77 205.906 1113.85 212.367 1129.86 227.456C1130.27 227.862 1130.68 228.335 1130.88 228.572Z" fill="#016845"/>
<path d="M1078.8 344.847C1092 343.426 1102.84 337.709 1111.36 327.797C1119.84 317.918 1123.05 305.976 1124.62 293.256C1131.19 293.662 1137.28 294.812 1141.62 300.157C1142.14 300.766 1142.34 301.815 1142.31 302.627C1141.18 318.967 1134.34 332.736 1122.81 344.272C1115.56 351.546 1107.08 356.992 1097.09 359.969C1092.92 361.221 1089.57 360.308 1086.56 357.263C1083.24 353.88 1079.89 348.738 1078.8 344.847Z" fill="#016845"/>
<path d="M1117.89 293.425C1116.52 298.229 1114.5 302.458 1112 306.483C1106.46 315.516 1098.94 322.654 1090.49 328.913C1077.8 338.318 1064.02 345.524 1048.49 349.177C1047.95 349.313 1047.4 349.414 1046.37 349.617C1046.99 346.945 1047.37 344.441 1048.08 342.073C1049.86 336.322 1053.28 331.484 1057.42 327.154C1057.8 326.782 1058.31 326.477 1058.86 326.308C1072.57 321.301 1083.65 312.81 1092.51 301.341C1093.19 300.462 1094.19 299.65 1095.21 299.21C1102.36 296.097 1109.88 294.44 1117.89 293.425Z" fill="#016845"/>
<path d="M1036.56 298.77C1034.68 292.038 1034.27 285.644 1034.78 279.216C1035.53 269.236 1038.4 259.831 1044.15 251.509C1052.5 239.466 1063.85 232.057 1078.76 230.534C1084.13 229.993 1095.11 231.82 1099.25 234.087C1084.17 239.364 1070.83 247.01 1059.81 258.614C1048.87 270.15 1040.73 283.073 1036.56 298.77Z" fill="#016845"/>
<path d="M1034.98 252.93C1033.38 257.395 1031.56 261.861 1030.13 266.428C1029.27 269.101 1029.03 271.942 1028.42 274.683C1028.28 275.258 1027.97 276.036 1027.49 276.306C1020.31 280.671 1016.82 287.471 1014.81 295.218C1013.37 300.766 1012.89 306.416 1013.13 312.404C1012.69 311.998 1012.38 311.795 1012.14 311.524C1000.44 298.229 998.971 274.953 1017.88 261.218C1023.19 257.361 1029.03 254.757 1034.98 252.93Z" fill="#016845"/>
<path d="M1022.23 324.65C1016.99 311.186 1019.97 292.308 1027.6 284.426C1027.87 287.335 1028.04 290.211 1028.49 293.053C1029.27 298.195 1030.68 303.134 1032.93 307.87C1033.14 308.31 1033.03 309.223 1032.73 309.562C1028.42 313.96 1024.79 318.797 1022.23 324.65Z" fill="#016845"/>
<path d="M1148.6 268.255C1134.1 263.248 1119.53 262.673 1104.62 264.838C1108.69 263.485 1112.72 262.03 1116.83 260.779C1121.85 259.222 1126.95 258.275 1132.25 258.444C1139.54 258.681 1144.87 261.963 1148.6 268.255Z" fill="#016845"/>
</g>
<g opacity="0.79" clip-path="url(#clip3_2018_2)">
<path d="M66.19 -22.3667C0.471117 0.98121 -65.3372 24.3609 -131.637 47.9152C-134.02 42.0595 -136.431 36.2645 -138.845 30.3193C-73.1263 6.97145 -7.98859 -16.1699 57.1044 -39.2955C60.1128 -33.6622 63.1211 -28.0288 66.19 -22.3667Z" fill="#016845"/>
<path d="M-126.58 53.929C-124.345 53.1349 -122.11 52.3407 -119.919 51.5625C-57.1061 29.247 5.66214 6.94737 68.4592 -15.4129C70.4263 -16.1117 71.4089 -15.7553 72.7759 -14.1749C76.5393 -9.81769 80.5679 -5.70586 84.6313 -1.35443C83.9766 -1.07144 83.2325 -0.756687 82.4725 -0.486674C18.1842 22.353 -46.1041 45.1926 -110.377 68.077C-111.986 68.6487 -113.141 68.6561 -114.397 67.3889C-118.624 63.1458 -122.879 58.9632 -127.134 54.7807C-126.945 54.4617 -126.785 54.2033 -126.58 53.929Z" fill="#016845"/>
<path d="M54.5827 -64.2513C52.6048 -58.0559 53.7394 -52.3112 54.9664 -46.4482C-9.90311 -23.4021 -74.6832 -0.387753 -139.732 22.7219C-140.042 16.1803 -139.551 9.90862 -134.983 4.90952C-133.279 3.04442 -130.711 1.62812 -128.252 0.754557C-78.5987 -16.9361 -28.8848 -34.5979 20.8291 -52.2597C31.2458 -55.9604 41.7072 -59.677 52.1239 -63.3777C52.7945 -63.616 53.5098 -63.8701 54.5827 -64.2513Z" fill="#016845"/>
<path d="M109.864 13.2645C85.9459 21.7619 62.0278 30.2592 38.1097 38.7566C1.76311 51.6694 -34.6759 64.4639 -70.943 77.6004C-81.3279 81.3906 -91.0203 80.7523 -100.806 76.1663C-102.139 75.5313 -103.633 75.1548 -105.052 74.7017C-104.953 74.4144 -104.914 74.0983 -104.815 73.8111C-104.205 73.544 -103.656 73.248 -103.03 73.0257C-38.7861 50.2019 25.4128 27.394 89.6723 4.61503C90.5218 4.31325 91.8242 4.15288 92.4938 4.62046C97.8925 8.19518 103.55 11.2243 109.864 13.2645Z" fill="#016845"/>
<path d="M63.7905 -43.4351C62.2566 -48.8867 60.965 -54.2229 61.3782 -59.8624C61.7825 -65.9522 64.9626 -69.0473 71.0368 -69.24C77.0057 -69.4456 82.3904 -67.3273 87.4165 -64.3761C103.815 -54.7822 116.001 -41.1722 125.167 -24.7255C128.561 -18.5741 131.106 -12.1208 131.696 -5.07412C132.393 2.84152 128.369 7.24442 120.415 7.24824C115.132 7.26042 110.267 5.6126 105.745 3.08715C90.615 -5.34496 78.9852 -17.3889 69.842 -31.9289C67.6225 -35.6252 65.8183 -39.5698 63.7905 -43.4351Z" fill="#016845"/>
</g>
<g opacity="0.79" clip-path="url(#clip4_2018_2)">
<path d="M1468.39 168.254C1402.67 191.602 1336.86 214.982 1270.56 238.536C1268.18 232.681 1265.77 226.886 1263.36 220.94C1329.08 197.593 1394.21 174.451 1459.31 151.326C1462.31 156.959 1465.32 162.592 1468.39 168.254Z" fill="#016845"/>
<path d="M1275.62 244.55C1277.86 243.756 1280.09 242.962 1282.28 242.184C1345.1 219.868 1407.86 197.568 1470.66 175.208C1472.63 174.509 1473.61 174.866 1474.98 176.446C1478.74 180.803 1482.77 184.915 1486.83 189.267C1486.18 189.55 1485.43 189.864 1484.67 190.134C1420.39 212.974 1356.1 235.814 1291.83 258.698C1290.22 259.27 1289.06 259.277 1287.8 258.01C1283.58 253.767 1279.32 249.584 1275.07 245.402C1275.26 245.083 1275.42 244.824 1275.62 244.55Z" fill="#016845"/>
<path d="M1456.78 126.37C1454.81 132.565 1455.94 138.31 1457.17 144.173C1392.3 167.219 1327.52 190.233 1262.47 213.343C1262.16 206.801 1262.65 200.53 1267.22 195.531C1268.92 193.666 1271.49 192.249 1273.95 191.376C1323.6 173.685 1373.32 156.023 1423.03 138.361C1433.45 134.661 1443.91 130.944 1454.33 127.243C1455 127.005 1455.71 126.751 1456.78 126.37Z" fill="#016845"/>
<path d="M1512.07 203.886C1488.15 212.383 1464.23 220.88 1440.31 229.378C1403.97 242.29 1367.53 255.085 1331.26 268.221C1320.87 272.012 1311.18 271.373 1301.4 266.787C1300.06 266.152 1298.57 265.776 1297.15 265.323C1297.25 265.036 1297.29 264.719 1297.39 264.432C1298 264.165 1298.55 263.869 1299.17 263.647C1363.42 240.823 1427.62 218.015 1491.87 195.236C1492.72 194.934 1494.03 194.774 1494.7 195.242C1500.09 198.816 1505.75 201.845 1512.07 203.886Z" fill="#016845"/>
</g>
<g opacity="0.79" clip-path="url(#clip5_2018_2)">
<path d="M1376.87 592.726C1317.28 556.495 1257.6 520.216 1197.48 483.665C1200.52 478.12 1203.49 472.592 1206.58 466.967C1266.17 503.197 1325.24 539.107 1384.26 574.993C1381.79 580.882 1379.33 586.771 1376.87 592.726Z" fill="#016845"/>
<path d="M1196.01 491.383C1198.04 492.616 1200.06 493.848 1202.05 495.056C1259.01 529.684 1315.93 564.288 1372.91 598.876C1374.69 599.96 1375.04 600.947 1374.68 603.005C1373.67 608.674 1373.03 614.394 1372.22 620.293C1371.58 619.964 1370.87 619.585 1370.18 619.166C1311.88 583.725 1253.59 548.283 1195.26 512.882C1193.81 511.994 1193.07 511.103 1193.26 509.329C1193.88 503.373 1194.44 497.432 1195 491.492C1195.37 491.437 1195.67 491.398 1196.01 491.383Z" fill="#016845"/>
<path d="M1402.03 557.284C1395.97 559.661 1392.23 564.167 1388.46 568.82C1329.64 533.058 1270.9 497.345 1211.91 461.484C1216.79 457.115 1221.96 453.536 1228.72 453.923C1231.24 454.067 1233.96 455.165 1236.19 456.52C1281.26 483.862 1326.34 511.269 1371.42 538.676C1380.87 544.418 1390.35 550.186 1399.8 555.928C1400.41 556.298 1401.05 556.692 1402.03 557.284Z" fill="#016845"/>
<path d="M1376.81 649.091C1355.12 635.905 1333.43 622.719 1311.74 609.533C1278.78 589.495 1245.85 569.311 1212.77 549.477C1203.28 543.815 1197.65 535.895 1195.03 525.411C1194.68 523.976 1194.03 522.58 1193.49 521.193C1193.77 521.088 1194.04 520.919 1194.33 520.815C1194.92 521.119 1195.5 521.358 1196.06 521.703C1254.32 557.121 1312.54 592.513 1370.77 627.971C1371.54 628.439 1372.49 629.348 1372.55 630.162C1373.18 636.606 1374.4 642.906 1376.81 649.091Z" fill="#016845"/>
<path d="M1391.7 577.565C1394.96 572.934 1398.28 568.564 1402.91 565.324C1407.89 561.793 1412.3 562.306 1416.28 566.895C1420.21 571.395 1421.97 576.908 1422.85 582.669C1425.76 601.443 1422.9 619.486 1415.93 636.977C1413.3 643.493 1409.9 649.54 1404.81 654.446C1399.11 659.984 1393.16 659.642 1388.13 653.476C1384.79 649.386 1383 644.573 1382.1 639.471C1379.09 622.414 1381.09 605.792 1386.59 589.522C1388.06 585.467 1389.98 581.578 1391.7 577.565Z" fill="#016845"/>
</g>
<defs>
<clipPath id="clip0_2018_2">
<rect width="158" height="153" fill="white" transform="translate(-18.4795 443.477)"/>
</clipPath>
<clipPath id="clip1_2018_2">
<rect width="158" height="152" fill="white" transform="translate(171.521 126.477)"/>
</clipPath>
<clipPath id="clip2_2018_2">
<rect width="159" height="152" fill="white" transform="translate(1003.52 208.477)"/>
</clipPath>
<clipPath id="clip3_2018_2">
<rect width="268.108" height="91.6441" fill="white" transform="translate(-147 7.36523) rotate(-19.5585)"/>
</clipPath>
<clipPath id="clip4_2018_2">
<rect width="268.108" height="91.6441" fill="white" transform="translate(1255.2 197.986) rotate(-19.5585)"/>
</clipPath>
<clipPath id="clip5_2018_2">
<rect width="268.108" height="91.6441" fill="white" transform="translate(1219.23 446.152) rotate(31.2976)"/>
</clipPath>
</defs>
</svg>
