<svg width="30" height="29" viewBox="0 0 30 29" fill="none" xmlns="http://www.w3.org/2000/svg">
<circle cx="15.1545" cy="14.5" r="14.5" fill="#E8C346"/>
<path d="M21.7837 10.5695C21.7037 10.2662 21.5468 9.98936 21.3284 9.76666C21.11 9.54397 20.8379 9.38317 20.5391 9.30028C19.4416 9 15.0391 9 15.0391 9C15.0391 9 10.6366 9 9.5392 9.30028C9.24041 9.38317 8.96826 9.54397 8.74988 9.76666C8.53151 9.98936 8.37453 10.2662 8.2946 10.5695C8.00024 11.6902 8.00024 14.0264 8.00024 14.0264C8.00024 14.0264 8.00024 16.3625 8.2946 17.4832C8.37443 17.7867 8.53137 18.0636 8.74975 18.2864C8.96813 18.5093 9.24033 18.6702 9.5392 18.7531C10.6373 19.0527 15.0391 19.0527 15.0391 19.0527C15.0391 19.0527 19.4416 19.0527 20.5391 18.7531C20.8379 18.6702 21.1101 18.5093 21.3285 18.2864C21.5469 18.0636 21.7038 17.7867 21.7837 17.4832C22.078 16.3638 22.078 14.0264 22.078 14.0264C22.078 14.0264 22.078 11.6902 21.7837 10.5695ZM13.5994 16.1478V11.9056L17.2788 14.027L13.5994 16.1478Z" stroke="#046E4B" stroke-width="1.5" stroke-miterlimit="10" stroke-linejoin="round"/>
</svg>
